<?xml version="1.0" encoding="UTF-8" standalone="no"?>
<!-- Created with Inkscape (http://www.inkscape.org/) -->

<svg
   xmlns:dc="http://purl.org/dc/elements/1.1/"
   xmlns:cc="http://creativecommons.org/ns#"
   xmlns:rdf="http://www.w3.org/1999/02/22-rdf-syntax-ns#"
   xmlns:svg="http://www.w3.org/2000/svg"
   xmlns="http://www.w3.org/2000/svg"
   xmlns:sodipodi="http://sodipodi.sourceforge.net/DTD/sodipodi-0.dtd"
   xmlns:inkscape="http://www.inkscape.org/namespaces/inkscape"
   width="1000"
   height="1000"
   id="svg2"
   version="1.1"
   inkscape:version="0.48.4 r9939"
   sodipodi:docname="hebrew point hataf patah.svg">
  <defs
     id="defs4" />
  <sodipodi:namedview
     id="base"
     pagecolor="#ffffff"
     bordercolor="#666666"
     borderopacity="1.0"
     inkscape:pageopacity="0.0"
     inkscape:pageshadow="2"
     inkscape:zoom="0.98994949"
     inkscape:cx="-104.6746"
     inkscape:cy="208.89428"
     inkscape:document-units="px"
     inkscape:current-layer="layer1"
     showgrid="true"
     gridtolerance="10"
     guidetolerance="10"
     showguides="true"
     inkscape:guide-bbox="true"
     inkscape:window-width="3078"
     inkscape:window-height="1752"
     inkscape:window-x="122"
     inkscape:window-y="48"
     inkscape:window-maximized="1">
    <sodipodi:guide
       orientation="0,1"
       position="500,247"
       id="guide3019" />
    <sodipodi:guide
       orientation="0,1"
       position="500,732"
       id="guide3072" />
    <sodipodi:guide
       orientation="0,1"
       position="500,842"
       id="guide3074" />
    <sodipodi:guide
       orientation="0,1"
       position="500,955"
       id="guide3076" />
    <sodipodi:guide
       orientation="1,0"
       position="100,500"
       id="guide3867" />
    <sodipodi:guide
       orientation="1,0"
       position="180,500"
       id="guide3869" />
    <sodipodi:guide
       orientation="0,1"
       position="500,43"
       id="guide11274" />
    <sodipodi:guide
       orientation="0,1"
       position="500,172"
       id="guide3052" />
  </sodipodi:namedview>
  <metadata
     id="metadata7">
    <rdf:RDF>
      <cc:Work
         rdf:about="">
        <dc:format>image/svg+xml</dc:format>
        <dc:type
           rdf:resource="http://purl.org/dc/dcmitype/StillImage" />
        <dc:title></dc:title>
      </cc:Work>
    </rdf:RDF>
  </metadata>
  <g
     inkscape:label="Layer 1"
     inkscape:groupmode="layer"
     id="layer1"
     transform="translate(0,-52.362183)">
    <path
       sodipodi:nodetypes="sssssssssss"
       style="fill:none;stroke:#000000;stroke-width:1.03199995;stroke-miterlimit:4;stroke-opacity:1;stroke-dasharray:none"
       inkscape:connector-curvature="0"
       d="m 182.75341,933.64246 c -22.01706,-0.005 -54.66959,1.5293 -75.84006,0.845 -6.995295,-0.22611 -8.282164,-3.10883 -8.293356,-10.34115 -0.01213,-7.8346 -0.02426,-15.66921 -0.03633,-23.50381 -0.01435,-9.29767 4.160346,-15.12862 14.803986,-14.86215 14.06131,0.35203 43.16454,0.68395 61.49856,0.68395 24.67663,0 58.77262,-1.2288 74.30446,-0.68391 11.33275,0.39758 11.13435,3.07562 11.26919,10.00193 0.20076,10.31199 0.40151,20.62399 0.60227,30.93598 0.16707,8.58195 -6.96571,8.30448 -16.73198,7.93279 -19.81578,-0.75415 -46.09036,-1.00486 -61.57674,-1.00863 z"
       id="path3000" />
    <g
       style="fill:none;stroke:#000000;stroke-width:1.76961458;stroke-miterlimit:4;stroke-opacity:1;stroke-dasharray:none"
       transform="matrix(-0.58317782,0,0,-0.58317782,464.58753,975.01838)"
       id="g3232-9-5">
      <path
         sodipodi:nodetypes="sssss"
         style="fill:none;stroke:#000000;stroke-width:1.76961458;stroke-miterlimit:4;stroke-opacity:1;stroke-dasharray:none"
         inkscape:connector-curvature="0"
         d="m 140.87214,49.175206 c 24.68564,0.9861 50.26258,16.307926 50.26258,55.678214 0,46.8549 -28.10328,61.33732 -53.00086,61.33732 -32.26882,0 -48.376157,-20.01547 -48.376157,-62.62814 0,-34.962771 19.429627,-55.653094 51.114437,-54.387394 z"
         id="path3234-8-0" />
    </g>
    <g
       style="fill:none;stroke:#000000;stroke-width:1.76961458;stroke-miterlimit:4;stroke-opacity:1;stroke-dasharray:none"
       transform="matrix(-0.58317782,0,0,0.58317782,464.58757,949.52843)"
       id="g3232-9-7">
      <path
         sodipodi:nodetypes="sssss"
         style="fill:none;stroke:#000000;stroke-width:1.76961458;stroke-miterlimit:4;stroke-opacity:1;stroke-dasharray:none"
         inkscape:connector-curvature="0"
         d="m 140.87214,49.175206 c 24.68564,0.9861 50.26258,16.307926 50.26258,55.678214 0,46.8549 -28.10328,61.33732 -53.00086,61.33732 -32.26882,0 -48.376157,-20.01547 -48.376157,-62.62814 0,-34.962771 19.429627,-55.653094 51.114437,-54.387394 z"
         id="path3234-8-0-0" />
    </g>
    <path
       id="path3000-3"
       d="m 288.48445,975.86862 c 0.005,-22.03216 -1.21541,-60.70709 -0.67158,-81.8921 0.17973,-7.00011 2.47075,-8.28783 8.21866,-8.29905 l 18.67972,-0.0364 c 7.38935,-0.0144 12.02351,4.16322 11.81173,14.81419 -0.27977,14.07096 -0.54357,49.19413 -0.54357,67.54072 0,24.69359 0.97659,64.81302 0.54354,80.35552 -0.31598,11.3406 -2.44436,11.142 -7.94906,11.277 l -24.58645,0.6027 c -6.82051,0.1671 -6.64249,-6.9727 -6.3046,-16.7435 0.54261,-23.1701 0.79686,-46.44934 0.80161,-67.61903 z"
       inkscape:connector-curvature="0"
       style="fill:none;stroke:#000000;stroke-width:1.03199995;stroke-miterlimit:4;stroke-opacity:1;stroke-dasharray:none"
       sodipodi:nodetypes="ssssssssscs" />
  </g>
</svg>
