<?xml version="1.0" encoding="UTF-8" standalone="no"?>
<!-- Created with Inkscape (http://www.inkscape.org/) -->

<svg
   xmlns:dc="http://purl.org/dc/elements/1.1/"
   xmlns:cc="http://creativecommons.org/ns#"
   xmlns:rdf="http://www.w3.org/1999/02/22-rdf-syntax-ns#"
   xmlns:svg="http://www.w3.org/2000/svg"
   xmlns="http://www.w3.org/2000/svg"
   xmlns:sodipodi="http://sodipodi.sourceforge.net/DTD/sodipodi-0.dtd"
   xmlns:inkscape="http://www.inkscape.org/namespaces/inkscape"
   width="1000"
   height="1000"
   id="svg2"
   version="1.1"
   inkscape:version="0.48.4 r9939"
   sodipodi:docname="degree sign.svg">
  <defs
     id="defs4" />
  <sodipodi:namedview
     id="base"
     pagecolor="#ffffff"
     bordercolor="#666666"
     borderopacity="1.0"
     inkscape:pageopacity="0.0"
     inkscape:pageshadow="2"
     inkscape:zoom="0.70710678"
     inkscape:cx="-97.061582"
     inkscape:cy="525.76612"
     inkscape:document-units="px"
     inkscape:current-layer="layer1"
     showgrid="true"
     gridtolerance="10"
     guidetolerance="10"
     showguides="true"
     inkscape:guide-bbox="true"
     inkscape:window-width="1859"
     inkscape:window-height="1056"
     inkscape:window-x="61"
     inkscape:window-y="24"
     inkscape:window-maximized="1">
    <sodipodi:guide
       orientation="0,1"
       position="500,247"
       id="guide3019" />
    <sodipodi:guide
       orientation="0,1"
       position="500,732"
       id="guide3072" />
    <sodipodi:guide
       orientation="0,1"
       position="500,842"
       id="guide3074" />
    <sodipodi:guide
       orientation="0,1"
       position="500,955"
       id="guide3076" />
    <sodipodi:guide
       orientation="1,0"
       position="100,500"
       id="guide3867" />
    <sodipodi:guide
       orientation="1,0"
       position="180,500"
       id="guide3869" />
    <sodipodi:guide
       orientation="0,1"
       position="500,43"
       id="guide11274" />
  </sodipodi:namedview>
  <metadata
     id="metadata7">
    <rdf:RDF>
      <cc:Work
         rdf:about="">
        <dc:format>image/svg+xml</dc:format>
        <dc:type
           rdf:resource="http://purl.org/dc/dcmitype/StillImage" />
        <dc:title></dc:title>
      </cc:Work>
    </rdf:RDF>
  </metadata>
  <g
     inkscape:label="Layer 1"
     inkscape:groupmode="layer"
     id="layer1"
     transform="translate(0,-52.362183)">
    <g
       id="g3031"
       transform="translate(42,12)">
      <path
         transform="translate(0,52.362183)"
         sodipodi:nodetypes="sscscsssscscsssscscsssscscssss"
         inkscape:connector-curvature="0"
         id="path4737"
         d="m 334.3125,293.5625 c -2.43669,0.0734 -5.01163,1.32007 -7.65625,4.21875 l -41.3125,45.28125 c -20.13272,-16.20767 -44.96032,-25.56515 -71.3125,-24.96875 -24.2848,0.54963 -46.90178,9.48359 -65.46875,24.25 L 108.09375,298 c -6.04579,-6.6247 -11.66695,-4.64969 -16.25,0.375 l -34.375,37.6875 c -5.146897,5.64287 -2.39708,12.09941 2.3125,15.5625 L 111.96875,390 c -7.80803,17.53023 -12.033549,37.28077 -11.5625,58.09375 0.49039,21.66751 6.00761,41.95488 15.25,59.625 l -51.375,37.8125 c -4.708051,3.46517 -7.490647,9.91963 -2.34375,15.5625 l 34.375,37.6875 c 4.58305,5.02469 10.23626,7.00043 16.28125,0.375 14.10411,-15.45839 42.3125,-46.375 42.3125,-46.375 18.88407,13.21095 41.29852,20.6593 64.90625,20.125 23.06966,-0.52213 44.63836,-8.59667 62.65625,-22.0625 l 41.9375,45.9375 c 6.04692,6.62367 11.70255,4.6849 16.28125,-0.34375 l 34.34375,-37.71875 c 5.14201,-5.64732 2.39755,-12.10005 -2.3125,-15.5625 l -52.5,-38.59375 c 8.86247,-18.39991 13.6908,-39.41856 13.1875,-61.65625 -0.42413,-18.74011 -4.58582,-36.43621 -11.6875,-52.3125 l 53.25,-39.15625 c 4.70958,-3.46309 7.49065,-9.95088 2.34375,-15.59375 l -34.375,-37.6875 c -2.57797,-2.82639 -5.49211,-4.68811 -8.625,-4.59375 z"
         style="fill:none;stroke:#000000;stroke-width:1.07860875;stroke-miterlimit:4;stroke-opacity:1;stroke-dasharray:none" />
      <path
         id="path4737-6"
         d="m 216.91485,438.20154 c -33.00537,0 -59.76151,26.71115 -59.76151,59.66102 0,32.94986 26.75614,59.66101 59.76151,59.66101 33.00538,0 59.7615,-26.71115 59.7615,-59.66101 0,-32.94987 -26.75612,-59.66102 -59.7615,-59.66102 z"
         style="fill:none;stroke:#000000;stroke-width:1.03199995;stroke-miterlimit:4;stroke-opacity:1;stroke-dasharray:none"
         inkscape:connector-curvature="0"
         sodipodi:nodetypes="sssss" />
    </g>
  </g>
</svg>
