<?xml version="1.0" encoding="UTF-8" standalone="no"?>
<!-- Created with Inkscape (http://www.inkscape.org/) -->

<svg
   xmlns:dc="http://purl.org/dc/elements/1.1/"
   xmlns:cc="http://creativecommons.org/ns#"
   xmlns:rdf="http://www.w3.org/1999/02/22-rdf-syntax-ns#"
   xmlns:svg="http://www.w3.org/2000/svg"
   xmlns="http://www.w3.org/2000/svg"
   xmlns:sodipodi="http://sodipodi.sourceforge.net/DTD/sodipodi-0.dtd"
   xmlns:inkscape="http://www.inkscape.org/namespaces/inkscape"
   width="1000"
   height="1000"
   id="svg2"
   version="1.1"
   inkscape:version="0.48.4 r9939"
   sodipodi:docname="division sign.svg">
  <defs
     id="defs4" />
  <sodipodi:namedview
     id="base"
     pagecolor="#ffffff"
     bordercolor="#666666"
     borderopacity="1.0"
     inkscape:pageopacity="0.0"
     inkscape:pageshadow="2"
     inkscape:zoom="0.7"
     inkscape:cx="247.53618"
     inkscape:cy="616.53066"
     inkscape:document-units="px"
     inkscape:current-layer="g2998"
     showgrid="true"
     gridtolerance="10"
     guidetolerance="10"
     showguides="true"
     inkscape:guide-bbox="true"
     inkscape:window-width="1851"
     inkscape:window-height="1053"
     inkscape:window-x="69"
     inkscape:window-y="27"
     inkscape:window-maximized="1">
    <sodipodi:guide
       orientation="0,1"
       position="500,247"
       id="guide3019" />
    <sodipodi:guide
       orientation="0,1"
       position="500,732"
       id="guide3072" />
    <sodipodi:guide
       orientation="0,1"
       position="500,842"
       id="guide3074" />
    <sodipodi:guide
       orientation="0,1"
       position="500,955"
       id="guide3076" />
    <sodipodi:guide
       orientation="1,0"
       position="100,500"
       id="guide3867" />
    <sodipodi:guide
       orientation="1,0"
       position="180,500"
       id="guide3869" />
  </sodipodi:namedview>
  <metadata
     id="metadata7">
    <rdf:RDF>
      <cc:Work
         rdf:about="">
        <dc:format>image/svg+xml</dc:format>
        <dc:type
           rdf:resource="http://purl.org/dc/dcmitype/StillImage" />
        <dc:title></dc:title>
      </cc:Work>
    </rdf:RDF>
  </metadata>
  <g
     inkscape:label="Layer 1"
     inkscape:groupmode="layer"
     id="layer1"
     transform="translate(0,-52.362183)">
    <g
       id="g2998"
       transform="matrix(1,0,0,-1,36.928571,645.86218)"
       style="fill:none;stroke:#000000;stroke-opacity:1">
      <path
         id="path3000"
         d="m 228.62726,152.81109 c -59.48585,1.7e-4 -114.62657,-4.86242 -159.2424,-3.2624 -9.221487,0.3307 -12.676375,4.68955 -10.932637,15.12492 2.206395,13.20413 4.412789,26.40826 6.619183,39.61239 2.241709,13.41547 5.484339,22.12706 19.515229,21.73731 25.010345,-0.69474 63.958135,-3.00029 124.645955,-3.00029 57.59772,0 124.00027,4.19109 154.59471,3.00029 14.93933,-0.58147 16.49076,-4.6277 14.85554,-14.62879 l -7.88799,-48.2434 c -2.02609,-12.39169 -9.17102,-11.7524 -22.05684,-11.60243 -26.71891,0.31096 -87.18233,1.2623 -120.11075,1.2624 z"
         inkscape:connector-curvature="0"
         style="fill:none;stroke:#000000;stroke-width:1.03199995;stroke-miterlimit:4;stroke-opacity:1;stroke-dasharray:none"
         sodipodi:nodetypes="sssssssssss" />
      <g
         id="g3782"
         transform="translate(-11.928571,-117.64196)"
         style="fill:none;stroke:#000000;stroke-opacity:1" />
      <g
         id="g3232"
         transform="matrix(-1,0,0,1,354.71156,-36.768003)"
         style="fill:none;stroke:#000000;stroke-width:1.03199995;stroke-miterlimit:4;stroke-opacity:1;stroke-dasharray:none">
        <path
           id="path3234"
           d="M 139,122.35714 C 167.97689,121.19959 198,103.21429 198,57 198,2 165.01136,-15 135.78571,-15 97.907427,-15 79,8.4949239 79,58.515229 c 0,41.04061 22.80726,65.327661 60,63.841911 z"
           inkscape:connector-curvature="0"
           style="fill:none;stroke:#000000;stroke-width:1.03199995;stroke-miterlimit:4;stroke-opacity:1;stroke-dasharray:none"
           sodipodi:nodetypes="sssss" />
      </g>
      <path
         id="path3234-0"
         d="m 214.43129,287.69645 c 28.97689,1.15755 59,19.14285 59,65.35715 0,55 -32.98864,72 -62.21429,72 -37.87828,0 -56.78571,-23.49493 -56.78571,-73.51523 0,-41.04061 22.80726,-65.32767 60,-63.84192 z"
         inkscape:connector-curvature="0"
         style="fill:none;stroke:#000000;stroke-width:1.03199995;stroke-miterlimit:4;stroke-opacity:1;stroke-dasharray:none"
         sodipodi:nodetypes="sssss" />
    </g>
  </g>
</svg>
