<?xml version="1.0" encoding="UTF-8" standalone="no"?>
<!-- Created with Inkscape (http://www.inkscape.org/) -->

<svg
   xmlns:dc="http://purl.org/dc/elements/1.1/"
   xmlns:cc="http://creativecommons.org/ns#"
   xmlns:rdf="http://www.w3.org/1999/02/22-rdf-syntax-ns#"
   xmlns:svg="http://www.w3.org/2000/svg"
   xmlns="http://www.w3.org/2000/svg"
   xmlns:sodipodi="http://sodipodi.sourceforge.net/DTD/sodipodi-0.dtd"
   xmlns:inkscape="http://www.inkscape.org/namespaces/inkscape"
   width="1000"
   height="1000"
   id="svg2"
   version="1.1"
   inkscape:version="0.48.5 r10040"
   sodipodi:docname="left double quotation mark.svg">
  <defs
     id="defs4" />
  <sodipodi:namedview
     id="base"
     pagecolor="#ffffff"
     bordercolor="#666666"
     borderopacity="1.0"
     inkscape:pageopacity="0.0"
     inkscape:pageshadow="2"
     inkscape:zoom="1.979899"
     inkscape:cx="235.10958"
     inkscape:cy="858.85979"
     inkscape:document-units="px"
     inkscape:current-layer="g3232"
     showgrid="true"
     gridtolerance="10"
     guidetolerance="10"
     showguides="true"
     inkscape:guide-bbox="true"
     inkscape:window-width="1680"
     inkscape:window-height="983"
     inkscape:window-x="0"
     inkscape:window-y="27"
     inkscape:window-maximized="1">
    <sodipodi:guide
       orientation="0,1"
       position="500,247"
       id="guide3019" />
    <sodipodi:guide
       orientation="0,1"
       position="500,732"
       id="guide3072" />
    <sodipodi:guide
       orientation="0,1"
       position="500,842"
       id="guide3074" />
    <sodipodi:guide
       orientation="0,1"
       position="500,955"
       id="guide3076" />
    <sodipodi:guide
       orientation="1,0"
       position="100,500"
       id="guide3867" />
    <sodipodi:guide
       orientation="1,0"
       position="180,500"
       id="guide3869" />
  </sodipodi:namedview>
  <metadata
     id="metadata7">
    <rdf:RDF>
      <cc:Work
         rdf:about="">
        <dc:format>image/svg+xml</dc:format>
        <dc:type
           rdf:resource="http://purl.org/dc/dcmitype/StillImage" />
        <dc:title></dc:title>
      </cc:Work>
    </rdf:RDF>
  </metadata>
  <g
     inkscape:label="Layer 1"
     inkscape:groupmode="layer"
     id="layer1"
     transform="translate(0,-52.362183)">
    <g
       id="g5589"
       transform="matrix(1,0,0,-1,164.84915,801.88975)" />
    <g
       id="g3232"
       transform="matrix(-1,0,0,1,277.90105,211.74255)"
       style="fill:none;stroke:#000000;stroke-opacity:1">
      <path
         id="path3234"
         d="m 78.31098,40.45585 c -10.10638,27.02429 0.47249,68.33693 33.83608,80.81405 23.70958,8.86676 55.9273,2.84377 72.1554,-40.54986 18.11859,-50.53534 -1.11828,-109.15847 -25.30623,-145.20876 -11.67318,-16.98392 -32.7968,-40.01708 -51.2767,-53.09035 -6.12264,-4.33135 -11.8154,-4.31644 -18.58995,-0.56207 -6.15911,3.41331 -13.08833,11.00555 -15.73552,16.9511 -2.90956,6.5348 -2.305405,11.393568 2.28517,15.11984 20.112282,16.325588 32.50045,33.426451 33.95108,50.6892 1.45201,17.279104 -2.4925,32.883184 -10.54236,44.4641897 C 94.237407,16.061465 81.36297,32.29489 78.31098,40.45585 z"
         inkscape:connector-curvature="0"
         style="fill:none;stroke:#000000;stroke-opacity:1"
         sodipodi:nodetypes="sssssssssss" />
      <path
         id="path3234-8"
         d="m -79.658707,40.455843 c -10.106379,27.024292 0.47249,68.336937 33.83608,80.814057 23.70958,8.86676 55.9273,2.84377 72.155401,-40.549865 C 44.451363,30.184693 25.214494,-28.438433 1.0265433,-64.48872 -10.646637,-81.47264 -28.739799,-100.74503 -47.219699,-113.8183 c -6.12264,-4.33135 -11.8154,-4.31644 -18.58995,-0.56207 -6.15911,3.41331 -13.088329,11.00555 -15.735519,16.951103 -2.90956,6.5348 -2.30541,11.39357 2.28517,15.11984 20.112279,16.32559 29.469991,29.665675 30.920621,46.928424 1.45201,17.279106 -2.4925,32.883186 -10.54236,44.464186 -4.85054,6.97828 -17.72498,23.2117 -20.77697,31.37266 z"
         inkscape:connector-curvature="0"
         style="fill:none;stroke:#000000;stroke-opacity:1"
         sodipodi:nodetypes="sssssssssss" />
    </g>
  </g>
</svg>
