<?xml version="1.0" encoding="UTF-8" standalone="no"?>
<!-- Created with Inkscape (http://www.inkscape.org/) -->

<svg
   xmlns:dc="http://purl.org/dc/elements/1.1/"
   xmlns:cc="http://creativecommons.org/ns#"
   xmlns:rdf="http://www.w3.org/1999/02/22-rdf-syntax-ns#"
   xmlns:svg="http://www.w3.org/2000/svg"
   xmlns="http://www.w3.org/2000/svg"
   xmlns:sodipodi="http://sodipodi.sourceforge.net/DTD/sodipodi-0.dtd"
   xmlns:inkscape="http://www.inkscape.org/namespaces/inkscape"
   width="1000"
   height="1000"
   id="svg2"
   version="1.1"
   inkscape:version="0.48.4 r9939"
   sodipodi:docname="plus sign.svg">
  <defs
     id="defs4" />
  <sodipodi:namedview
     id="base"
     pagecolor="#ffffff"
     bordercolor="#666666"
     borderopacity="1.0"
     inkscape:pageopacity="0.0"
     inkscape:pageshadow="2"
     inkscape:zoom="0.7"
     inkscape:cx="36.053339"
     inkscape:cy="784.72898"
     inkscape:document-units="px"
     inkscape:current-layer="g2998"
     showgrid="true"
     gridtolerance="10"
     guidetolerance="10"
     showguides="true"
     inkscape:guide-bbox="true"
     inkscape:window-width="1859"
     inkscape:window-height="1056"
     inkscape:window-x="61"
     inkscape:window-y="24"
     inkscape:window-maximized="1">
    <sodipodi:guide
       orientation="0,1"
       position="500,247"
       id="guide3019" />
    <sodipodi:guide
       orientation="0,1"
       position="500,732"
       id="guide3072" />
    <sodipodi:guide
       orientation="0,1"
       position="500,842"
       id="guide3074" />
    <sodipodi:guide
       orientation="0,1"
       position="500,955"
       id="guide3076" />
    <sodipodi:guide
       orientation="1,0"
       position="100,500"
       id="guide3867" />
    <sodipodi:guide
       orientation="1,0"
       position="180,500"
       id="guide3869" />
  </sodipodi:namedview>
  <metadata
     id="metadata7">
    <rdf:RDF>
      <cc:Work
         rdf:about="">
        <dc:format>image/svg+xml</dc:format>
        <dc:type
           rdf:resource="http://purl.org/dc/dcmitype/StillImage" />
        <dc:title></dc:title>
      </cc:Work>
    </rdf:RDF>
  </metadata>
  <g
     inkscape:label="Layer 1"
     inkscape:groupmode="layer"
     id="layer1"
     transform="translate(0,-52.362183)">
    <g
       id="g2998"
       transform="matrix(1,0,0,-1,36.928571,645.86218)"
       style="fill:none;stroke:#000000;stroke-opacity:1">
      <path
         style="fill:none;stroke:#000000;stroke-width:1.03199995;stroke-miterlimit:4;stroke-opacity:1;stroke-dasharray:none"
         d="m 229.75893,406.90625 c -6.38095,0.0107 -10.06911,-6.12313 -10.84375,-12.78125 l -11.5,-98.84375 c -0.96927,-8.33098 -4.41314,-12.01482 -12.375,-11.9375 l -99.750001,0.96875 c -9.22698,0.0896 -9.51537,-4.64095 -10.9375,-15.125 l -5.375,-39.625 c -1.82825,-13.47805 5.46451,-21.86956 19.500001,-21.71875 l 84.34375,0.90625 c 6.89339,0.0741 14.15209,-4.32046 13.40625,-10.25 L 183.07143,93.90625 c -1.35185,-10.74737 -5.5951,-16.54026 -14.90625,-16.4375 L 80.383929,78.4375 c -9.22686,0.10183 -13.51538,-4.64096 -14.9375,-15.125 l -5.375,-39.625 c -1.828252,-13.47805 5.46469,-21.88536 19.5,-21.71875 L 155.91518,2.875 c 8.87452,0.10535 15.87193,-4.30345 14.15625,-13.96875 l -17.90625,-100.875 c -2.17491,-12.25238 4.418,-16.17691 14.90625,-15.71875 0,0 31,1.35417 46.5,2.03125 9.44548,0.4126 12.92905,3.06984 13.90625,11.0625 l 12.90625,105.5625 c 1.14473,9.36294 4.72871,11.67649 12.8125,11.78125 l 72.34375,0.9375 c 8.8744,0.115 15.62826,-4.26335 14.15625,-13.96875 l -15.90625,-104.875 c -1.86601,-12.30322 4.418,-16.20816 14.90625,-15.75 15.5,0.67709 31,1.35417 46.5,2.03125 9.44548,0.4126 13.23166,3.03863 13.90625,11.0625 l 8.875,105.5625 c 0.73485,8.74058 5.22871,14.0306 14.21875,13.9375 L 512.72768,0.75 c 14.94983,-0.15481 13.56757,4.5718 14.84375,14.625 l 6.125,48.25 c 1.58124,12.45628 -9.18391,12.05059 -22.0625,11.59375 -38.71252,-1.37323 -31.03113,-1.58432 -74.25,-1.25 -11.21464,0.0868 -13.84751,5.49488 -12.4375,14.5625 l 15.375,98.875 c 1.65536,10.64547 3.68433,18.72722 15.71875,18.59375 l 84.53125,-0.9375 c 14.94972,-0.1658 13.26351,4.62007 14.875,14.625 l 8.09375,50.25 c 1.99669,12.39647 -9.17797,11.82973 -22.0625,11.59375 l -68.25,-1.25 c -11.05901,-0.20255 -18.99763,4.36472 -16.84375,14 l 21.78125,97.4375 c 2.05812,9.20692 -2.6886,12.29223 -11.78125,12.3125 l -56.0625,0.125 c -6.38094,0.0142 -9.78473,-6.1624 -10.84375,-12.78125 l -15.5,-96.875 c -1.62377,-10.14857 -12.40404,-13.9925 -25.0625,-14.1875 l -71,-1.09375 c -7.97894,-0.12292 -13.84504,5.68782 -12.09375,13.84375 L 297.60268,394.5 c 1.98061,9.22391 -2.68859,12.29729 -11.78125,12.3125 z m 132.25,-199.0625 c 10.88628,0.10251 13.49245,-7.35408 11.625,-18.78125 l -16,-97.90625 c -1.819,-11.13072 -11.77086,-14.5755 -19.62505,-14.71875 l -70.25,-1.28125 c -19.02021,-0.3469 -18.32095,10.07942 -16.25,24.625 l 13.21875,92.84375 c 1.78098,12.509 2.11295,14.32263 14.3125,14.4375 z"
         id="path3000"
         inkscape:connector-curvature="0"
         sodipodi:nodetypes="ssssssssssssssssssssssssssssssssssssssssssssssssssssssssssssssssss" />
      <g
         id="g3782"
         transform="translate(-11.928571,-117.64196)"
         style="fill:none;stroke:#000000;stroke-opacity:1" />
    </g>
  </g>
</svg>
