<?xml version="1.0" encoding="UTF-8" standalone="no"?>
<!-- Created with Inkscape (http://www.inkscape.org/) -->

<svg
   xmlns:dc="http://purl.org/dc/elements/1.1/"
   xmlns:cc="http://creativecommons.org/ns#"
   xmlns:rdf="http://www.w3.org/1999/02/22-rdf-syntax-ns#"
   xmlns:svg="http://www.w3.org/2000/svg"
   xmlns="http://www.w3.org/2000/svg"
   xmlns:sodipodi="http://sodipodi.sourceforge.net/DTD/sodipodi-0.dtd"
   xmlns:inkscape="http://www.inkscape.org/namespaces/inkscape"
   width="1000"
   height="1000"
   id="svg2"
   version="1.1"
   inkscape:version="0.48.4 r9939"
   sodipodi:docname="percent sign.svg">
  <defs
     id="defs4" />
  <sodipodi:namedview
     id="base"
     pagecolor="#ffffff"
     bordercolor="#666666"
     borderopacity="1.0"
     inkscape:pageopacity="0.0"
     inkscape:pageshadow="2"
     inkscape:zoom="0.5"
     inkscape:cx="-198.39615"
     inkscape:cy="616.48705"
     inkscape:document-units="px"
     inkscape:current-layer="g4759"
     showgrid="true"
     gridtolerance="10"
     guidetolerance="10"
     showguides="true"
     inkscape:guide-bbox="true"
     inkscape:window-width="1851"
     inkscape:window-height="1053"
     inkscape:window-x="69"
     inkscape:window-y="27"
     inkscape:window-maximized="1">
    <sodipodi:guide
       orientation="0,1"
       position="500,247"
       id="guide3019" />
    <sodipodi:guide
       orientation="0,1"
       position="500,732"
       id="guide3072" />
    <sodipodi:guide
       orientation="0,1"
       position="500,842"
       id="guide3074" />
    <sodipodi:guide
       orientation="0,1"
       position="500,955"
       id="guide3076" />
    <sodipodi:guide
       orientation="1,0"
       position="100,500"
       id="guide3867" />
    <sodipodi:guide
       orientation="1,0"
       position="180,500"
       id="guide3869" />
    <sodipodi:guide
       orientation="0,1"
       position="500,43"
       id="guide11274" />
  </sodipodi:namedview>
  <metadata
     id="metadata7">
    <rdf:RDF>
      <cc:Work
         rdf:about="">
        <dc:format>image/svg+xml</dc:format>
        <dc:type
           rdf:resource="http://purl.org/dc/dcmitype/StillImage" />
        <dc:title />
      </cc:Work>
    </rdf:RDF>
  </metadata>
  <g
     inkscape:label="Layer 1"
     inkscape:groupmode="layer"
     id="layer1"
     transform="translate(0,-52.362183)">
    <path
       sodipodi:nodetypes="sssssssssss"
       inkscape:connector-curvature="0"
       id="path3004-8"
       d="m 591.14491,192.61621 c -61.15022,91.75966 -129.88157,175.20346 -195.09462,253.91436 -74.84164,90.33242 -178.86894,211.72305 -291.78368,331.16411 -18.3429,19.40309 -7.4413,26.71769 4.5002,28.97863 17.13682,3.24457 31.32541,4.2276 49.16934,3.6143 18.55257,-0.63766 20.44611,-1.93306 33.16906,-20.27095 C 222.52773,744.72664 311.70667,636.87671 348.70267,591.9743 456.06934,461.66226 562.83588,338.5559 651.18132,246.11438 c 7.83037,-8.19344 7.37077,-16.93926 1.94388,-23.02755 -10.15078,-11.38791 -30.7225,-28.06502 -46.25636,-36.66475 -6.27877,-3.47601 -10.54151,-1.58241 -15.72393,6.19413 z"
       style="fill:none;stroke:#000000;stroke-width:1.03176868px;stroke-linecap:butt;stroke-linejoin:miter;stroke-opacity:1" />
    <g
       id="g4759"
       transform="translate(10.915075,1.2619217e-4)"
       style="stroke-width:1.032;stroke-miterlimit:4;stroke-dasharray:none">
      <path
         inkscape:connector-curvature="0"
         id="path4737"
         d="m 331.12485,351.77967 c -11.00989,69.51375 -70.583,117.84394 -133.06026,107.94852 -62.47724,-9.89542 -104.199796,-74.26928 -93.1899,-143.78302 11.00989,-69.51374 70.58301,-117.84392 133.06026,-107.94851 62.47726,9.89544 104.19982,74.26928 93.1899,143.78301 z"
         style="fill:none;stroke:#000000;stroke-width:1.07860875;stroke-miterlimit:4;stroke-opacity:1;stroke-dasharray:none" />
      <path
         id="path4737-6"
         d="m 217.99977,274.20141 c -33.00537,0 -59.76151,26.71115 -59.76151,59.66102 0,32.94986 26.75614,59.66101 59.76151,59.66101 33.00538,0 59.76151,-26.71115 59.76151,-59.66101 0,-32.94987 -26.75613,-59.66102 -59.76151,-59.66102 z"
         style="fill:none;stroke:#000000;stroke-width:1.03199995;stroke-miterlimit:4;stroke-opacity:1;stroke-dasharray:none"
         inkscape:connector-curvature="0"
         sodipodi:nodetypes="sssss" />
      <path
         inkscape:connector-curvature="0"
         id="path4737-4"
         d="M 636.2095,702.77954 C 625.19961,772.29329 565.62649,820.62348 503.14925,810.72806 440.672,800.83264 398.94944,736.45878 409.95934,666.94504 420.96923,597.4313 480.54235,549.10112 543.01961,558.99653 c 62.47724,9.89545 104.19981,74.26928 93.18989,143.78301 z"
         style="fill:none;stroke:#000000;stroke-width:1.07860875;stroke-miterlimit:4;stroke-opacity:1;stroke-dasharray:none" />
      <path
         id="path4737-6-4"
         d="m 523.08442,625.20128 c -33.00537,0 -59.76151,26.71115 -59.76151,59.66102 0,32.94986 26.75614,59.66101 59.76151,59.66101 33.00537,0 59.76151,-26.71115 59.76151,-59.66101 0,-32.94987 -26.75613,-59.66102 -59.76151,-59.66102 z"
         style="fill:none;stroke:#000000;stroke-width:1.03199995;stroke-miterlimit:4;stroke-opacity:1;stroke-dasharray:none"
         inkscape:connector-curvature="0"
         sodipodi:nodetypes="sssss" />
    </g>
  </g>
</svg>
