<?xml version="1.0" encoding="UTF-8" standalone="no"?>
<!-- Created with Inkscape (http://www.inkscape.org/) -->

<svg
   xmlns:dc="http://purl.org/dc/elements/1.1/"
   xmlns:cc="http://creativecommons.org/ns#"
   xmlns:rdf="http://www.w3.org/1999/02/22-rdf-syntax-ns#"
   xmlns:svg="http://www.w3.org/2000/svg"
   xmlns="http://www.w3.org/2000/svg"
   xmlns:sodipodi="http://sodipodi.sourceforge.net/DTD/sodipodi-0.dtd"
   xmlns:inkscape="http://www.inkscape.org/namespaces/inkscape"
   width="1000"
   height="1000"
   id="svg2"
   version="1.1"
   inkscape:version="0.48.4 r9939"
   sodipodi:docname="pilcrow.svg">
  <defs
     id="defs4" />
  <sodipodi:namedview
     id="base"
     pagecolor="#ffffff"
     bordercolor="#666666"
     borderopacity="1.0"
     inkscape:pageopacity="0.0"
     inkscape:pageshadow="2"
     inkscape:zoom="0.49497475"
     inkscape:cx="-195.30641"
     inkscape:cy="602.64266"
     inkscape:document-units="px"
     inkscape:current-layer="g2998"
     showgrid="true"
     gridtolerance="10"
     guidetolerance="10"
     showguides="true"
     inkscape:guide-bbox="true"
     inkscape:window-width="1859"
     inkscape:window-height="1056"
     inkscape:window-x="61"
     inkscape:window-y="24"
     inkscape:window-maximized="1">
    <sodipodi:guide
       orientation="0,1"
       position="500,247"
       id="guide3019" />
    <sodipodi:guide
       orientation="0,1"
       position="500,732"
       id="guide3072" />
    <sodipodi:guide
       orientation="0,1"
       position="500,842"
       id="guide3074" />
    <sodipodi:guide
       orientation="0,1"
       position="500,955"
       id="guide3076" />
    <sodipodi:guide
       orientation="1,0"
       position="100,500"
       id="guide3867" />
    <sodipodi:guide
       orientation="1,0"
       position="180,500"
       id="guide3869" />
  </sodipodi:namedview>
  <metadata
     id="metadata7">
    <rdf:RDF>
      <cc:Work
         rdf:about="">
        <dc:format>image/svg+xml</dc:format>
        <dc:type
           rdf:resource="http://purl.org/dc/dcmitype/StillImage" />
        <dc:title />
      </cc:Work>
    </rdf:RDF>
  </metadata>
  <g
     inkscape:label="Layer 1"
     inkscape:groupmode="layer"
     id="layer1"
     transform="translate(0,-52.362183)">
    <g
       id="g2998"
       transform="matrix(1,0,0,-1,36.928571,645.86218)"
       style="fill:none;stroke:#000000;stroke-opacity:1">
      <g
         id="g3782"
         transform="translate(-11.928571,-117.64196)"
         style="fill:none;stroke:#000000;stroke-opacity:1" />
      <path
         style="fill:none;stroke:#000000;stroke-width:1.03199995;stroke-miterlimit:4;stroke-opacity:1;stroke-dasharray:none"
         d="m 202.72665,436 c 35.9038,-0.20294 76.70484,-3.76938 120.125,-3.8125 38.24457,-0.038 76.48131,0.0943 114.71875,1.375 4.5028,0.15082 6.9975,-3.0992 6.9375,-6.75 -0.053,-3.22604 -0.14584,-8.4375 -0.21875,-12.65625 -0.11487,-6.64558 -18.19265,-25.03594 -18.8125,-44.3125 -2.92191,-90.86727 -2.25016,-212.14102 -2.25,-264.34375 1.9e-4,-63.23299 -1.08127,-174.44843 1.25,-243.59375 0.43423,-12.87937 0.96244,-22.09503 -11.59375,-22.0625 l -48.25,0.125 c -10.13385,0.0263 -14.26124,3.89754 -14.625,18.84375 -1.5823,65.0136 3,208.46478 3,266.0625 0,47.19909 -0.11257,124.65545 -0.90625,191.625 -0.0889,7.50062 -3.46913,11.44477 -10.15625,11.21875 l -42.53125,-1.4375 c -6.16804,-0.20847 -10.0523,-5.13607 -10.125,-10.6875 -1.06008,-80.91539 -1.46888,-166.3028 -1.46875,-209.125 2e-4,-63.23299 -1.08127,-186.41718 1.25,-255.5625 0.43423,-12.87937 0.96244,-22.095 -11.59375,-22.0625 -16.08333,0.0416 -32.16667,0.0833 -48.25,0.125 -10.13385,0.0263 -14.26124,3.89754 -14.625,18.84375 -1.5823,65.0136 3,220.46478 3,278.0625 0,7.82086 -4.8488,16.33773 -12.21875,18.3125 -37.2884,9.9914 -145.281254,-16.84975 -145.281254,148.15625 0,126.06116 57.589684,144.13689 142.625004,143.65625 z"
         id="path3000-3"
         inkscape:connector-curvature="0"
         sodipodi:nodetypes="sssssssssssssssssssssssss" />
    </g>
  </g>
</svg>
