<?xml version="1.0" encoding="UTF-8" standalone="no"?>
<!-- Created with Inkscape (http://www.inkscape.org/) -->

<svg
   xmlns:dc="http://purl.org/dc/elements/1.1/"
   xmlns:cc="http://creativecommons.org/ns#"
   xmlns:rdf="http://www.w3.org/1999/02/22-rdf-syntax-ns#"
   xmlns:svg="http://www.w3.org/2000/svg"
   xmlns="http://www.w3.org/2000/svg"
   xmlns:sodipodi="http://sodipodi.sourceforge.net/DTD/sodipodi-0.dtd"
   xmlns:inkscape="http://www.inkscape.org/namespaces/inkscape"
   width="1000"
   height="1000"
   id="svg2"
   version="1.1"
   inkscape:version="0.48.4 r9939"
   sodipodi:docname="plus sign.svg">
  <defs
     id="defs4" />
  <sodipodi:namedview
     id="base"
     pagecolor="#ffffff"
     bordercolor="#666666"
     borderopacity="1.0"
     inkscape:pageopacity="0.0"
     inkscape:pageshadow="2"
     inkscape:zoom="0.49497475"
     inkscape:cx="-152.62999"
     inkscape:cy="259.12401"
     inkscape:document-units="px"
     inkscape:current-layer="g2998"
     showgrid="true"
     gridtolerance="10"
     guidetolerance="10"
     showguides="true"
     inkscape:guide-bbox="true"
     inkscape:window-width="1851"
     inkscape:window-height="1053"
     inkscape:window-x="69"
     inkscape:window-y="27"
     inkscape:window-maximized="1">
    <sodipodi:guide
       orientation="0,1"
       position="500,247"
       id="guide3019" />
    <sodipodi:guide
       orientation="0,1"
       position="500,732"
       id="guide3072" />
    <sodipodi:guide
       orientation="0,1"
       position="500,842"
       id="guide3074" />
    <sodipodi:guide
       orientation="0,1"
       position="500,955"
       id="guide3076" />
    <sodipodi:guide
       orientation="1,0"
       position="100,500"
       id="guide3867" />
    <sodipodi:guide
       orientation="1,0"
       position="180,500"
       id="guide3869" />
  </sodipodi:namedview>
  <metadata
     id="metadata7">
    <rdf:RDF>
      <cc:Work
         rdf:about="">
        <dc:format>image/svg+xml</dc:format>
        <dc:type
           rdf:resource="http://purl.org/dc/dcmitype/StillImage" />
        <dc:title />
      </cc:Work>
    </rdf:RDF>
  </metadata>
  <g
     inkscape:label="Layer 1"
     inkscape:groupmode="layer"
     id="layer1"
     transform="translate(0,-52.362183)">
    <g
       id="g2998"
       transform="matrix(1,0,0,-1,36.928571,645.86218)"
       style="fill:none;stroke:#000000;stroke-opacity:1">
      <path
         id="path3000"
         d="m 263.76994,152.81097 c -11.06086,-0.005 -16.83999,-2.14601 -16.83999,-12.0191 0,-24.31097 9.78617,-77.268679 9.78617,-103.434396 0,-9.434168 -2.69523,-12.298745 -11.78789,-12.314754 L 188.85687,24.944 c -6.38095,-0.01123 -11.22898,6.080968 -10.82776,12.771994 1.53563,25.609308 5.02662,71.193616 4.47722,102.857416 -0.1455,8.38592 -4.39339,11.9223 -12.35563,11.9223 -24.45476,0 -69.75477,-2.08449 -101.765836,-2.94702 -9.22407,-0.24854 -12.67638,4.68954 -10.93264,15.12491 2.2064,13.20413 4.41279,26.40826 6.61919,39.61239 2.2417,13.41548 5.49304,22.36674 19.51522,21.73731 22.164936,-0.99494 56.848766,-2.92647 84.340286,-2.92647 8.87515,0 14.30047,4.15134 14.14481,13.9665 -0.52301,32.97903 -8.49336,78.12798 -9.90227,102.87308 -0.70737,12.42379 4.41355,16.1812 14.90198,15.72718 l 46.49999,-2.0129 c 9.44564,-0.40889 14.62163,-3.05887 13.90943,-11.07949 -2.94987,-33.22062 -4.42339,-76.32022 -5.10559,-105.54829 -0.20467,-8.76903 5.20643,-14.02455 14.19654,-13.9384 17.7878,0.17045 63.3763,3.64862 92.54149,2.9388 14.94621,-0.36376 16.49076,-4.6277 14.85554,-14.62879 l -7.88799,-48.24339 c -2.02609,-12.3917 -9.17825,-12.05928 -22.05684,-11.60244 -38.71252,1.37323 -27.03391,1.2824 -70.25407,1.26228 z"
         inkscape:connector-curvature="0"
         style="fill:none;stroke:#000000;stroke-width:1.03199995;stroke-miterlimit:4;stroke-opacity:1;stroke-dasharray:none"
         sodipodi:nodetypes="sssssssssssssssssssssssss" />
      <g
         id="g3782"
         transform="translate(-11.928571,-117.64196)"
         style="fill:none;stroke:#000000;stroke-opacity:1" />
    </g>
  </g>
</svg>
