<?xml version="1.0" encoding="UTF-8" standalone="no"?>
<!-- Created with Inkscape (http://www.inkscape.org/) -->

<svg
   xmlns:dc="http://purl.org/dc/elements/1.1/"
   xmlns:cc="http://creativecommons.org/ns#"
   xmlns:rdf="http://www.w3.org/1999/02/22-rdf-syntax-ns#"
   xmlns:svg="http://www.w3.org/2000/svg"
   xmlns="http://www.w3.org/2000/svg"
   xmlns:sodipodi="http://sodipodi.sourceforge.net/DTD/sodipodi-0.dtd"
   xmlns:inkscape="http://www.inkscape.org/namespaces/inkscape"
   width="1000"
   height="1000"
   id="svg2"
   version="1.1"
   inkscape:version="0.48.5 r10040"
   sodipodi:docname="plus sign.svg">
  <defs
     id="defs4" />
  <sodipodi:namedview
     id="base"
     pagecolor="#ffffff"
     bordercolor="#666666"
     borderopacity="1.0"
     inkscape:pageopacity="0.0"
     inkscape:pageshadow="2"
     inkscape:zoom="0.98994949"
     inkscape:cx="95.098765"
     inkscape:cy="602.18052"
     inkscape:document-units="px"
     inkscape:current-layer="g2998"
     showgrid="true"
     gridtolerance="10"
     guidetolerance="10"
     showguides="false"
     inkscape:guide-bbox="true"
     inkscape:window-width="1680"
     inkscape:window-height="983"
     inkscape:window-x="0"
     inkscape:window-y="27"
     inkscape:window-maximized="1">
    <sodipodi:guide
       orientation="0,1"
       position="500,247"
       id="guide3019" />
    <sodipodi:guide
       orientation="0,1"
       position="500,732"
       id="guide3072" />
    <sodipodi:guide
       orientation="0,1"
       position="500,842"
       id="guide3074" />
    <sodipodi:guide
       orientation="0,1"
       position="500,955"
       id="guide3076" />
    <sodipodi:guide
       orientation="1,0"
       position="100,500"
       id="guide3867" />
    <sodipodi:guide
       orientation="1,0"
       position="180,500"
       id="guide3869" />
  </sodipodi:namedview>
  <metadata
     id="metadata7">
    <rdf:RDF>
      <cc:Work
         rdf:about="">
        <dc:format>image/svg+xml</dc:format>
        <dc:type
           rdf:resource="http://purl.org/dc/dcmitype/StillImage" />
        <dc:title></dc:title>
      </cc:Work>
    </rdf:RDF>
  </metadata>
  <g
     inkscape:label="Layer 1"
     inkscape:groupmode="layer"
     id="layer1"
     transform="translate(0,-52.362183)">
    <g
       id="g2998"
       transform="matrix(1,0,0,-1,36.928571,645.86218)"
       style="fill:none;stroke:#000000;stroke-opacity:1">
      <path
         id="path3000"
         d="m 337.76994,152.81077 c -11.06086,-0.005 -16.82065,-2.14603 -16.83999,-12.0191 -0.11331,-57.846793 5.74556,-110.415887 9.78617,-164.43454 0.70371,-9.407886 -2.69523,-12.298745 -11.78789,-12.314754 l -56.07136,-0.09872 c -6.38095,-0.01123 -11.22898,6.080968 -10.82776,12.771994 2.64014,44.028843 5.5596,101.476324 4.47722,163.85756 -0.14551,8.38592 -4.39339,11.9223 -12.35563,11.9223 -53.74047,0 -108.93705,-1.335 -168.765817,-2.94706 -9.224067,-0.24855 -12.676375,4.68954 -10.932637,15.12491 2.206395,13.20413 4.412789,26.40826 6.619183,39.61239 2.241709,13.41548 5.493047,22.36674 19.515229,21.73731 46.401802,-2.08288 93.162332,-2.7355 151.340262,-2.92643 8.8751,-0.0291 14.30047,4.15134 14.14481,13.9665 -0.99865,62.97149 -7.52045,118.11184 -9.90227,159.9444 -0.70737,12.42379 4.41355,16.18121 14.90198,15.72718 l 46.49999,-2.0129 c 9.44564,-0.40888 14.62163,-3.05887 13.90943,-11.07949 -4.67132,-52.60718 -3.84059,-108.42181 -5.10559,-162.61961 -0.20467,-8.76903 5.20643,-14.02454 14.19654,-13.9384 56.35569,0.54002 100.00126,4.41217 160.54167,2.93874 14.94621,-0.36376 16.49076,-4.6277 14.85554,-14.62879 l -7.88799,-48.24339 c -2.02609,-12.3917 -9.17747,-12.03667 -22.05684,-11.60244 -51.50072,1.85697 -95.03409,1.28246 -138.25425,1.26234 z"
         inkscape:connector-curvature="0"
         style="fill:none;stroke:#000000;stroke-width:1.03199995;stroke-miterlimit:4;stroke-opacity:1;stroke-dasharray:none"
         sodipodi:nodetypes="ssssssssssssssssssssssscs" />
      <g
         id="g3782"
         transform="translate(-11.928571,-117.64196)"
         style="fill:none;stroke:#000000;stroke-opacity:1" />
    </g>
  </g>
</svg>
