<?xml version="1.0" encoding="UTF-8" standalone="no"?>
<!-- Created with Inkscape (http://www.inkscape.org/) -->

<svg
   xmlns:dc="http://purl.org/dc/elements/1.1/"
   xmlns:cc="http://creativecommons.org/ns#"
   xmlns:rdf="http://www.w3.org/1999/02/22-rdf-syntax-ns#"
   xmlns:svg="http://www.w3.org/2000/svg"
   xmlns="http://www.w3.org/2000/svg"
   xmlns:sodipodi="http://sodipodi.sourceforge.net/DTD/sodipodi-0.dtd"
   xmlns:inkscape="http://www.inkscape.org/namespaces/inkscape"
   width="1000"
   height="1000"
   id="svg2"
   version="1.1"
   inkscape:version="0.48.5 r10040"
   sodipodi:docname="question mark.svg">
  <defs
     id="defs4" />
  <sodipodi:namedview
     id="base"
     pagecolor="#ffffff"
     bordercolor="#666666"
     borderopacity="1.0"
     inkscape:pageopacity="0.0"
     inkscape:pageshadow="2"
     inkscape:zoom="0.98994949"
     inkscape:cx="64.339663"
     inkscape:cy="591.2571"
     inkscape:document-units="px"
     inkscape:current-layer="g3187"
     showgrid="true"
     gridtolerance="10"
     guidetolerance="10"
     showguides="true"
     inkscape:guide-bbox="true"
     inkscape:window-width="1680"
     inkscape:window-height="983"
     inkscape:window-x="0"
     inkscape:window-y="27"
     inkscape:window-maximized="1">
    <sodipodi:guide
       orientation="0,1"
       position="500,247"
       id="guide3019" />
    <sodipodi:guide
       orientation="0,1"
       position="500,732"
       id="guide3072" />
    <sodipodi:guide
       orientation="0,1"
       position="500,842"
       id="guide3074" />
    <sodipodi:guide
       orientation="0,1"
       position="500,955"
       id="guide3076" />
    <sodipodi:guide
       orientation="1,0"
       position="100,500"
       id="guide3867" />
    <sodipodi:guide
       orientation="1,0"
       position="180,500"
       id="guide3869" />
  </sodipodi:namedview>
  <metadata
     id="metadata7">
    <rdf:RDF>
      <cc:Work
         rdf:about="">
        <dc:format>image/svg+xml</dc:format>
        <dc:type
           rdf:resource="http://purl.org/dc/dcmitype/StillImage" />
        <dc:title></dc:title>
      </cc:Work>
    </rdf:RDF>
  </metadata>
  <g
     inkscape:label="Layer 1"
     inkscape:groupmode="layer"
     id="layer1"
     transform="translate(0,-52.362183)">
    <g
       id="g3232"
       transform="matrix(-1,0,0,-1,277.92313,800.26609)"
       style="fill:none;stroke:#000000;stroke-opacity:1;stroke-width:1.03200000000000003;stroke-miterlimit:4;stroke-dasharray:none;fill-opacity:1">
      <path
         id="path3234"
         d="M 129,122.35714 C 157.97689,121.19959 188,103.21429 188,57 188,2 155.01136,-15 125.78571,-15 87.907427,-15 69,8.4949239 69,58.515229 c 0,41.04061 22.80726,65.327661 60,63.841911 z"
         inkscape:connector-curvature="0"
         style="fill:none;stroke:#000000;stroke-width:1.03199995;stroke-miterlimit:4;stroke-opacity:1;stroke-dasharray:none"
         sodipodi:nodetypes="sssss" />
    </g>
    <g
       id="g3187"
       transform="matrix(1,0,0,-1,-23.60647,803.40774)">
      <path
         id="path3189"
         d="m 148,251 -21,91 c -3.79749,16.45578 10.7653,28.41585 41,42 139.25287,62.56493 157,88.54569 157,140 0,51.45431 -9.87414,104 -124,104 -18.19254,0 -61.2172,-3.98977 -86.14927,-15.04746 -9.24392,-4.0998 -15.4438,-2.75192 -19.77422,8.44871 C 88.34978,638.79994 84.63135,653.90556 84,672 c -0.48819,13.99149 5.376575,17.62235 26,24 28.06599,8.67921 61.13836,13 93,13 117.42247,0 182,-7.64321 182,-169 0,-107.10697 -49.08532,-137.31744 -132,-184 -44.37771,-24.98551 -57,-53.87478 -57,-101 0,-16.57087 -1.9572,-18.19687 -10,-22 -5.49453,-2.59815 -17.76698,-4.59737 -25.78689,-3.82126 C 151.97876,229.97561 151.56458,235.55349 148,251 z"
         inkscape:connector-curvature="0"
         style="fill:none;stroke:#000000;stroke-width:1.03199995;stroke-miterlimit:4;stroke-opacity:1;stroke-dasharray:none"
         sodipodi:nodetypes="ssszssssssssssss" />
    </g>
  </g>
</svg>
