<?xml version="1.0" encoding="UTF-8" standalone="no"?>
<!-- Created with Inkscape (http://www.inkscape.org/) -->

<svg
   xmlns:dc="http://purl.org/dc/elements/1.1/"
   xmlns:cc="http://creativecommons.org/ns#"
   xmlns:rdf="http://www.w3.org/1999/02/22-rdf-syntax-ns#"
   xmlns:svg="http://www.w3.org/2000/svg"
   xmlns="http://www.w3.org/2000/svg"
   xmlns:sodipodi="http://sodipodi.sourceforge.net/DTD/sodipodi-0.dtd"
   xmlns:inkscape="http://www.inkscape.org/namespaces/inkscape"
   width="1000"
   height="1000"
   id="svg2"
   version="1.1"
   inkscape:version="0.48.4 r9939"
   sodipodi:docname="single right-pointing angle quotation mark.svg">
  <defs
     id="defs4" />
  <sodipodi:namedview
     id="base"
     pagecolor="#ffffff"
     bordercolor="#666666"
     borderopacity="1.0"
     inkscape:pageopacity="0.0"
     inkscape:pageshadow="2"
     inkscape:zoom="0.5"
     inkscape:cx="-149.64142"
     inkscape:cy="215.60548"
     inkscape:document-units="px"
     inkscape:current-layer="layer1"
     showgrid="true"
     gridtolerance="10"
     guidetolerance="10"
     showguides="true"
     inkscape:guide-bbox="true"
     inkscape:window-width="1859"
     inkscape:window-height="1056"
     inkscape:window-x="61"
     inkscape:window-y="24"
     inkscape:window-maximized="1">
    <sodipodi:guide
       orientation="0,1"
       position="500,247"
       id="guide3019" />
    <sodipodi:guide
       orientation="0,1"
       position="500,732"
       id="guide3072" />
    <sodipodi:guide
       orientation="0,1"
       position="500,842"
       id="guide3074" />
    <sodipodi:guide
       orientation="0,1"
       position="500,955"
       id="guide3076" />
    <sodipodi:guide
       orientation="1,0"
       position="100,500"
       id="guide3867" />
    <sodipodi:guide
       orientation="1,0"
       position="180,500"
       id="guide3869" />
    <sodipodi:guide
       orientation="0,1"
       position="500,43"
       id="guide11274" />
  </sodipodi:namedview>
  <metadata
     id="metadata7">
    <rdf:RDF>
      <cc:Work
         rdf:about="">
        <dc:format>image/svg+xml</dc:format>
        <dc:type
           rdf:resource="http://purl.org/dc/dcmitype/StillImage" />
        <dc:title></dc:title>
      </cc:Work>
    </rdf:RDF>
  </metadata>
  <g
     inkscape:label="Layer 1"
     inkscape:groupmode="layer"
     id="layer1"
     transform="translate(0,-52.362183)">
    <path
       sodipodi:nodetypes="cssssssssssssssssssc"
       inkscape:connector-curvature="0"
       id="path3004-8"
       d="m 289.24132,448.8906 c -17.5811,-15.0883 -29.10019,-25.02916 -47.59513,-39.62024 -32.32388,-25.50108 -101.771,-69.41592 -127.15822,-86.57495 -9.38983,-6.34651 -10.79537,-14.99086 -6.78303,-22.09156 7.50491,-13.28151 23.99432,-33.67784 37.42892,-45.64023 4.57366,-4.07245 11.46028,-2.34354 16.67984,2.71873 26.07264,25.28695 57.9608,56.24147 81.01469,74.67933 49.63546,39.69705 98.41273,73.75397 160.79028,114.52925 8.72435,5.70297 11.21007,14.04738 10.04559,21.7425 l -4.51556,29.83984 c -1.18905,7.85752 -5.93956,16.36176 -10.88391,20.22339 -55.64324,43.45837 -89.6064,77.51724 -138.31288,121.33448 -19.42997,17.47956 -78.94948,74.20902 -102.09779,99.25992 -4.93473,5.34031 -11.71642,7.44347 -16.50606,3.6274 -14.06911,-11.20927 -31.64994,-30.6727 -39.87039,-43.52365 -4.3949,-6.87047 -3.78671,-16.02555 5.56398,-22.42963 40.72999,-27.89505 112.6343,-80.37683 144.77289,-108.71845 17.58073,-15.50368 34.48063,-31.27953 43.6083,-41.93388 24.70566,-28.83792 26.28182,-49.56184 -6.18156,-77.42227 z"
       style="fill:none;stroke:#000000;stroke-width:1.03176868px;stroke-linecap:butt;stroke-linejoin:miter;stroke-opacity:1" />
    <path
       sodipodi:nodetypes="cssssssssssssssssssc"
       inkscape:connector-curvature="0"
       id="path3004-8-7"
       d="m 530.85489,446.47093 c -17.5811,-15.0883 -29.10019,-25.02916 -47.59513,-39.62024 -32.32388,-25.50108 -101.771,-69.41591 -127.15822,-86.57494 -9.38983,-6.34651 -10.79537,-14.99086 -6.78303,-22.09156 7.50491,-13.28151 23.99432,-33.67784 37.42892,-45.64023 4.57366,-4.07245 11.46028,-2.34354 16.67984,2.71873 26.07264,25.28695 57.9608,56.24147 81.01469,74.67933 49.63546,39.69704 98.41273,73.75396 160.79028,114.52924 8.72435,5.70297 11.21007,14.04738 10.04559,21.7425 l -4.51556,29.83984 c -1.18905,7.85752 -5.93956,16.36176 -10.88391,20.22339 -55.64324,43.45837 -89.6064,77.51724 -138.31288,121.33448 -19.42997,17.47956 -78.94948,74.20902 -102.09779,99.25992 -4.93473,5.34031 -11.71642,7.44347 -16.50606,3.6274 -14.06911,-11.20927 -31.64994,-30.6727 -39.87039,-43.52365 -4.3949,-6.87047 -3.78671,-16.02555 5.56398,-22.42963 40.72999,-27.89505 112.6343,-80.37683 144.77289,-108.71845 17.58073,-15.50368 34.48063,-31.27953 43.6083,-41.93388 24.70566,-28.83792 26.28182,-49.56184 -6.18156,-77.42227 z"
       style="fill:none;stroke:#000000;stroke-width:1.03176868px;stroke-linecap:butt;stroke-linejoin:miter;stroke-opacity:1" />
  </g>
</svg>
