<?xml version="1.0" encoding="UTF-8" standalone="no"?>
<!-- Created with Inkscape (http://www.inkscape.org/) -->

<svg
   xmlns:dc="http://purl.org/dc/elements/1.1/"
   xmlns:cc="http://creativecommons.org/ns#"
   xmlns:rdf="http://www.w3.org/1999/02/22-rdf-syntax-ns#"
   xmlns:svg="http://www.w3.org/2000/svg"
   xmlns="http://www.w3.org/2000/svg"
   xmlns:sodipodi="http://sodipodi.sourceforge.net/DTD/sodipodi-0.dtd"
   xmlns:inkscape="http://www.inkscape.org/namespaces/inkscape"
   width="1000"
   height="1000"
   id="svg2"
   version="1.1"
   inkscape:version="0.48.4 r9939"
   sodipodi:docname="semicolon.svg">
  <defs
     id="defs4" />
  <sodipodi:namedview
     id="base"
     pagecolor="#ffffff"
     bordercolor="#666666"
     borderopacity="1.0"
     inkscape:pageopacity="0.0"
     inkscape:pageshadow="2"
     inkscape:zoom="0.7"
     inkscape:cx="143.81425"
     inkscape:cy="534.88203"
     inkscape:document-units="px"
     inkscape:current-layer="layer1"
     showgrid="true"
     gridtolerance="10"
     guidetolerance="10"
     showguides="true"
     inkscape:guide-bbox="true"
     inkscape:window-width="3078"
     inkscape:window-height="1752"
     inkscape:window-x="122"
     inkscape:window-y="48"
     inkscape:window-maximized="1">
    <sodipodi:guide
       orientation="0,1"
       position="500,247"
       id="guide3019" />
    <sodipodi:guide
       orientation="0,1"
       position="500,732"
       id="guide3072" />
    <sodipodi:guide
       orientation="0,1"
       position="500,842"
       id="guide3074" />
    <sodipodi:guide
       orientation="0,1"
       position="500,955"
       id="guide3076" />
    <sodipodi:guide
       orientation="1,0"
       position="100,500"
       id="guide3867" />
    <sodipodi:guide
       orientation="1,0"
       position="180,500"
       id="guide3869" />
  </sodipodi:namedview>
  <metadata
     id="metadata7">
    <rdf:RDF>
      <cc:Work
         rdf:about="">
        <dc:format>image/svg+xml</dc:format>
        <dc:type
           rdf:resource="http://purl.org/dc/dcmitype/StillImage" />
        <dc:title />
      </cc:Work>
    </rdf:RDF>
  </metadata>
  <g
     inkscape:label="Layer 1"
     inkscape:groupmode="layer"
     id="layer1"
     transform="translate(0,-52.362183)">
    <g
       id="g5589"
       transform="matrix(1,0,0,-1,164.84915,801.88975)"
       style="stroke-width:1.032;stroke-miterlimit:4;stroke-dasharray:none" />
    <path
       id="path3234-0"
       d="m 140.9112,514.22375 c 28.97689,-1.15755 59,-19.14285 59,-65.35715 0,-55 -32.98864,-72 -62.21429,-72 -37.878279,0 -56.785709,23.49493 -56.785709,73.51523 0,41.04061 22.807259,65.32767 59.999999,63.84192 z"
       inkscape:connector-curvature="0"
       style="fill:none;stroke:#000000;stroke-opacity:1;fill-opacity:1;stroke-width:1.032;stroke-miterlimit:4;stroke-dasharray:none"
       sodipodi:nodetypes="sssss" />
    <path
       id="path3234"
       d="m 85.87974,776.35273 c -11.51157,-26.45626 -3.11675,-68.26743 29.54557,-82.47936 23.21125,-10.09959 55.7008,-5.77677 74.18525,36.7048 20.74736,49.51416 1.56304,107.40536 -17.64593,146.33726 -9.20229,18.6509 -30.57933,53.3323 -59.26979,84.802 -5.05279,5.5423 -11.57243,4.931 -18.53478,1.5376 -6.32985,-3.0852 -13.6482,-10.3031 -16.60396,-16.1014 -3.24871,-6.373 -2.51891,-10.8713 1.48802,-15.219 24.28694,-26.3528 39.89003,-57.1407 42.09416,-81.4944 1.56297,-17.2694 -4.21587,-32.7069 -12.86277,-43.8492 -5.2103,-6.7139 -18.91943,-22.2488 -22.39577,-30.2383 z"
       inkscape:connector-curvature="0"
       style="fill:none;stroke:#000000;stroke-width:1.03199995;stroke-miterlimit:4;stroke-opacity:1;stroke-dasharray:none"
       sodipodi:nodetypes="sssssssssss" />
  </g>
</svg>
