<?xml version="1.0" encoding="UTF-8" standalone="no"?>
<!-- Created with Inkscape (http://www.inkscape.org/) -->

<svg
   xmlns:dc="http://purl.org/dc/elements/1.1/"
   xmlns:cc="http://creativecommons.org/ns#"
   xmlns:rdf="http://www.w3.org/1999/02/22-rdf-syntax-ns#"
   xmlns:svg="http://www.w3.org/2000/svg"
   xmlns="http://www.w3.org/2000/svg"
   xmlns:sodipodi="http://sodipodi.sourceforge.net/DTD/sodipodi-0.dtd"
   xmlns:inkscape="http://www.inkscape.org/namespaces/inkscape"
   width="1000"
   height="1000"
   id="svg2"
   version="1.1"
   inkscape:version="0.48.4 r9939"
   sodipodi:docname="hebrew letter final pe.svg">
  <defs
     id="defs4" />
  <sodipodi:namedview
     id="base"
     pagecolor="#ffffff"
     bordercolor="#666666"
     borderopacity="1.0"
     inkscape:pageopacity="0.0"
     inkscape:pageshadow="2"
     inkscape:zoom="0.5"
     inkscape:cx="445.44255"
     inkscape:cy="466.97813"
     inkscape:document-units="px"
     inkscape:current-layer="layer1"
     showgrid="true"
     gridtolerance="10"
     guidetolerance="10"
     showguides="true"
     inkscape:guide-bbox="true"
     inkscape:window-width="1851"
     inkscape:window-height="1053"
     inkscape:window-x="69"
     inkscape:window-y="27"
     inkscape:window-maximized="1">
    <sodipodi:guide
       orientation="0,1"
       position="500,247"
       id="guide3019" />
    <sodipodi:guide
       orientation="0,1"
       position="500,732"
       id="guide3072" />
    <sodipodi:guide
       orientation="0,1"
       position="500,842"
       id="guide3074" />
    <sodipodi:guide
       orientation="0,1"
       position="500,955"
       id="guide3076" />
    <sodipodi:guide
       orientation="1,0"
       position="100,500"
       id="guide3867" />
    <sodipodi:guide
       orientation="1,0"
       position="180,500"
       id="guide3869" />
  </sodipodi:namedview>
  <metadata
     id="metadata7">
    <rdf:RDF>
      <cc:Work
         rdf:about="">
        <dc:format>image/svg+xml</dc:format>
        <dc:type
           rdf:resource="http://purl.org/dc/dcmitype/StillImage" />
        <dc:title />
      </cc:Work>
    </rdf:RDF>
  </metadata>
  <g
     inkscape:label="Layer 1"
     inkscape:groupmode="layer"
     id="layer1"
     transform="translate(0,-52.362183)">
    <path
       style="fill:none;stroke:#000000;stroke-width:1.03771424px;stroke-linecap:butt;stroke-linejoin:miter;stroke-opacity:1"
       d="m 467.75015,1006.2292 c -0.2227,4.0944 2.0428,14.6908 7.9862,14.2813 5.9542,-0.4102 58.0277,-21.23929 65.75489,-35.4374 1.2317,-2.26316 2.6396,-4.8786 3.3791,-13.1851 0.4024,-4.5192 -7.06504,-90.49574 -7.17224,-117.76973 l -1.71831,-437.2113 c -0.42285,-107.59065 33.23303,-121.68175 -75.94556,-158.2581 -92.25504,-30.90673 -185.40625,-43.26661 -294.00455,-43.96402 -15.72655,-0.10099 -32.84926,-18.3612 -39.04959,-18.46541 l -12.6496,-0.2126 c -3.64977,-0.0613 -6.26285,2.45936 -6.7322,6.94488 -3.35054,32.02055 -8.127803,63.86868 -12.544833,95.74998 -1.30735,9.43622 6.307633,12.85348 14.657173,14.33027 19.1626,3.3893 18.53134,22.29751 16.18147,29.39879 -13.36288,40.38246 -22.51153,71.4051 -35.545023,131.71779 -3.09709,14.33185 10.419313,25.7312 19.649773,30.96252 46.25005,26.21202 92.28556,44.31165 150.46151,58.88333 10.86744,2.72202 21.08203,-2.65971 25.66263,-17.93601 5.30423,-17.6896 10.60846,-35.37919 15.9127,-53.06879 2.83885,-9.46755 -1.31384,-20.97646 -10.73797,-24.57799 -25.97832,-9.92789 -77.93497,-29.78365 -77.93497,-29.78365 -52.91908,-20.22357 -45.77442,-56.70649 -30.54838,-103.09739 7.18332,-21.88625 7.32686,-21.8974 31.39856,-21.26072 46.61126,1.23284 84.70033,6.58447 129.0476,17.19372 88.83059,21.25105 130.09289,43.4642 130.0927,111.2025 l -10e-4,432.9816 c -1.6e-4,56.37474 -2.67424,76.79372 -5.59984,130.58153 z"
       id="path3004-1-7"
       inkscape:connector-curvature="0"
       sodipodi:nodetypes="sssssssssssssssssssssssssss" />
  </g>
</svg>
