<?xml version="1.0" encoding="UTF-8" standalone="no"?>
<!-- Created with Inkscape (http://www.inkscape.org/) -->

<svg
   xmlns:dc="http://purl.org/dc/elements/1.1/"
   xmlns:cc="http://creativecommons.org/ns#"
   xmlns:rdf="http://www.w3.org/1999/02/22-rdf-syntax-ns#"
   xmlns:svg="http://www.w3.org/2000/svg"
   xmlns="http://www.w3.org/2000/svg"
   xmlns:sodipodi="http://sodipodi.sourceforge.net/DTD/sodipodi-0.dtd"
   xmlns:inkscape="http://www.inkscape.org/namespaces/inkscape"
   width="1000"
   height="1000"
   id="svg2"
   version="1.1"
   inkscape:version="0.48.4 r9939"
   sodipodi:docname="40-memsofit.svg">
  <defs
     id="defs4">
    <inkscape:path-effect
       effect="spiro"
       id="path-effect6019"
       is_visible="true" />
  </defs>
  <sodipodi:namedview
     id="base"
     pagecolor="#ffffff"
     bordercolor="#666666"
     borderopacity="1.0"
     inkscape:pageopacity="0.0"
     inkscape:pageshadow="2"
     inkscape:zoom="0.7071068"
     inkscape:cx="79.974193"
     inkscape:cy="460.70776"
     inkscape:document-units="px"
     inkscape:current-layer="layer1"
     showgrid="true"
     gridtolerance="10"
     guidetolerance="1"
     showguides="true"
     inkscape:guide-bbox="true"
     inkscape:window-width="1680"
     inkscape:window-height="994"
     inkscape:window-x="-4"
     inkscape:window-y="-4"
     inkscape:window-maximized="1">
    <sodipodi:guide
       orientation="0,1"
       position="500,247"
       id="guide3019" />
    <sodipodi:guide
       orientation="1,0"
       position="100,500"
       id="guide2991" />
    <sodipodi:guide
       orientation="1,0"
       position="180,500"
       id="guide2993" />
    <sodipodi:guide
       orientation="0,1"
       position="1270,728.33333"
       id="guide2994" />
    <sodipodi:guide
       orientation="0,1"
       position="500,950"
       id="guide2996" />
    <sodipodi:guide
       orientation="0,1"
       position="500,841"
       id="guide4483" />
  </sodipodi:namedview>
  <metadata
     id="metadata7">
    <rdf:RDF>
      <cc:Work
         rdf:about="">
        <dc:format>image/svg+xml</dc:format>
        <dc:type
           rdf:resource="http://purl.org/dc/dcmitype/StillImage" />
        <dc:title />
      </cc:Work>
    </rdf:RDF>
  </metadata>
  <g
     inkscape:label="Layer 1"
     inkscape:groupmode="layer"
     id="layer1"
     transform="translate(0,-52.362183)">
    <path
       style="fill:none;stroke:#000000;stroke-width:1.03771424px;stroke-linecap:butt;stroke-linejoin:miter;stroke-opacity:1"
       d="m 184.34284,452.1684 -7.39343,164.02875 c -3.91532,86.86445 9.64939,89.20138 56.45029,90.63528 88.37544,2.70767 211.35367,-0.47879 301.28851,-5.09938 35.5757,-1.82778 31.322,-92.28299 31.3438,-114 l 0.1515,-151.0395 c 0.032,-31.71072 -7.8319,-108.65099 -80.23294,-114.95109 -111.2495,-9.6806 -175.129,-13.14984 -256.12807,-4.30291 -33.46541,3.65518 -41.0568,36.60435 -45.47966,134.72885 z m -57.1248,-247.81764 c -0.0838,-4.50449 3.10976,-7.0739 6.7587,-6.9428 l 16.47987,0.5921 c 6.20413,0.22291 26.8477,18.042 40.1975,18.0703 64.4059,0.1365 180.39876,1.3085 228.39036,2.447 244.04524,5.6752 206.77714,30.84964 209.23724,205.14499 l 2.4997,177.1019 c 2.3659,167.62246 4.2866,202.9765 -56.5679,201.5038 -57.88754,-1.401 -80.55074,-2.4215 -140.93204,-1.389 -69.8473,1.1943 -205.40905,3.88815 -264.16517,6.7789 -63.28565,3.1136 -65.7346,22.87157 -61.5045,-144.3891 1.15309,-45.59394 14.38623,-264.80633 15.87682,-311.4546 0.61973,-19.39457 4.80734,-89.50647 3.72942,-147.46349 z"
       id="path3004-1-1-0-1"
       inkscape:connector-curvature="0"
       sodipodi:nodetypes="ssssssssssssscssssssss" />
  </g>
</svg>
