<?xml version="1.0" encoding="UTF-8" standalone="no"?>
<!-- Created with Inkscape (http://www.inkscape.org/) -->

<svg
   xmlns:dc="http://purl.org/dc/elements/1.1/"
   xmlns:cc="http://creativecommons.org/ns#"
   xmlns:rdf="http://www.w3.org/1999/02/22-rdf-syntax-ns#"
   xmlns:svg="http://www.w3.org/2000/svg"
   xmlns="http://www.w3.org/2000/svg"
   xmlns:sodipodi="http://sodipodi.sourceforge.net/DTD/sodipodi-0.dtd"
   xmlns:inkscape="http://www.inkscape.org/namespaces/inkscape"
   width="1000"
   height="1000"
   id="svg2"
   version="1.1"
   inkscape:version="0.48.4 r9939"
   sodipodi:docname="hebrew letter final kaf.svg">
  <defs
     id="defs4" />
  <sodipodi:namedview
     id="base"
     pagecolor="#ffffff"
     bordercolor="#666666"
     borderopacity="1.0"
     inkscape:pageopacity="0.0"
     inkscape:pageshadow="2"
     inkscape:zoom="0.70000001"
     inkscape:cx="992.46687"
     inkscape:cy="345.61158"
     inkscape:document-units="px"
     inkscape:current-layer="layer1"
     showgrid="true"
     gridtolerance="10"
     guidetolerance="10"
     showguides="true"
     inkscape:guide-bbox="true"
     inkscape:window-width="1851"
     inkscape:window-height="1053"
     inkscape:window-x="69"
     inkscape:window-y="27"
     inkscape:window-maximized="1">
    <sodipodi:guide
       orientation="0,1"
       position="500,247"
       id="guide3019" />
    <sodipodi:guide
       orientation="0,1"
       position="500,732"
       id="guide3072" />
    <sodipodi:guide
       orientation="0,1"
       position="500,842"
       id="guide3074" />
    <sodipodi:guide
       orientation="0,1"
       position="500,955"
       id="guide3076" />
    <sodipodi:guide
       orientation="1,0"
       position="100,500"
       id="guide3867" />
    <sodipodi:guide
       orientation="1,0"
       position="180,500"
       id="guide3869" />
  </sodipodi:namedview>
  <metadata
     id="metadata7">
    <rdf:RDF>
      <cc:Work
         rdf:about="">
        <dc:format>image/svg+xml</dc:format>
        <dc:type
           rdf:resource="http://purl.org/dc/dcmitype/StillImage" />
        <dc:title />
      </cc:Work>
    </rdf:RDF>
  </metadata>
  <g
     inkscape:label="Layer 1"
     inkscape:groupmode="layer"
     id="layer1"
     transform="translate(0,-52.362183)">
    <path
       style="fill:none;stroke:#000000;stroke-width:1.03771424px;stroke-linecap:butt;stroke-linejoin:miter;stroke-opacity:1"
       d="m 529.80498,424.63269 c 0.074,-44.3007 3.3426,-74.07565 31,-88.92192 l 26.5211,-14.23633 c 6.3434,-3.40508 13.65534,-6.38547 13.6039,-17.27925 l -0.3438,-72.8125 c -0.04,-8.47211 -4.3827,-15.6611 -17.5625,-15.1875 -55.8203,2.0056 -166.9987,5.75426 -250.7187,4.32276 -69.8474,-1.1942 -159.7823,-7.82246 -218.55821,-10.27896 -13.3382,-0.5574 -33.990198,-18.35251 -40.197498,-18.45458 l -12.6369,-0.2078 c -3.650799,-0.06 -6.036252,2.49577 -6.7587,6.9428 l -17.8175,109.67578 c -1.4907,9.409 10.7152,14.8348 25.1875,14.5625 120.431608,-2.266 252.172208,-3.7611 372.187508,0.9062 35.5957,1.3844 31.4172,92.2832 31.3438,114 l 1.27057,443.40595 c -0.0323,38.80386 -3.07489,90.93929 -5.11803,125.78506 0.004,4.1006 2.04279,14.6909 7.9862,14.2814 5.95422,-0.4102 57.7624,-21.38696 65.75494,-35.43753 0.95646,-2.39242 2.63956,-4.87861 3.37913,-13.18503 0,0 -6.82158,-90.49546 -6.82896,-114.334 z"
       id="path3004-1"
       inkscape:connector-curvature="0"
       sodipodi:nodetypes="csssssssssscsscccccccc" />
  </g>
</svg>
