<?xml version="1.0" encoding="UTF-8" standalone="no"?>
<!-- Created with Inkscape (http://www.inkscape.org/) -->

<svg
   xmlns:dc="http://purl.org/dc/elements/1.1/"
   xmlns:cc="http://creativecommons.org/ns#"
   xmlns:rdf="http://www.w3.org/1999/02/22-rdf-syntax-ns#"
   xmlns:svg="http://www.w3.org/2000/svg"
   xmlns="http://www.w3.org/2000/svg"
   xmlns:sodipodi="http://sodipodi.sourceforge.net/DTD/sodipodi-0.dtd"
   xmlns:inkscape="http://www.inkscape.org/namespaces/inkscape"
   width="1000"
   height="1000"
   id="svg2"
   version="1.1"
   inkscape:version="0.48.4 r9939"
   sodipodi:docname="hebrew letter ayin.svg">
  <defs
     id="defs4" />
  <sodipodi:namedview
     id="base"
     pagecolor="#ffffff"
     bordercolor="#666666"
     borderopacity="1.0"
     inkscape:pageopacity="0.0"
     inkscape:pageshadow="2"
     inkscape:zoom="0.35"
     inkscape:cx="107.49698"
     inkscape:cy="222.31249"
     inkscape:document-units="px"
     inkscape:current-layer="layer1"
     showgrid="true"
     gridtolerance="10"
     guidetolerance="10"
     showguides="true"
     inkscape:guide-bbox="true"
     inkscape:window-width="1851"
     inkscape:window-height="1053"
     inkscape:window-x="69"
     inkscape:window-y="27"
     inkscape:window-maximized="1">
    <sodipodi:guide
       orientation="0,1"
       position="500,247"
       id="guide3019" />
    <sodipodi:guide
       orientation="0,1"
       position="500,732"
       id="guide3072" />
    <sodipodi:guide
       orientation="0,1"
       position="500,842"
       id="guide3074" />
    <sodipodi:guide
       orientation="0,1"
       position="500,955"
       id="guide3076" />
    <sodipodi:guide
       orientation="1,0"
       position="100,500"
       id="guide3867" />
    <sodipodi:guide
       orientation="1,0"
       position="180,500"
       id="guide3869" />
  </sodipodi:namedview>
  <metadata
     id="metadata7">
    <rdf:RDF>
      <cc:Work
         rdf:about="">
        <dc:format>image/svg+xml</dc:format>
        <dc:type
           rdf:resource="http://purl.org/dc/dcmitype/StillImage" />
        <dc:title />
      </cc:Work>
    </rdf:RDF>
  </metadata>
  <g
     inkscape:label="Layer 1"
     inkscape:groupmode="layer"
     id="layer1"
     transform="translate(0,-52.362183)">
    <path
       sodipodi:nodetypes="ssssssssssssssssssssssssssss"
       inkscape:connector-curvature="0"
       id="path3004-4-6-2"
       d="m 273.5761,763.73706 c -49.0533,18.63745 -103.56751,32.07583 -147.77411,39.62532 -14.4231,2.46315 -16.8017,9.39283 -18.1732,17.93493 l -13.5075,84.13009 c -2.3689,14.7543 6.05,17.68803 10.7109,16.70762 C 231.472,895.49669 421.9814,810.87411 513.492,751.39212 c 87.8107,-57.07705 88.23485,-92.87051 125.4218,-337.66701 5.30684,-34.93416 15.63869,-81.22399 34.00682,-126.51707 6.68101,-16.47436 -4.83772,-26.28556 -25.39722,-36.65929 -52.18953,-26.33332 -115.9054,-45.11963 -175.2689,-54.35983 -11.0698,-1.72307 -20.8771,3.95893 -24.5038,19.48936 l -12.5988,53.95163 c -2.2477,9.62511 2.5805,20.94783 12.2379,23.86654 l 86.7953,26.23173 c 32.5495,9.83728 55.8324,57.49197 42.9194,132.80379 -29.5764,172.49713 -33.5255,187.05386 -108.9137,230.57926 -57.6147,33.26385 -75.4376,29.84735 -83.9163,-12.56777 L 337.0581,434.34056 C 322.919,363.60905 314.42247,323.76261 318.5768,270.62446 319.71965,256.0063 301.7756,247.84067 292.1526,243.37225 252.8028,225.10029 198.6708,211.4973 138.83449,206.10637 c -11.158,-1.00529 -20.5781,5.29761 -23.1953,21.0297 l -9.0918,54.65204 c -1.622,9.75006 3.9112,20.80491 13.7522,23.02727 L 198,322.36218 c 56.4901,12.75695 77.4654,100.26962 89.0407,161.96656 l 36.7828,196.05365 c 11.75773,62.66912 0.1851,64.19318 -50.2474,83.35467 z"
       style="fill:none;stroke:#000000;stroke-width:1.03199995;stroke-linecap:butt;stroke-linejoin:miter;stroke-miterlimit:4;stroke-opacity:1;stroke-dasharray:none" />
  </g>
</svg>
