<?xml version="1.0" encoding="UTF-8" standalone="no"?>
<!-- Created with Inkscape (http://www.inkscape.org/) -->

<svg
   xmlns:dc="http://purl.org/dc/elements/1.1/"
   xmlns:cc="http://creativecommons.org/ns#"
   xmlns:rdf="http://www.w3.org/1999/02/22-rdf-syntax-ns#"
   xmlns:svg="http://www.w3.org/2000/svg"
   xmlns="http://www.w3.org/2000/svg"
   xmlns:sodipodi="http://sodipodi.sourceforge.net/DTD/sodipodi-0.dtd"
   xmlns:inkscape="http://www.inkscape.org/namespaces/inkscape"
   width="1000"
   height="1000"
   id="svg2"
   version="1.1"
   inkscape:version="0.48.4 r9939"
   sodipodi:docname="hebrew letter kaf.svg">
  <defs
     id="defs4">
    <inkscape:path-effect
       effect="spiro"
       id="path-effect6019"
       is_visible="true" />
  </defs>
  <sodipodi:namedview
     id="base"
     pagecolor="#ffffff"
     bordercolor="#666666"
     borderopacity="1.0"
     inkscape:pageopacity="0.0"
     inkscape:pageshadow="2"
     inkscape:zoom="0.70710678"
     inkscape:cx="466.09415"
     inkscape:cy="450.46743"
     inkscape:document-units="px"
     inkscape:current-layer="layer1"
     showgrid="true"
     gridtolerance="10"
     guidetolerance="1"
     showguides="true"
     inkscape:guide-bbox="true"
     inkscape:window-width="1851"
     inkscape:window-height="1053"
     inkscape:window-x="69"
     inkscape:window-y="27"
     inkscape:window-maximized="1">
    <sodipodi:guide
       orientation="0,1"
       position="500,247"
       id="guide3019" />
    <sodipodi:guide
       orientation="1,0"
       position="100,500"
       id="guide2991" />
    <sodipodi:guide
       orientation="1,0"
       position="180,500"
       id="guide2993" />
    <sodipodi:guide
       orientation="0,1"
       position="1270,728.33333"
       id="guide2994" />
    <sodipodi:guide
       orientation="0,1"
       position="500,950"
       id="guide2996" />
    <sodipodi:guide
       orientation="0,1"
       position="500,841"
       id="guide4483" />
  </sodipodi:namedview>
  <metadata
     id="metadata7">
    <rdf:RDF>
      <cc:Work
         rdf:about="">
        <dc:format>image/svg+xml</dc:format>
        <dc:type
           rdf:resource="http://purl.org/dc/dcmitype/StillImage" />
        <dc:title />
      </cc:Work>
    </rdf:RDF>
  </metadata>
  <g
     inkscape:label="Layer 1"
     inkscape:groupmode="layer"
     id="layer1"
     transform="translate(0,-52.362183)">
    <path
       style="fill:none;stroke:#000000;stroke-width:1.03771424px;stroke-linecap:butt;stroke-linejoin:miter;stroke-opacity:1"
       d="m 581.7359,422.10811 c 0.5257,-107.5902 35.23303,-127.68175 -73.94556,-164.2581 -92.25504,-30.90673 -181.87112,-43.20583 -288.1005,-43.9238 -56.84535,-0.3842 -65.2169,-0.0423 -68.3374,20.5166 l -10.54287,69.46003 c -1.42957,9.41848 6.64085,16.94973 24.65717,16.33027 98.29077,-3.37954 153.0128,-0.4426 223.5479,16.4316 88.8306,21.251 130.7088,43.467 130.0927,111.2025 l 0.013,141.6627 c -0.1606,21.7163 4.2519,112.6156 -31.3438,114 -120.0153,4.6673 -236.7633,3.1722 -357.1949,0.9062 -14.4723,-0.2723 -22.1782,2.6535 -25.1875,14.5625 l -13.0287,78.6757 c -2.7338,16.5086 25.8931,13.4795 66.9393,11.7805 58.7769,-2.4329 157.2182,-5.5847 227.0656,-6.779 60.3812,-1.0324 83.0444,-0.012 140.9319,1.3891 60.85456,1.4726 57.61526,-33.868 56.56806,-201.5038 z"
       id="path3004-1-1-0-9"
       inkscape:connector-curvature="0"
       sodipodi:nodetypes="cssssssccsscsssscc" />
  </g>
</svg>
