<?xml version="1.0" encoding="UTF-8" standalone="no"?>
<!-- Created with Inkscape (http://www.inkscape.org/) -->

<svg
   xmlns:dc="http://purl.org/dc/elements/1.1/"
   xmlns:cc="http://creativecommons.org/ns#"
   xmlns:rdf="http://www.w3.org/1999/02/22-rdf-syntax-ns#"
   xmlns:svg="http://www.w3.org/2000/svg"
   xmlns="http://www.w3.org/2000/svg"
   xmlns:sodipodi="http://sodipodi.sourceforge.net/DTD/sodipodi-0.dtd"
   xmlns:inkscape="http://www.inkscape.org/namespaces/inkscape"
   width="1000"
   height="1000"
   id="svg2"
   version="1.1"
   inkscape:version="0.48.4 r9939"
   sodipodi:docname="hebrew letter dalet.svg">
  <defs
     id="defs4" />
  <sodipodi:namedview
     id="base"
     pagecolor="#ffffff"
     bordercolor="#666666"
     borderopacity="1.0"
     inkscape:pageopacity="0.0"
     inkscape:pageshadow="2"
     inkscape:zoom="0.7"
     inkscape:cx="741.65437"
     inkscape:cy="488.98351"
     inkscape:document-units="px"
     inkscape:current-layer="layer1"
     showgrid="true"
     gridtolerance="10"
     guidetolerance="10"
     showguides="true"
     inkscape:guide-bbox="true"
     inkscape:window-width="1851"
     inkscape:window-height="1053"
     inkscape:window-x="69"
     inkscape:window-y="27"
     inkscape:window-maximized="1">
    <sodipodi:guide
       orientation="0,1"
       position="500,247"
       id="guide3019" />
    <sodipodi:guide
       orientation="0,1"
       position="500,732"
       id="guide3072" />
    <sodipodi:guide
       orientation="0,1"
       position="500,842"
       id="guide3074" />
    <sodipodi:guide
       orientation="0,1"
       position="500,955"
       id="guide3076" />
    <sodipodi:guide
       orientation="1,0"
       position="100,500"
       id="guide3867" />
    <sodipodi:guide
       orientation="1,0"
       position="180,500"
       id="guide3869" />
  </sodipodi:namedview>
  <metadata
     id="metadata7">
    <rdf:RDF>
      <cc:Work
         rdf:about="">
        <dc:format>image/svg+xml</dc:format>
        <dc:type
           rdf:resource="http://purl.org/dc/dcmitype/StillImage" />
        <dc:title />
      </cc:Work>
    </rdf:RDF>
  </metadata>
  <g
     inkscape:label="Layer 1"
     inkscape:groupmode="layer"
     id="layer1"
     transform="translate(0,-52.362183)">
    <path
       style="fill:none;stroke:#000000;stroke-width:1.03771424px;stroke-linecap:butt;stroke-linejoin:miter;stroke-opacity:1"
       d="m 108.7251,197.94798 c -5.93876,35.22533 -17.8175,109.67578 -17.8175,109.67578 -1.58384,9.39377 10.7152,14.8348 25.1875,14.5625 120.4316,-2.266 252.1722,-3.7611 372.1875,0.9062 35.5957,1.3844 31.41735,92.2832 31.3438,114 l -0.875,258.375 c -0.13293,39.2526 -7.98391,73.11442 -9.8125,108.375 -0.21483,4.14253 2.0566,14.8518 8,14.4375 5.9541,-0.4149 63.11801,-21.48388 70.8438,-35.8437 1.23292,-2.29161 2.6354,-4.9412 3.375,-13.3438 0.40228,-4.57033 -7.2569,-44.01063 -7.2188,-68.125 l 0.4375,-276.9062 c 0.07,-44.30071 3.3426,-74.07565 31,-88.92192 8.84037,-4.74544 17.68073,-9.4909 26.5211,-14.23633 6.3434,-3.40508 13.6583,-6.38548 13.6039,-17.27925 -0.11454,-22.9375 -0.23009,-49.875 -0.3438,-72.8125 -0.042,-8.4721 -4.3827,-15.6611 -17.5625,-15.1875 -55.8203,2.0056 -166.9987,5.75426 -250.7187,4.32276 -69.8474,-1.1942 -159.7823,-7.82246 -218.5582,-10.27896 -13.3382,-0.5574 -33.9902,-18.35251 -40.1975,-18.45458 -4.2123,-0.0693 -8.4246,-0.13857 -12.6369,-0.2078 -3.6508,-0.06 -6.0097,2.50016 -6.7587,6.9428 z"
       id="path3004-1"
       inkscape:connector-curvature="0"
       sodipodi:nodetypes="ssssssssssssssssssssss" />
  </g>
</svg>
