<?xml version="1.0" encoding="UTF-8" standalone="no"?>
<!-- Created with Inkscape (http://www.inkscape.org/) -->

<svg
   xmlns:dc="http://purl.org/dc/elements/1.1/"
   xmlns:cc="http://creativecommons.org/ns#"
   xmlns:rdf="http://www.w3.org/1999/02/22-rdf-syntax-ns#"
   xmlns:svg="http://www.w3.org/2000/svg"
   xmlns="http://www.w3.org/2000/svg"
   xmlns:sodipodi="http://sodipodi.sourceforge.net/DTD/sodipodi-0.dtd"
   xmlns:inkscape="http://www.inkscape.org/namespaces/inkscape"
   width="1000"
   height="1000"
   id="svg2"
   version="1.1"
   inkscape:version="0.48.5 r10040"
   sodipodi:docname="hebrew letter alternative ayin.svg">
  <defs
     id="defs4" />
  <sodipodi:namedview
     id="base"
     pagecolor="#ffffff"
     bordercolor="#666666"
     borderopacity="1.0"
     inkscape:pageopacity="0.0"
     inkscape:pageshadow="2"
     inkscape:zoom="0.49497475"
     inkscape:cx="-188.14773"
     inkscape:cy="580.08541"
     inkscape:document-units="px"
     inkscape:current-layer="layer1"
     showgrid="true"
     gridtolerance="10"
     guidetolerance="10"
     showguides="true"
     inkscape:guide-bbox="true"
     inkscape:window-width="1680"
     inkscape:window-height="983"
     inkscape:window-x="0"
     inkscape:window-y="27"
     inkscape:window-maximized="1">
    <sodipodi:guide
       orientation="0,1"
       position="500,247"
       id="guide3019" />
    <sodipodi:guide
       orientation="0,1"
       position="500,732"
       id="guide3072" />
    <sodipodi:guide
       orientation="0,1"
       position="500,842"
       id="guide3074" />
    <sodipodi:guide
       orientation="0,1"
       position="500,955"
       id="guide3076" />
    <sodipodi:guide
       orientation="1,0"
       position="100,500"
       id="guide3867" />
    <sodipodi:guide
       orientation="1,0"
       position="180,500"
       id="guide3869" />
  </sodipodi:namedview>
  <metadata
     id="metadata7">
    <rdf:RDF>
      <cc:Work
         rdf:about="">
        <dc:format>image/svg+xml</dc:format>
        <dc:type
           rdf:resource="http://purl.org/dc/dcmitype/StillImage" />
        <dc:title />
      </cc:Work>
    </rdf:RDF>
  </metadata>
  <g
     inkscape:label="Layer 1"
     inkscape:groupmode="layer"
     id="layer1"
     transform="translate(0,-52.362183)">
    <path
       sodipodi:nodetypes="sssssssssssssssssssssssssssss"
       inkscape:connector-curvature="0"
       id="path3004-4-6-2-3"
       d="m 280.2243,711.78028 c -55.0173,8.62461 -115.26016,9.07131 -162.7654,6.371 -14.60833,-0.83037 -19.85045,5.31407 -21.4747,13.8118 l -12.5293,65.5505 c -2.805454,14.67751 2.281,18.554 7.0439,18.554 139.0157,0 306.20501,-28.58707 407.0478,-69.0023 97.214,-38.9609 96.0277,-58.5833 139.3672,-331.3402 5.545,-34.8971 15.6387,-81.224 34.0068,-126.5171 6.681,-16.4743 -4.8377,-26.2855 -25.3972,-36.6592 -52.1895,-26.3334 -115.9054,-45.1197 -175.2689,-54.3599 -11.0698,-1.723 -20.8771,3.959 -24.5038,19.4894 l -12.5988,53.9516 c -2.2477,9.6251 2.5805,20.9479 12.2379,23.8666 l 86.7953,26.2317 c 32.5495,9.8373 54.8629,57.3321 42.9194,132.8038 -24.6516,155.7751 -37.56813,188.54445 -76.3592,207.96 -26.48926,13.2583 -45.7312,17.8005 -79.5898,24.8612 -36.7836,7.6707 -33.296,-5.8068 -46.881,-71.3783 l -37.2164,-179.6343 c -14.6332,-70.631 -20.7939,-108.5534 -16.4813,-163.7161 1.1429,-14.6182 -18.8012,-22.7838 -28.4242,-27.2522 -39.3498,-18.272 -93.4818,-31.875 -153.3181,-37.2659 -11.158,-1.0053 -20.5781,5.2976 -23.1953,21.0297 l -9.0918,54.652 c -1.622,9.7501 3.9112,20.8049 13.7522,23.0273 L 196,324.36218 c 56.4901,12.757 77.2037,100.3193 89.0407,161.9665 l 26.7828,139.4852 c 14.5401,75.7251 6.60517,79.97742 -31.5992,85.9664 z"
       style="fill:none;stroke:#000000;stroke-width:1.03199995;stroke-linecap:butt;stroke-linejoin:miter;stroke-miterlimit:4;stroke-opacity:1;stroke-dasharray:none" />
  </g>
</svg>
