<?xml version="1.0" encoding="UTF-8" standalone="no"?>
<!-- Created with Inkscape (http://www.inkscape.org/) -->

<svg
   xmlns:dc="http://purl.org/dc/elements/1.1/"
   xmlns:cc="http://creativecommons.org/ns#"
   xmlns:rdf="http://www.w3.org/1999/02/22-rdf-syntax-ns#"
   xmlns:svg="http://www.w3.org/2000/svg"
   xmlns="http://www.w3.org/2000/svg"
   xmlns:sodipodi="http://sodipodi.sourceforge.net/DTD/sodipodi-0.dtd"
   xmlns:inkscape="http://www.inkscape.org/namespaces/inkscape"
   width="1000"
   height="1000"
   id="svg2"
   version="1.1"
   inkscape:version="0.48.4 r9939"
   sodipodi:docname="hebrew letter tet.svg">
  <defs
     id="defs4" />
  <sodipodi:namedview
     id="base"
     pagecolor="#ffffff"
     bordercolor="#666666"
     borderopacity="1.0"
     inkscape:pageopacity="0.0"
     inkscape:pageshadow="2"
     inkscape:zoom="0.98994949"
     inkscape:cx="547.25322"
     inkscape:cy="620.96055"
     inkscape:document-units="px"
     inkscape:current-layer="layer1"
     showgrid="true"
     gridtolerance="10"
     guidetolerance="10"
     showguides="true"
     inkscape:guide-bbox="true"
     inkscape:window-width="1851"
     inkscape:window-height="1053"
     inkscape:window-x="69"
     inkscape:window-y="27"
     inkscape:window-maximized="1">
    <sodipodi:guide
       orientation="0,1"
       position="500,247"
       id="guide3019" />
    <sodipodi:guide
       orientation="0,1"
       position="500,732"
       id="guide3072" />
    <sodipodi:guide
       orientation="0,1"
       position="500,842"
       id="guide3074" />
    <sodipodi:guide
       orientation="0,1"
       position="500,955"
       id="guide3076" />
    <sodipodi:guide
       orientation="1,0"
       position="100,500"
       id="guide3867" />
    <sodipodi:guide
       orientation="1,0"
       position="180,500"
       id="guide3869" />
  </sodipodi:namedview>
  <metadata
     id="metadata7">
    <rdf:RDF>
      <cc:Work
         rdf:about="">
        <dc:format>image/svg+xml</dc:format>
        <dc:type
           rdf:resource="http://purl.org/dc/dcmitype/StillImage" />
        <dc:title />
      </cc:Work>
    </rdf:RDF>
  </metadata>
  <g
     inkscape:label="Layer 1"
     inkscape:groupmode="layer"
     id="layer1"
     transform="translate(0,-52.362183)">
    <path
       sodipodi:nodetypes="sssssssssssssssssssssssssss"
       inkscape:connector-curvature="0"
       id="path3004-4-1-5-8-9"
       d="m 486.22399,685.5193 c -63.4891,37.63552 -205.3311,71.28035 -243.5438,2.09425 -35.2318,-63.789 -51.6292,-138.70199 -60.0199,-216.34326 -7.6326,-70.62628 37.5228,-107.3186 52.432,-104.98277 19.2968,3.02325 35.1027,24.98996 46.2113,7.68122 l 33.9341,-52.87419 c 7.9197,-12.33996 -9.5479,-28.00899 -17.9216,-34.52429 -58.8745,-45.8084 -91.751,-63.97143 -146.9823,-87.61263 -10.2993,-4.4085 -21.2076,-1.32982 -28.5642,12.8204 l -25.5563,49.1567 c -4.559298,8.76972 -2.827498,21.18227 5.9521,26.1525 l 64.5068,36.51822 c 11.4818,6.50001 17.4106,20.10219 9.403,32.40676 l -41.1869,63.28819 c -15.5373,23.87474 -16.5588,25.0997 -6.6122,103.56531 10.5048,82.8683 38.7114,173.1746 75.3821,244.93054 48.5373,94.97595 249.83204,24.40374 316.0813,-10.99606 92.61459,-49.48792 110.82993,-112.39255 109.7074,-342.04483 -0.59146,-121.00315 41.3368,-144.31377 -115.0983,-187.44681 -25.09665,-6.91977 -43.62934,-1.01032 -53.664,11.99195 -25.87779,33.53077 -45.02026,68.74537 -60.139,104.96591 -2.78933,6.68251 -2.12126,11.38895 7.4409,16.07578 l 15.32192,7.50994 c 8.31875,4.07738 11.3912,-1.42928 17.1748,-10.49611 13.7736,-21.59261 46.89626,-33.25346 71.66191,-24.35856 41.23762,14.81102 56.17097,29.10949 54.68627,163.20546 -1.40308,126.7244 -51.706,172.184 -80.6074,189.31638 z"
       style="fill:none;stroke:#000000;stroke-width:1.03176868px;stroke-linecap:butt;stroke-linejoin:miter;stroke-opacity:1" />
  </g>
</svg>
