<?xml version="1.0" encoding="UTF-8" standalone="no"?>
<!-- Created with Inkscape (http://www.inkscape.org/) -->

<svg
   xmlns:dc="http://purl.org/dc/elements/1.1/"
   xmlns:cc="http://creativecommons.org/ns#"
   xmlns:rdf="http://www.w3.org/1999/02/22-rdf-syntax-ns#"
   xmlns:svg="http://www.w3.org/2000/svg"
   xmlns="http://www.w3.org/2000/svg"
   xmlns:sodipodi="http://sodipodi.sourceforge.net/DTD/sodipodi-0.dtd"
   xmlns:inkscape="http://www.inkscape.org/namespaces/inkscape"
   width="1000"
   height="1000"
   id="svg2"
   version="1.1"
   inkscape:version="0.48.4 r9939"
   sodipodi:docname="hebrew letter he.svg">
  <defs
     id="defs4" />
  <sodipodi:namedview
     id="base"
     pagecolor="#ffffff"
     bordercolor="#666666"
     borderopacity="1.0"
     inkscape:pageopacity="0.0"
     inkscape:pageshadow="2"
     inkscape:zoom="0.42426407"
     inkscape:cx="295.57198"
     inkscape:cy="703.56233"
     inkscape:document-units="px"
     inkscape:current-layer="g5885"
     showgrid="true"
     gridtolerance="10"
     guidetolerance="1"
     showguides="false"
     inkscape:guide-bbox="true"
     inkscape:window-width="1859"
     inkscape:window-height="1056"
     inkscape:window-x="61"
     inkscape:window-y="24"
     inkscape:window-maximized="1">
    <sodipodi:guide
       orientation="0,1"
       position="500,247"
       id="guide3019" />
    <sodipodi:guide
       orientation="1,0"
       position="100,500"
       id="guide2991" />
    <sodipodi:guide
       orientation="1,0"
       position="180,500"
       id="guide2993" />
    <sodipodi:guide
       orientation="0,1"
       position="1270,728.33333"
       id="guide2994" />
    <sodipodi:guide
       orientation="0,1"
       position="500,950"
       id="guide2996" />
    <sodipodi:guide
       orientation="0,1"
       position="500,841"
       id="guide4483" />
  </sodipodi:namedview>
  <metadata
     id="metadata7">
    <rdf:RDF>
      <cc:Work
         rdf:about="">
        <dc:format>image/svg+xml</dc:format>
        <dc:type
           rdf:resource="http://purl.org/dc/dcmitype/StillImage" />
        <dc:title />
      </cc:Work>
    </rdf:RDF>
  </metadata>
  <g
     inkscape:label="Layer 1"
     inkscape:groupmode="layer"
     id="layer1"
     transform="translate(0,-52.362183)">
    <g
       id="g5885">
      <path
         sodipodi:nodetypes="sssssssss"
         inkscape:connector-curvature="0"
         id="path5167-1"
         d="m 132.10089,525.51051 -8.28894,283.28432 c -0.31855,10.88673 5.41401,15.52471 11.22673,13.77429 25.50433,-7.68028 42.86802,-16.94619 64.65511,-30.59627 4.90711,-3.07441 9.57693,-7.95928 9.54135,-20.62262 l -0.7141,-254.15657 c -0.0205,-7.31335 -4.8091,-13.63035 -12.26398,-13.28136 l -52.02786,2.43563 c -9.37153,0.43872 -11.76419,6.7184 -12.12831,19.16258 z"
         style="fill:none;fill-opacity:1;stroke:#000000;stroke-width:0.89846170000000003px;stroke-linecap:butt;stroke-linejoin:miter;stroke-opacity:1" />
      <path
         style="fill:none;stroke:#000000;stroke-width:1.03771423999999990px;stroke-linecap:butt;stroke-linejoin:miter;stroke-opacity:1;fill-opacity:1"
         d="m 107.37269,196.38221 c -6.04475,37.41199 -16.616675,102.65736 -18.134248,112.23598 -1.4907,9.409 10.7152,14.8348 25.187498,14.5625 120.4316,-2.266 252.17219,-3.7611 372.18749,0.9062 35.5957,1.3844 31.41735,92.2832 31.3438,114 l -0.875,258.375 c -0.13293,39.2526 -5.50612,73.11442 -7.33471,108.375 -0.21483,4.14253 2.0566,14.8518 8,14.4375 5.9541,-0.4149 59.59084,-21.48388 67.31663,-35.8437 1.23292,-2.29161 2.6354,-4.9412 3.375,-13.3438 0.40228,-4.57033 -6.20752,-44.01063 -6.16942,-68.125 l 0.4375,-276.9062 c 0.07,-44.30071 8.86606,-71.48725 31,-86.50518 8.65623,-5.87327 17.31247,-11.74655 25.9687,-17.61982 8.64454,-5.86534 14.21144,-4.31387 14.1563,-16.3125 l -0.3438,-74.81248 c -0.0389,-8.47212 -4.3827,-15.6611 -17.5625,-15.1875 -55.8203,2.0056 -166.9987,6.46555 -250.7187,5.03405 -69.8474,-1.1942 -161.32223,-8.53375 -220.09813,-10.99025 -13.3382,-0.5574 -29.94429,-18.86053 -38.90619,-19.0148 -4.02384,-0.0693 -8.04768,-0.13853 -12.07152,-0.2078 -3.65067,-0.0628 -6.04008,2.49513 -6.7587,6.9428 z"
         id="path3004-1-7"
         inkscape:connector-curvature="0"
         sodipodi:nodetypes="ssssssssssssssssssssss" />
    </g>
  </g>
</svg>
