<?xml version="1.0" encoding="UTF-8" standalone="no"?>
<!-- Created with Inkscape (http://www.inkscape.org/) -->

<svg
   xmlns:dc="http://purl.org/dc/elements/1.1/"
   xmlns:cc="http://creativecommons.org/ns#"
   xmlns:rdf="http://www.w3.org/1999/02/22-rdf-syntax-ns#"
   xmlns:svg="http://www.w3.org/2000/svg"
   xmlns="http://www.w3.org/2000/svg"
   xmlns:sodipodi="http://sodipodi.sourceforge.net/DTD/sodipodi-0.dtd"
   xmlns:inkscape="http://www.inkscape.org/namespaces/inkscape"
   width="1000"
   height="1000"
   id="svg2"
   version="1.1"
   inkscape:version="0.48.4 r9939"
   sodipodi:docname="hebrew letter mem.svg">
  <defs
     id="defs4">
    <inkscape:path-effect
       effect="spiro"
       id="path-effect6019"
       is_visible="true" />
  </defs>
  <sodipodi:namedview
     id="base"
     pagecolor="#ffffff"
     bordercolor="#666666"
     borderopacity="1.0"
     inkscape:pageopacity="0.0"
     inkscape:pageshadow="2"
     inkscape:zoom="0.70710678"
     inkscape:cx="428.97774"
     inkscape:cy="327.40476"
     inkscape:document-units="px"
     inkscape:current-layer="layer1"
     showgrid="true"
     gridtolerance="10"
     guidetolerance="1"
     showguides="true"
     inkscape:guide-bbox="true"
     inkscape:window-width="1851"
     inkscape:window-height="1053"
     inkscape:window-x="69"
     inkscape:window-y="27"
     inkscape:window-maximized="1">
    <sodipodi:guide
       orientation="0,1"
       position="500,247"
       id="guide3019" />
    <sodipodi:guide
       orientation="1,0"
       position="100,500"
       id="guide2991" />
    <sodipodi:guide
       orientation="1,0"
       position="180,500"
       id="guide2993" />
    <sodipodi:guide
       orientation="0,1"
       position="1270,728.33333"
       id="guide2994" />
    <sodipodi:guide
       orientation="0,1"
       position="500,950"
       id="guide2996" />
    <sodipodi:guide
       orientation="0,1"
       position="500,841"
       id="guide4483" />
  </sodipodi:namedview>
  <metadata
     id="metadata7">
    <rdf:RDF>
      <cc:Work
         rdf:about="">
        <dc:format>image/svg+xml</dc:format>
        <dc:type
           rdf:resource="http://purl.org/dc/dcmitype/StillImage" />
        <dc:title />
      </cc:Work>
    </rdf:RDF>
  </metadata>
  <g
     inkscape:label="Layer 1"
     inkscape:groupmode="layer"
     id="layer1"
     transform="translate(0,-52.362183)">
    <path
       sodipodi:nodetypes="ssssssssssssssssssssssssssssssss"
       inkscape:connector-curvature="0"
       id="path3004-4"
       d="m 264.68519,295.87748 c -21.60466,-37.42037 -37.71342,-56.83095 -67.38902,-84.76536 -13.5861,-12.78895 -21.60615,-8.74286 -34.53942,4.22764 -13.8467,13.88656 -27.69341,27.77312 -41.54011,41.65968 -11.7591,11.79295 -6.37991,17.87301 0.78363,26.80982 12.29597,15.33972 24.59195,30.67944 36.88792,46.01916 37.30695,46.54192 5.75269,145.05919 -4.5381,199.55838 -10.73988,56.87754 -21.47976,113.75507 -32.21964,170.63261 -7.1999,38.13007 -19.68271,63.20253 -28.21607,97.04893 -1.0025,3.97628 -0.835986,14.80864 5.07443,15.55595 5.92117,0.74867 58.02501,-0.0853 68.35149,-12.52168 1.64595,-1.98224 3.53301,-4.27623 5.86445,-12.28293 1.26844,-4.35612 5.64356,-37.56366 10.06881,-60.98783 14.15268,-74.91437 28.30536,-149.82873 42.45804,-224.7431 14.45265,-76.50219 39.01795,-163.57336 101.66589,-178.25944 53.33768,-12.50356 84.41805,-12.09965 163.61719,11.8354 62.95019,19.02439 97.08667,38.4302 97.0927,107.66697 0.004,49.73274 0.013,149.19823 0.013,149.19823 0.002,21.71689 4.2519,112.61571 -31.3438,114 -103.61788,4.02962 -155.7449,4.56384 -258.14465,0.9062 -14.46564,-0.5167 -23.18071,2.44421 -25.1875,14.5625 0,0 -8.6858,52.45047 -13.0287,78.6757 -2.73382,16.5086 25.93768,14.33874 66.9393,11.7805 44.58313,-2.7817 94.6556,-5.80677 151.51535,-6.779 60.3812,-1.03244 76.55497,-0.29232 117.4319,1.3891 62.83667,2.5847 58.47129,-33.87553 56.56806,-201.5038 l -2.1344,-187.98853 c -1.2215,-107.58455 34.18375,-110.39914 -75.94556,-161.7581 -48.14459,-22.4523 -110.54155,-42.62879 -168.96179,-51.69157 -32.37077,-5.0217 -58.27999,-2.48213 -68.0289,12.62231 -14.99389,23.23073 -29.98779,46.46147 -44.98168,69.6922 -11.7074,18.13881 -22.36658,19.42748 -28.13282,9.44006 z"
       style="fill:none;stroke:#000000;stroke-width:1.03176868px;stroke-linecap:butt;stroke-linejoin:miter;stroke-opacity:1" />
  </g>
</svg>
