<?xml version="1.0" encoding="UTF-8" standalone="no"?>
<!-- Created with Inkscape (http://www.inkscape.org/) -->

<svg
   xmlns:dc="http://purl.org/dc/elements/1.1/"
   xmlns:cc="http://creativecommons.org/ns#"
   xmlns:rdf="http://www.w3.org/1999/02/22-rdf-syntax-ns#"
   xmlns:svg="http://www.w3.org/2000/svg"
   xmlns="http://www.w3.org/2000/svg"
   xmlns:sodipodi="http://sodipodi.sourceforge.net/DTD/sodipodi-0.dtd"
   xmlns:inkscape="http://www.inkscape.org/namespaces/inkscape"
   width="1000"
   height="1000"
   id="svg2"
   version="1.1"
   inkscape:version="0.48.4 r9939"
   sodipodi:docname="hebrew letter tav.svg">
  <defs
     id="defs4">
    <inkscape:path-effect
       effect="spiro"
       id="path-effect2992"
       is_visible="true" />
  </defs>
  <sodipodi:namedview
     id="base"
     pagecolor="#ffffff"
     bordercolor="#666666"
     borderopacity="1.0"
     inkscape:pageopacity="0.0"
     inkscape:pageshadow="2"
     inkscape:zoom="0.84852814"
     inkscape:cx="48.685072"
     inkscape:cy="415.95338"
     inkscape:document-units="px"
     inkscape:current-layer="g5885"
     showgrid="true"
     gridtolerance="10"
     guidetolerance="1"
     showguides="true"
     inkscape:guide-bbox="true"
     inkscape:window-width="1851"
     inkscape:window-height="1053"
     inkscape:window-x="69"
     inkscape:window-y="27"
     inkscape:window-maximized="1">
    <sodipodi:guide
       orientation="0,1"
       position="500,247"
       id="guide3019" />
    <sodipodi:guide
       orientation="1,0"
       position="100,500"
       id="guide2991" />
    <sodipodi:guide
       orientation="1,0"
       position="180,500"
       id="guide2993" />
    <sodipodi:guide
       orientation="0,1"
       position="1270,728.33333"
       id="guide2994" />
    <sodipodi:guide
       orientation="0,1"
       position="500,950"
       id="guide2996" />
    <sodipodi:guide
       orientation="0,1"
       position="500,841"
       id="guide4483" />
  </sodipodi:namedview>
  <metadata
     id="metadata7">
    <rdf:RDF>
      <cc:Work
         rdf:about="">
        <dc:format>image/svg+xml</dc:format>
        <dc:type
           rdf:resource="http://purl.org/dc/dcmitype/StillImage" />
        <dc:title />
      </cc:Work>
    </rdf:RDF>
  </metadata>
  <g
     inkscape:label="Layer 1"
     inkscape:groupmode="layer"
     id="layer1"
     transform="translate(0,-52.362183)">
    <g
       id="g5885">
      <path
         sodipodi:nodetypes="ssssssssssssssssssssssssssss"
         inkscape:connector-curvature="0"
         id="path3004-4"
         d="m 290.3016,417.08097 c 0.37178,120.96522 6.24625,246.3954 13.61809,365.08917 0.74512,11.99713 -3.39744,15.81777 -8.89994,18.70584 -12.04075,6.31977 -57.44716,8.64589 -63.40333,9.02643 -38.5077,2.46028 -111.21087,3.91501 -128.24262,3.09884 -6.604123,-0.31647 -9.371693,-5.1355 -8.201363,-13.32649 L 107.33965,714.518 c 0.47603,-3.33168 4.31683,-7.86013 9.92788,-7.75727 16.81105,0.30819 89.54014,5.786 111.73759,1.73439 8.52717,-1.55643 11.01645,-3.80238 10.80945,-14.75317 l -6.14507,-325.0868 c -1.03027,-54.50325 -59.84293,-34.17267 -56.05637,-57.08816 l 18.3189,-110.86219 c 0.73527,-4.4497 3.08251,-7.00623 6.73228,-6.94489 l 12.64961,0.2126 c 6.20032,0.10421 26.85828,18.40085 40.21653,18.4252 64.38194,0.11738 190.52302,1.29637 238.53448,2.44488 237.86255,5.69007 207.12049,36.85018 209.23228,211.15747 l 3.37792,278.81427 c 0.28889,23.84471 2.17698,62.84171 1.77165,67.35827 -0.74409,8.29134 -2.12715,10.90391 -3.36614,13.1811 -7.73596,14.21828 -54.78079,35.02446 -60.73228,35.43307 -5.91865,0.40635 -8.18906,-10.175 -7.97244,-14.27953 1.83883,-34.8428 5.14795,-77.38578 5.10236,-116.18503 l -0.29524,-251.28278 c -0.0255,-21.72048 -7.65327,-107.93409 -80.22047,-111.98819 -85.13491,-4.75622 -151.34419,-7.86274 -217.70972,-0.23489 -35.94914,4.13189 -53.14379,27.61816 -52.95125,90.26462 z"
         style="fill:none;stroke:#000000;stroke-width:1.03176868px;stroke-linecap:butt;stroke-linejoin:miter;stroke-opacity:1" />
    </g>
  </g>
</svg>
