<?xml version="1.0" encoding="UTF-8" standalone="no"?>
<!-- Created with Inkscape (http://www.inkscape.org/) -->

<svg
   xmlns:dc="http://purl.org/dc/elements/1.1/"
   xmlns:cc="http://creativecommons.org/ns#"
   xmlns:rdf="http://www.w3.org/1999/02/22-rdf-syntax-ns#"
   xmlns:svg="http://www.w3.org/2000/svg"
   xmlns="http://www.w3.org/2000/svg"
   xmlns:sodipodi="http://sodipodi.sourceforge.net/DTD/sodipodi-0.dtd"
   xmlns:inkscape="http://www.inkscape.org/namespaces/inkscape"
   width="1000"
   height="1000"
   id="svg2"
   version="1.1"
   inkscape:version="0.48.4 r9939"
   sodipodi:docname="hebrew letter lamed.svg">
  <defs
     id="defs4" />
  <sodipodi:namedview
     id="base"
     pagecolor="#ffffff"
     bordercolor="#666666"
     borderopacity="1.0"
     inkscape:pageopacity="0.0"
     inkscape:pageshadow="2"
     inkscape:zoom="0.49497474"
     inkscape:cx="1095.6216"
     inkscape:cy="345.02267"
     inkscape:document-units="px"
     inkscape:current-layer="layer1"
     showgrid="true"
     gridtolerance="10"
     guidetolerance="10"
     showguides="true"
     inkscape:guide-bbox="true"
     inkscape:window-width="1851"
     inkscape:window-height="1053"
     inkscape:window-x="69"
     inkscape:window-y="27"
     inkscape:window-maximized="1">
    <sodipodi:guide
       orientation="0,1"
       position="500,247"
       id="guide3019" />
    <sodipodi:guide
       orientation="0,1"
       position="500,732"
       id="guide3072" />
    <sodipodi:guide
       orientation="0,1"
       position="500,842"
       id="guide3074" />
    <sodipodi:guide
       orientation="0,1"
       position="500,955"
       id="guide3076" />
    <sodipodi:guide
       orientation="1,0"
       position="100,500"
       id="guide3867" />
    <sodipodi:guide
       orientation="1,0"
       position="180,500"
       id="guide3869" />
  </sodipodi:namedview>
  <metadata
     id="metadata7">
    <rdf:RDF>
      <cc:Work
         rdf:about="">
        <dc:format>image/svg+xml</dc:format>
        <dc:type
           rdf:resource="http://purl.org/dc/dcmitype/StillImage" />
        <dc:title />
      </cc:Work>
    </rdf:RDF>
  </metadata>
  <g
     inkscape:label="Layer 1"
     inkscape:groupmode="layer"
     id="layer1"
     transform="translate(0,-52.362183)">
    <path
       id="path3786-1-9-4-2-5-1"
       d="m 356.58343,213.44347 c 221.32228,3.7961 182.54386,17.78727 209.94738,200.9177 9.6405,64.42488 2.13123,95.34706 -23.91185,136.80502 -35.54431,56.58296 -68.7972,102.61622 -113.45914,151.72562 -26.65939,29.314 -75.16739,80.0261 -106.86249,108.6204 -4.1779,3.7692 -12.3323,6.4397 -16.3869,1.2019 -15.9947,-20.6625 -22.9556,-29.8645 -31.7683,-46.2761 -2.0931,-3.8979 -0.1745,-8.89983 3.7984,-11.9739 23.0248,-17.81576 53.8033,-44.76254 85.2621,-75.25524 51.93284,-50.3382 95.89548,-105.5263 133.68698,-168.4456 10.3283,-17.1957 12.8258,-28.9677 7.5272,-82.1736 -2.1525,-21.6136 -8.3329,-103.5578 -80.93534,-106.9375 -119.97664,-5.5848 -155.47054,-3.1985 -275.90734,-0.9213 -14.4922,0.274 -25.8089,-5.0409 -25.193,-14.563 0.6197,-9.5811 6.96199,-58.59012 7.0203,-86.5501 0.0729,-34.95756 0.14585,-67.91513 0.2187,-102.87269 0.10971,-52.64305 -9.1009,-91.168399 -30.875,-128.75 -4.066497,-7.018753 -8.446997,-13.949 -4.781197,-21 3.3115,-6.369796 17.374097,-30.535196 22.999697,-40.526796 7.7537,-13.7713 14.7997,-17.553 24.5316,-13.317 11.9414,5.1978 41.1942,25.1416 52.0625,34.4063 6.4919,5.534 20.126,16.148418 13.4062,27.406196 -25.0344,41.940776 -25.32626,55.705076 -25.2812,109.156305 0.0313,37.168825 0.0637,72.337655 0.094,109.506485 0.009,11.0392 9.7783,17.0072 23.0252,17.4917 13.2468,0.4846 103.7642,1.5017 151.7815,2.3252 z"
       style="fill:none;stroke:#000000;stroke-width:1.02755904px;stroke-linecap:butt;stroke-linejoin:miter;stroke-miterlimit:4;stroke-opacity:1;stroke-dasharray:none"
       inkscape:connector-curvature="0"
       sodipodi:nodetypes="ssssssssssssssssssssssssss" />
  </g>
</svg>
