<?xml version="1.0" encoding="UTF-8" standalone="no"?>
<!-- Created with Inkscape (http://www.inkscape.org/) -->

<svg
   xmlns:dc="http://purl.org/dc/elements/1.1/"
   xmlns:cc="http://creativecommons.org/ns#"
   xmlns:rdf="http://www.w3.org/1999/02/22-rdf-syntax-ns#"
   xmlns:svg="http://www.w3.org/2000/svg"
   xmlns="http://www.w3.org/2000/svg"
   xmlns:sodipodi="http://sodipodi.sourceforge.net/DTD/sodipodi-0.dtd"
   xmlns:inkscape="http://www.inkscape.org/namespaces/inkscape"
   width="1000"
   height="1000"
   id="svg2"
   version="1.1"
   inkscape:version="0.48.4 r9939"
   sodipodi:docname="90-tzadi.svg">
  <defs
     id="defs4" />
  <sodipodi:namedview
     id="base"
     pagecolor="#ffffff"
     bordercolor="#666666"
     borderopacity="1.0"
     inkscape:pageopacity="0.0"
     inkscape:pageshadow="2"
     inkscape:zoom="1.979899"
     inkscape:cx="466.80903"
     inkscape:cy="586.26436"
     inkscape:document-units="px"
     inkscape:current-layer="layer1"
     showgrid="true"
     gridtolerance="10"
     guidetolerance="10"
     showguides="true"
     inkscape:guide-bbox="true"
     inkscape:window-width="3078"
     inkscape:window-height="1752"
     inkscape:window-x="122"
     inkscape:window-y="48"
     inkscape:window-maximized="1">
    <sodipodi:guide
       orientation="0,1"
       position="500,247"
       id="guide3019" />
    <sodipodi:guide
       orientation="0,1"
       position="500,732"
       id="guide3072" />
    <sodipodi:guide
       orientation="0,1"
       position="500,842"
       id="guide3074" />
    <sodipodi:guide
       orientation="0,1"
       position="500,955"
       id="guide3076" />
  </sodipodi:namedview>
  <metadata
     id="metadata7">
    <rdf:RDF>
      <cc:Work
         rdf:about="">
        <dc:format>image/svg+xml</dc:format>
        <dc:type
           rdf:resource="http://purl.org/dc/dcmitype/StillImage" />
        <dc:title />
      </cc:Work>
    </rdf:RDF>
  </metadata>
  <g
     inkscape:label="Layer 1"
     inkscape:groupmode="layer"
     id="layer1"
     transform="translate(0,-52.362183)">
    <path
       sodipodi:nodetypes="csssssssc"
       inkscape:connector-curvature="0"
       id="path3004-8"
       d="m -620.01765,542.54599 c 38.95027,-47.05401 82.21411,-122.72234 115.43036,-194.68938 6.1447,-13.31313 -0.64752,-28.04306 -7.86717,-35.81764 -50.761,-54.66222 -77.5207,-78.10958 -128.24279,-110.3072 -9.45835,-6.0041 -20.71926,-4.71565 -30.25115,8.07062 -11.03771,14.80624 -22.07544,29.61254 -33.11327,44.41873 -5.90752,7.92438 -6.08471,20.32528 1.67848,26.76871 l 70.05384,58.14448 c 45.66669,37.90321 11.78198,108.02512 -21.55269,165.13477"
       style="fill:none;stroke:#000000;stroke-width:1.03176868px;stroke-linecap:butt;stroke-linejoin:miter;stroke-opacity:1" />
    <path
       style="fill:none;stroke:#000000;stroke-width:1.03771424px;stroke-linecap:butt;stroke-linejoin:miter;stroke-opacity:1"
       d="m 425.86695,705.34586 c -97.6191,2.11855 -194.3395,0.82997 -293.312,-1.03226 -14.4723,-0.27231 -23.1807,2.44421 -25.1875,14.5625 0,0 -8.685801,52.45046 -13.028701,78.6757 -2.7338,16.5086 25.893101,13.4795 66.939301,11.7805 58.7769,-2.4329 136.2575,-5.5847 206.1049,-6.779 60.3812,-1.0324 85.7316,-0.9247 143.7099,1.3891 13.5678,0.54146 20.0316,-9.92216 24.813,-20.91429 3.7556,-8.63373 18.753,-53.22597 15.4377,-69.04707 -0.7707,-3.67808 -2.4194,-9.53014 -8.604,-15.12419 -10.3301,-9.34379 -23.1394,-18.94676 -42.0038,-34.24344 l -80.0479,-64.90874 c -17.0599,-13.83343 -27.4134,-27.42959 -16.6424,-37.05948 79.9033,-71.43822 119.3764,-111.54246 176.879,-210.68904 7.3563,-12.68386 -0.3283,-28.04861 -7.459,-35.90485 -50.1354,-55.23657 -75.6415,-79.56878 -125.9937,-112.34177 -9.3895,-6.11136 -20.6643,-4.95129 -30.3412,7.72574 -11.2056,14.67963 -22.4112,29.35922 -33.6167,44.0389 -5.9973,7.85671 -6.2482,20.17595 1.3736,26.78607 29.5674,25.64277 59.1348,51.28553 88.7022,76.9283 35.9265,31.15776 -7.8863,78.14438 -64.849,131.87486 -43.5763,41.10366 -70.0729,43.02876 -125.901,-2.5763 -35.5329,-29.02629 -55.6016,-60.8634 -39.1114,-103.88719 10.7752,-28.1134 28.80403,-72.32826 54.324,-118.76519 7.0618,-12.85007 -14.59917,-23.18553 -26.55463,-27.76984 -66.81005,-25.61828 -104.01447,-34.29749 -163.87282,-39.43191 -11.162227,-0.95744 -20.541636,6.01696 -23.091251,21.76014 -2.95228,18.23018 -5.90486,36.46035 -8.857239,54.69052 -1.580064,9.75696 3.947943,21.03979 13.850866,22.96809 46.041054,8.96519 71.307364,13.99365 114.821344,26.85648 12.65284,3.74019 9.95589,15.42899 5.81403,27.06486 l -14.4026,40.46167 c -20.27128,56.94873 -32.4175,80.4828 28.1408,129.63837 l 205.4716,166.78266 c 10.4252,8.46225 16.7618,16.05026 -3.5054,16.4901 z"
       id="path3004-1-1-0-9"
       inkscape:connector-curvature="0"
       sodipodi:nodetypes="sssssssssssssssssssssssssssssssssss" />
    <path
       sodipodi:nodetypes="sssssssssssssssss"
       inkscape:connector-curvature="0"
       id="path3004-4"
       d="m -368.1332,386.35343 c 1.87684,3.64594 9.16379,11.66279 14.09213,8.31569 4.9373,-3.35319 35.0703,-45.03041 34.59515,-61.18816 -0.0757,-2.57542 -0.17671,-5.5441 -3.72132,-13.09256 -1.92847,-4.1068 -23.12307,-36.90278 -35.46265,-57.29912 L -523.07088,-8.7185815 c -27.08229,-44.7648795 -61.54331,-92.7728985 -72.33142,-138.4698385 -3.36897,-14.27047 -16.4388,-27.25428 -26.50222,-30.61516 -28.93338,-9.66285 -98.11048,-22.62066 -134.10018,-25.02408 -11.1783,-0.74649 -20.3999,5.94801 -22.5164,21.75526 l -7.3526,54.91306 c -1.3118,9.79665 4.7504,19.89702 14.4761,22.57921 8.6186,2.37686 27.48296,6.008689 57.12146,11.930119 33.34453,6.66187 75.22862,23.83424 94.06869,52.91268 25.90333,39.9801295 36.00864,55.51491 61.63178,97.69375 45.44877,74.814261 90.89752,149.628521 136.34628,224.442791 20.14672,33.16399 38.12019,71.91933 54.09619,102.95422 z"
       style="fill:none;stroke:#000000;stroke-width:1.03176868px;stroke-linecap:butt;stroke-linejoin:miter;stroke-opacity:1" />
    <path
       sodipodi:nodetypes="ssssssssssssssssssss"
       inkscape:connector-curvature="0"
       id="path3004-4-1"
       d="m -781.43977,271.35427 c 3.94041,-14.12336 -17.8725,-22.96343 -27.41998,-27.5909 -48.90769,-23.70453 -99.73182,-36.55198 -159.50419,-42.60734 -11.1461,-1.12919 -20.62091,5.0713 -23.42761,20.7707 l -10.20335,57.07307 c -1.7395,9.72979 3.18435,21.81725 12.99048,24.18878 l 66.03352,15.96968 c 12.82437,3.10147 23.18953,14.15207 18.79693,29.56555 l -21.32782,74.83854 c -7.801,27.37341 1.46909,60.14976 61.55797,111.5804 l 197.16152,168.75238 c 29.48006,25.23226 58.31493,55.56382 81.4118,81.73507 2.71332,3.07449 11.74332,9.06028 15.70068,4.60711 3.96457,-4.46128 21.95098,-52.28598 17.52915,-67.83415 -0.70456,-2.47835 -1.53049,-5.3316 -6.81749,-11.78072 -2.87645,-3.5087 -32.9094,-28.38346 -50.78744,-44.15216 L -852.46318,452.38985 c -37.35726,-32.94965 -29.17868,-98.50398 16.54499,-113.10631 16.54321,-5.28324 33.94685,5.66058 38.21013,-9.61998 z"
       style="fill:none;stroke:#000000;stroke-width:1.03176868px;stroke-linecap:butt;stroke-linejoin:miter;stroke-opacity:1" />
    <path
       style="fill:none;stroke:#000000;stroke-width:1.03771424px;stroke-linecap:butt;stroke-linejoin:miter;stroke-opacity:1"
       d="m -610.85766,691.624 c -120.0152,4.6673 -236.76322,3.1722 -357.19481,0.9062 -14.4723,-0.2723 -22.1782,2.6535 -25.1875,14.5625 l -13.02873,78.6757 c -2.7338,16.5086 25.89313,13.4795 66.93932,11.7805 58.7769,-2.4329 157.2182,-5.5847 227.06552,-6.779 60.3812,-1.0324 83.0444,-0.012 140.932,1.3891"
       id="path3004-1-1-0-9-7"
       inkscape:connector-curvature="0"
       sodipodi:nodetypes="cscsssc" />
  </g>
</svg>
