<?xml version="1.0" encoding="UTF-8" standalone="no"?>
<!-- Created with Inkscape (http://www.inkscape.org/) -->

<svg
   xmlns:dc="http://purl.org/dc/elements/1.1/"
   xmlns:cc="http://creativecommons.org/ns#"
   xmlns:rdf="http://www.w3.org/1999/02/22-rdf-syntax-ns#"
   xmlns:svg="http://www.w3.org/2000/svg"
   xmlns="http://www.w3.org/2000/svg"
   xmlns:sodipodi="http://sodipodi.sourceforge.net/DTD/sodipodi-0.dtd"
   xmlns:inkscape="http://www.inkscape.org/namespaces/inkscape"
   width="1000"
   height="1000"
   id="svg2"
   version="1.1"
   inkscape:version="0.48.4 r9939"
   sodipodi:docname="hebrew letter alef.svg">
  <defs
     id="defs4" />
  <sodipodi:namedview
     id="base"
     pagecolor="#ffffff"
     bordercolor="#666666"
     borderopacity="1.0"
     inkscape:pageopacity="0.0"
     inkscape:pageshadow="2"
     inkscape:zoom="1"
     inkscape:cx="510.14942"
     inkscape:cy="658.55925"
     inkscape:document-units="px"
     inkscape:current-layer="layer1"
     showgrid="true"
     gridtolerance="10"
     guidetolerance="1"
     showguides="true"
     inkscape:guide-bbox="true"
     inkscape:window-width="1851"
     inkscape:window-height="1053"
     inkscape:window-x="69"
     inkscape:window-y="27"
     inkscape:window-maximized="1"
     inkscape:snap-to-guides="true"
     inkscape:snap-grids="true"
     inkscape:snap-nodes="true"
     inkscape:snap-global="true">
    <sodipodi:guide
       orientation="0,1"
       position="500,247"
       id="guide3019" />
    <sodipodi:guide
       orientation="1,0"
       position="99,794"
       id="guide2991" />
    <sodipodi:guide
       orientation="1,0"
       position="180,500"
       id="guide2993" />
    <sodipodi:guide
       orientation="0,1"
       position="500,732"
       id="guide2994" />
    <sodipodi:guide
       orientation="0,1"
       position="500,950"
       id="guide2996" />
    <sodipodi:guide
       orientation="-0.98480775,0.17364818"
       position="226.27416,789.13115"
       id="guide3008" />
    <sodipodi:guide
       orientation="0,1"
       position="500,841"
       id="guide4407" />
  </sodipodi:namedview>
  <metadata
     id="metadata7">
    <rdf:RDF>
      <cc:Work
         rdf:about="">
        <dc:format>image/svg+xml</dc:format>
        <dc:type
           rdf:resource="http://purl.org/dc/dcmitype/StillImage" />
        <dc:title />
      </cc:Work>
    </rdf:RDF>
  </metadata>
  <g
     inkscape:label="Layer 1"
     inkscape:groupmode="layer"
     id="layer1"
     transform="translate(0,-52.362183)">
    <path
       sodipodi:nodetypes="ssssssssssssssssssssssssssssssss"
       inkscape:connector-curvature="0"
       id="path3004-8"
       d="m 507.5978,563.45619 c 44.43125,-41.91744 96.65548,-111.70339 138.45391,-179.04927 7.73226,-12.45827 2.79943,-27.91051 -3.41142,-36.51245 -43.66783,-60.47935 -85.68088,-107.85618 -132.06746,-146.03602 -8.64995,-7.11963 -19.9838,-7.22309 -31.01303,4.29655 -12.77162,13.33951 -25.54318,26.67907 -38.31487,40.01852 -6.8355,7.13937 -8.47653,19.37161 -1.61984,26.77231 l 80.72107,87.12557 c 50.95653,54.99947 1.43899,108.65445 -41.65857,161.24076 -8.40956,10.26109 -20.74484,13.3439 -29.96268,3.04732 C 321.47876,382.22214 263.41496,316.06616 180.91353,204.57947 c -8.09417,-10.93789 -20.44711,-8.20782 -29.64176,-2.47706 -16.26268,10.13606 -39.29316,31.22128 -49.62473,45.03369 -5.956349,7.96312 -13.285455,19.3076 -5.515798,26.60988 55.524668,52.18464 58.418868,64.13831 53.702748,121.53207 -8.23801,100.25403 -13.23092,167.28537 -23.52657,254.11878 -7.04489,59.41653 -12.10699,120.29699 -10.07984,127.47103 3.98711,14.11025 14.41738,22.83355 24.81383,24.95063 47.34475,9.64105 107.83744,12.0177 167.85478,9.31199 11.19178,-0.50454 19.67881,-8.01716 20.15626,-23.9583 0.55288,-18.45944 1.10576,-36.91887 1.65863,-55.37831 0.2959,-9.87963 -6.68012,-20.02117 -16.72437,-20.96842 -30.09071,-2.83779 -60.18143,-5.67558 -90.27214,-8.51337 -37.66916,-3.5525 -37.65436,-52.16907 -34.64808,-94.21038 5.49082,-76.78635 9.29561,-119.30314 25.648,-197.52127 2.49534,-11.93592 8.99142,-9.48899 16.83745,-1.73216 111.75923,110.48867 207.87998,224.75248 346.05004,399.09809 9.81882,12.38957 28.85163,12.51338 32.07119,3.60205 6.94034,-19.21 10.6742,-37.94839 11.38494,-59.0519 0.54095,-16.06187 -1.06196,-43.0448 -7.05865,-48.96371 -38.64753,-38.14624 -74.21569,-73.48491 -110.31166,-119.11396 -4.61414,-5.83275 -2.06931,-15.32163 3.91,-20.96265 z"
       style="fill:none;stroke:#000000;stroke-width:1.03176868px;stroke-linecap:butt;stroke-linejoin:miter;stroke-opacity:1" />
  </g>
</svg>
