<?xml version="1.0" encoding="UTF-8" standalone="no"?>
<!-- Created with Inkscape (http://www.inkscape.org/) -->

<svg
   xmlns:dc="http://purl.org/dc/elements/1.1/"
   xmlns:cc="http://creativecommons.org/ns#"
   xmlns:rdf="http://www.w3.org/1999/02/22-rdf-syntax-ns#"
   xmlns:svg="http://www.w3.org/2000/svg"
   xmlns="http://www.w3.org/2000/svg"
   xmlns:sodipodi="http://sodipodi.sourceforge.net/DTD/sodipodi-0.dtd"
   xmlns:inkscape="http://www.inkscape.org/namespaces/inkscape"
   width="1000"
   height="1000"
   id="svg2"
   version="1.1"
   inkscape:version="0.48.4 r9939"
   sodipodi:docname="7-zayin.svg">
  <defs
     id="defs4" />
  <sodipodi:namedview
     id="base"
     pagecolor="#ffffff"
     bordercolor="#666666"
     borderopacity="1.0"
     inkscape:pageopacity="0.0"
     inkscape:pageshadow="2"
     inkscape:zoom="0.49497475"
     inkscape:cx="-17.934622"
     inkscape:cy="506.88991"
     inkscape:document-units="px"
     inkscape:current-layer="layer1"
     showgrid="true"
     gridtolerance="10"
     guidetolerance="10"
     showguides="true"
     inkscape:guide-bbox="true"
     inkscape:window-width="1680"
     inkscape:window-height="994"
     inkscape:window-x="-4"
     inkscape:window-y="-4"
     inkscape:window-maximized="1">
    <sodipodi:guide
       orientation="0,1"
       position="500,247"
       id="guide3019" />
    <sodipodi:guide
       orientation="0,1"
       position="500,732"
       id="guide3072" />
    <sodipodi:guide
       orientation="0,1"
       position="500,842"
       id="guide3074" />
    <sodipodi:guide
       orientation="0,1"
       position="500,955"
       id="guide3076" />
  </sodipodi:namedview>
  <metadata
     id="metadata7">
    <rdf:RDF>
      <cc:Work
         rdf:about="">
        <dc:format>image/svg+xml</dc:format>
        <dc:type
           rdf:resource="http://purl.org/dc/dcmitype/StillImage" />
        <dc:title />
      </cc:Work>
    </rdf:RDF>
  </metadata>
  <g
     inkscape:label="Layer 1"
     inkscape:groupmode="layer"
     id="layer1"
     transform="translate(0,-52.362183)">
    <path
       sodipodi:nodetypes="ssscccsssssccccsssss"
       inkscape:connector-curvature="0"
       id="path3004-4-1"
       d="m 317.12279,340.00075 c 7.93645,-12.32918 -9.5479,-28.00903 -17.9216,-34.52433 -58.8745,-45.80844 -112.46531,-81.11436 -167.69661,-104.75555 -10.2993,-4.40851 -21.5761,-1.51542 -28.5642,12.82036 l -25.556304,49.15672 c -4.1376,8.97635 -2.2857,20.32814 5.9521,26.15247 L 168.5573,342.5116 c 11.16504,7.0303 17.90059,20.43538 9.10251,33.8318 l -42.71816,65.04493 c -15.62486,23.79124 -12.33047,24.96235 -7.32013,103.89703 l 8.77786,138.28961 c 2.45811,38.72595 2.98406,81.74767 1.70062,116.62963 0.0893,4.09962 2.36242,14.6429 8.29548,14.10399 5.94385,-0.53984 51.51891,-23.24467 59.20336,-37.46605 0.90414,-2.4127 2.53267,-4.93497 3.091,-13.25553 0,0 -5.38452,-43.15456 -6.81699,-66.95003 L 189.3741,489.01397 c -2.75494,-45.76368 8.24551,-101.01085 56.24351,-101.28169 17.36608,-0.098 30.75214,15.57783 39.33887,2.23845 z"
       style="fill:none;stroke:#000000;stroke-width:1.03176868px;stroke-linecap:butt;stroke-linejoin:miter;stroke-opacity:1" />
  </g>
</svg>
