<?xml version="1.0" encoding="UTF-8" standalone="no"?>
<!-- Created with Inkscape (http://www.inkscape.org/) -->

<svg
   xmlns:dc="http://purl.org/dc/elements/1.1/"
   xmlns:cc="http://creativecommons.org/ns#"
   xmlns:rdf="http://www.w3.org/1999/02/22-rdf-syntax-ns#"
   xmlns:svg="http://www.w3.org/2000/svg"
   xmlns="http://www.w3.org/2000/svg"
   xmlns:sodipodi="http://sodipodi.sourceforge.net/DTD/sodipodi-0.dtd"
   xmlns:inkscape="http://www.inkscape.org/namespaces/inkscape"
   width="1000"
   height="1000"
   id="svg2"
   version="1.1"
   inkscape:version="0.48.4 r9939"
   sodipodi:docname="hebrew letter final nun.svg">
  <defs
     id="defs4" />
  <sodipodi:namedview
     id="base"
     pagecolor="#ffffff"
     bordercolor="#666666"
     borderopacity="1.0"
     inkscape:pageopacity="0.0"
     inkscape:pageshadow="2"
     inkscape:zoom="0.6"
     inkscape:cx="-388.26956"
     inkscape:cy="452.97588"
     inkscape:document-units="px"
     inkscape:current-layer="layer1"
     showgrid="true"
     gridtolerance="10"
     guidetolerance="1"
     showguides="true"
     inkscape:guide-bbox="true"
     inkscape:window-width="1851"
     inkscape:window-height="1053"
     inkscape:window-x="69"
     inkscape:window-y="27"
     inkscape:window-maximized="1">
    <sodipodi:guide
       orientation="0,1"
       position="500,247"
       id="guide3019" />
    <sodipodi:guide
       orientation="1,0"
       position="100,500"
       id="guide2991" />
    <sodipodi:guide
       orientation="1,0"
       position="180,500"
       id="guide2993" />
    <sodipodi:guide
       orientation="0,1"
       position="500,841"
       id="guide2994" />
    <sodipodi:guide
       orientation="0,1"
       position="500,950"
       id="guide2996" />
    <sodipodi:guide
       orientation="0,1"
       position="500,732"
       id="guide3826" />
  </sodipodi:namedview>
  <metadata
     id="metadata7">
    <rdf:RDF>
      <cc:Work
         rdf:about="">
        <dc:format>image/svg+xml</dc:format>
        <dc:type
           rdf:resource="http://purl.org/dc/dcmitype/StillImage" />
        <dc:title />
      </cc:Work>
    </rdf:RDF>
  </metadata>
  <g
     inkscape:label="Layer 1"
     inkscape:groupmode="layer"
     id="layer1"
     transform="translate(0,-52.362183)">
    <path
       sodipodi:nodetypes="ssscccssssscsccssss"
       inkscape:connector-curvature="0"
       id="path3004-4"
       d="m 319.05995,331.01666 c 8.86005,-11.68313 -8.3211,-27.57575 -16.6948,-34.09105 -58.8745,-45.80843 -102.32174,-73.64964 -157.55303,-97.29083 -10.2993,-4.40851 -21.5761,-1.51542 -28.5642,12.82036 l -25.556302,49.15671 c -4.1376,8.97635 -2.2857,20.32814 5.9521,26.15247 41.412762,22.02588 91.369712,52.00672 128.657682,77.86276 10.84242,7.5183 10.9519,17.7246 7.17813,23.32176 l -44.32932,65.74806 c -9.70071,14.38784 -5.0747,40.45072 -5.28931,109.45287 l -0.98405,316.3872 c -0.12069,38.80368 -1.30165,81.39053 -2.58509,116.27251 0.0893,4.09962 2.36242,14.64282 8.29548,14.10392 5.94385,-0.5399 52.23319,-22.53034 59.91764,-36.75172 0.90414,-2.4127 2.53267,-4.93497 3.091,-13.25553 0,0 -2.45925,-43.48158 -3.24556,-67.30717 l -12.6178,-382.32774 c -1.41222,-42.79134 3.73143,-48.75583 14.20857,-68.69157 20.06534,-38.18 41.99612,-74.47951 70.11886,-111.56301 z"
       style="fill:none;stroke:#000000;stroke-width:1.03176868px;stroke-linecap:butt;stroke-linejoin:miter;stroke-opacity:1" />
  </g>
</svg>
