<?xml version="1.0" encoding="UTF-8" standalone="no"?>
<!-- Created with Inkscape (http://www.inkscape.org/) -->

<svg
   xmlns:dc="http://purl.org/dc/elements/1.1/"
   xmlns:cc="http://creativecommons.org/ns#"
   xmlns:rdf="http://www.w3.org/1999/02/22-rdf-syntax-ns#"
   xmlns:svg="http://www.w3.org/2000/svg"
   xmlns="http://www.w3.org/2000/svg"
   xmlns:sodipodi="http://sodipodi.sourceforge.net/DTD/sodipodi-0.dtd"
   xmlns:inkscape="http://www.inkscape.org/namespaces/inkscape"
   width="1000"
   height="1000"
   id="svg2"
   version="1.1"
   inkscape:version="0.48.4 r9939"
   sodipodi:docname="hebrew letter shin.svg">
  <defs
     id="defs4" />
  <sodipodi:namedview
     id="base"
     pagecolor="#ffffff"
     bordercolor="#666666"
     borderopacity="1.0"
     inkscape:pageopacity="0.0"
     inkscape:pageshadow="2"
     inkscape:zoom="0.7"
     inkscape:cx="997.96372"
     inkscape:cy="464.36903"
     inkscape:document-units="px"
     inkscape:current-layer="layer1"
     showgrid="true"
     gridtolerance="10"
     guidetolerance="10"
     showguides="true"
     inkscape:guide-bbox="true"
     inkscape:window-width="1851"
     inkscape:window-height="1053"
     inkscape:window-x="69"
     inkscape:window-y="27"
     inkscape:window-maximized="1">
    <sodipodi:guide
       orientation="0,1"
       position="500,247"
       id="guide3019" />
    <sodipodi:guide
       orientation="0,1"
       position="500,732"
       id="guide3072" />
    <sodipodi:guide
       orientation="0,1"
       position="500,842"
       id="guide3074" />
    <sodipodi:guide
       orientation="0,1"
       position="500,955"
       id="guide3076" />
    <sodipodi:guide
       orientation="1,0"
       position="100,500"
       id="guide3867" />
    <sodipodi:guide
       orientation="1,0"
       position="180,500"
       id="guide3869" />
  </sodipodi:namedview>
  <metadata
     id="metadata7">
    <rdf:RDF>
      <cc:Work
         rdf:about="">
        <dc:format>image/svg+xml</dc:format>
        <dc:type
           rdf:resource="http://purl.org/dc/dcmitype/StillImage" />
        <dc:title />
      </cc:Work>
    </rdf:RDF>
  </metadata>
  <g
     inkscape:label="Layer 1"
     inkscape:groupmode="layer"
     id="layer1"
     transform="translate(0,-52.362183)">
    <g
       id="g3231"
       transform="translate(-18,0)">
      <path
         style="fill:none;stroke:#000000;stroke-width:1.03176868px;stroke-linecap:butt;stroke-linejoin:miter;stroke-opacity:1"
         d="m 534.24291,683.43412 c -63.23358,38.06324 -245.6357,71.2803 -283.8484,2.0942 -35.2318,-63.789 -51.6292,-144.25784 -60.0199,-221.89904 -7.6326,-70.6263 22.3705,-107.3186 37.2797,-104.9828 19.2968,3.0232 24.7456,19.27566 35.8542,1.96691 l 33.9341,-52.8742 c 7.9196,-12.33991 -10.3395,-27.10273 -17.9216,-34.5243 -20.7413,-20.30204 -79.1211,-55.98427 -111.8765,-70.02902 -10.2965,-4.41492 -21.2076,-1.32979 -28.5642,12.8204 l -25.5563,49.1567 c -4.5593,8.76968 -2.6225,20.83648 5.9521,26.1525 l 39.7581,24.64891 c 11.2138,6.95224 14.9881,18.82991 9.403,32.4068 l -26.0346,63.2882 c -12.8066,31.13194 -15.5486,37.72661 -6.6122,103.5653 11.2349,82.77248 38.7114,178.73044 75.3821,250.48634 48.5373,94.976 290.1366,24.4038 356.3859,-10.996 92.6145,-49.488 125.40573,-147.72143 142.38507,-378.15042 6.51064,-88.35679 62.63781,-91.94367 21.47867,-125.08353 -16.70058,-13.44671 -43.10259,-29.59476 -78.16114,-46.81487 -14.5911,-7.16688 -26.12632,-4.8273 -33.72588,9.66903 l -29.07179,55.45507 c -5.09171,9.71255 -1.43715,19.15192 6.97734,24.14566 41.31228,24.51753 57.52763,35.37009 40.29085,168.36195 -16.55539,127.73455 -55.08925,191.88198 -103.68862,221.13621 z"
         id="path3004-4-1-5-8-9"
         inkscape:connector-curvature="0"
         sodipodi:nodetypes="sssssssssssssssssssssssss" />
      <path
         style="fill:none;stroke:#000000;stroke-width:1.03176868px;stroke-linecap:butt;stroke-linejoin:miter;stroke-opacity:1"
         d="m 330.88988,615.73858 c -1.39221,3.85708 -1.32991,12.53176 3.53007,15.9774 11.79882,8.36516 57.29204,7.1025 69.10065,-5.57389 1.75621,-1.88527 3.93394,-3.91054 7.03664,-11.65113 1.68805,-4.21133 10.32739,-52.97629 16.95897,-75.87386 l 20.71838,-71.5366 c 20.06588,-69.28363 33.29805,-129.97037 70.44903,-172.78446 12.30076,-14.17583 -5.1285,-33.48536 -12.53536,-41.08181 -18.18046,-18.64587 -50.9167,-39.01453 -83.30641,-53.33487 -10.24637,-4.53016 -21.20904,-1.30684 -28.55029,12.85134 -8.50098,16.39481 -17.00195,32.78961 -25.50293,49.18442 -4.54979,8.77463 -0.53817,18.44592 5.98048,26.146 38.55579,45.54358 12.22815,153.75037 -2.90914,208.72012 -11.35328,41.22845 -27.80266,82.47745 -40.97009,118.95734 z"
         id="path3004-4"
         inkscape:connector-curvature="0"
         sodipodi:nodetypes="ssssssssssssss" />
    </g>
  </g>
</svg>
