<?xml version="1.0" encoding="UTF-8" standalone="no"?>
<!-- Created with Inkscape (http://www.inkscape.org/) -->

<svg
   xmlns:dc="http://purl.org/dc/elements/1.1/"
   xmlns:cc="http://creativecommons.org/ns#"
   xmlns:rdf="http://www.w3.org/1999/02/22-rdf-syntax-ns#"
   xmlns:svg="http://www.w3.org/2000/svg"
   xmlns="http://www.w3.org/2000/svg"
   xmlns:sodipodi="http://sodipodi.sourceforge.net/DTD/sodipodi-0.dtd"
   xmlns:inkscape="http://www.inkscape.org/namespaces/inkscape"
   width="1000"
   height="1000"
   id="svg2"
   version="1.1"
   inkscape:version="0.48.4 r9939"
   sodipodi:docname="60-samekh.svg">
  <defs
     id="defs4" />
  <sodipodi:namedview
     id="base"
     pagecolor="#ffffff"
     bordercolor="#666666"
     borderopacity="1.0"
     inkscape:pageopacity="0.0"
     inkscape:pageshadow="2"
     inkscape:zoom="0.175"
     inkscape:cx="-816.44948"
     inkscape:cy="534.7917"
     inkscape:document-units="px"
     inkscape:current-layer="layer1"
     showgrid="true"
     gridtolerance="10"
     guidetolerance="10"
     showguides="true"
     inkscape:guide-bbox="true"
     inkscape:window-width="1680"
     inkscape:window-height="988"
     inkscape:window-x="-8"
     inkscape:window-y="-8"
     inkscape:window-maximized="1">
    <sodipodi:guide
       orientation="0,1"
       position="500,247"
       id="guide3019" />
    <sodipodi:guide
       orientation="0,1"
       position="500,732"
       id="guide3072" />
    <sodipodi:guide
       orientation="0,1"
       position="500,842"
       id="guide3074" />
    <sodipodi:guide
       orientation="0,1"
       position="500,955"
       id="guide3076" />
    <sodipodi:guide
       orientation="1,0"
       position="100,500"
       id="guide3867" />
    <sodipodi:guide
       orientation="1,0"
       position="180,500"
       id="guide3869" />
  </sodipodi:namedview>
  <metadata
     id="metadata7">
    <rdf:RDF>
      <cc:Work
         rdf:about="">
        <dc:format>image/svg+xml</dc:format>
        <dc:type
           rdf:resource="http://purl.org/dc/dcmitype/StillImage" />
        <dc:title />
      </cc:Work>
    </rdf:RDF>
  </metadata>
  <g
     inkscape:label="Layer 1"
     inkscape:groupmode="layer"
     id="layer1"
     transform="translate(0,-52.362183)">
    <path
       sodipodi:nodetypes="ssssssssssssssssssss"
       inkscape:connector-curvature="0"
       id="path3004-4-1-5"
       d="m 1873.0784,355.1081 -40.9325,65.0449 c -15.1598,24.0901 -20.8396,26.1971 -6.0574,103.897 15.1361,79.5602 38.0892,164.70479 65.3821,237.0734 43.9197,116.45545 264.1362,5.64581 351.2038,-38.4212 52.0732,-26.4417 58.4306,-21.0632 56.568,-201.5038 -0.3408,-33.014 -2.1344,-104.0752 -2.1344,-104.0752 -2.3186,-107.5665 33.2331,-121.6817 -75.9455,-158.2581 -92.2551,-30.90672 -229.7073,-43.20582 -335.9366,-43.92379 -56.8454,-0.3842 -68.3411,-0.34444 -71.1153,20.26406 -2.8475,21.15333 -5.6952,42.30673 -8.5429,63.46003 -1.271,9.4412 6.9086,13.174 24.6572,16.3303 33.0652,5.8801 54.8865,20.991 42.8535,40.1124 z m 231.3084,-20.3978 c 119.7968,22.1845 127.9078,47.14817 130.1057,173.4569 1.6041,92.18825 6.1825,152.74172 -29.5005,166.93202 -64.0636,25.47658 -236.5901,94.34654 -264.9791,21.80088 -28.1898,-72.03663 -47.3875,-147.493 -60.095,-224.7772 -8.9228,-54.2659 40.5435,-131.1033 89.2438,-140.491 32.8244,-6.3275 89.5757,-5.3752 135.2251,3.0784 z"
       style="fill:none;stroke:#000000;stroke-width:1.03176868px;stroke-linecap:butt;stroke-linejoin:miter;stroke-opacity:1" />
    <path
       sodipodi:nodetypes="sssssssssssssssssssssss"
       inkscape:connector-curvature="0"
       id="path3004-4-1-5-7"
       d="m 1231.3619,350.69496 -40.9325,65.0449 c -15.1598,24.0902 -27.1825,27.6768 -6.0574,103.897 l 68.1916,246.0386 c 6.0604,21.8665 70.6327,35.1517 109.2127,43.7487 9.015,2.009 20.0686,3.6884 31.1923,-1.1255 l 207.9893,-90.0095 c 53.5982,-23.1952 56.6449,-7.1346 56.568,-201.5039 -0.013,-33.0157 -2.1345,-104.0751 -2.1345,-104.0751 -2.3186,-107.56649 33.2331,-121.68179 -75.9455,-158.258 -92.2551,-30.9069 -229.7072,-43.206 -335.9365,-43.9239 -56.8454,-0.3842 -68.3412,-0.3444 -71.1154,20.2641 -2.8475,21.1534 -5.6952,42.30671 -8.5429,63.46001 -1.271,9.4411 6.9086,13.174 24.6572,16.33019 33.0652,5.8802 54.8866,20.991 42.8536,40.1124 z m 231.3084,-20.3978 c 119.7968,22.1846 129.0955,47.1331 130.1057,173.4569 0.1737,21.7162 6.4967,148.8461 -23.3133,164.3436 -37.1053,19.2901 -99.2459,43.295 -174.4582,54.7805 -27.5444,4.2063 -88.3734,0.7835 -96.708,-30.3911 l -60.0951,-224.7772 c -14.2042,-53.1286 40.5436,-131.1033 89.2438,-140.4911 32.8244,-6.3274 89.5757,-5.3752 135.2251,3.0784 z"
       style="fill:none;fill-opacity:1;stroke:#000000;stroke-width:1.03176868000000010px;stroke-linecap:butt;stroke-linejoin:miter;stroke-opacity:1" />
    <path
       sodipodi:nodetypes="ssssssssssssssssss"
       inkscape:connector-curvature="0"
       id="path3004-4-1-5-8"
       d="m 161.36481,354.09668 -40.9325,65.0449 c -15.1598,24.0901 -23.144699,36.21978 -16.664,103.897 8.34609,87.15727 32.23515,184.17458 85.9887,244.93054 70.67577,79.88262 250.07649,24.85749 316.08125,-10.99606 81.90026,-44.48792 82.50331,-112.48715 89.65768,-340.86128 3.63783,-116.12319 38.13157,-115.96741 -86.04703,-158.2581 -92.1,-31.36589 -229.7073,-43.20582 -335.9366,-43.92379 -56.8454,-0.3842 -68.3411,-0.34444 -71.1153,20.26406 -2.847496,21.15333 -5.695196,42.30673 -8.542896,63.46003 -1.271,9.4412 6.908596,13.174 24.657196,16.3303 33.0652,5.8801 54.8865,20.991 42.8535,40.1124 z m 231.3084,-20.3978 c 120.08094,20.59108 146.19458,61.41317 140.20723,187.59904 -4.8263,101.7162 -31.6563,147.26187 -60.55769,164.39425 -63.48904,37.63552 -196.76308,62.62627 -247.58436,2.09425 -42.20781,-50.27272 -58.43557,-125.26654 -56.53408,-216.67494 2.81688,-135.41295 106.26408,-157.68197 224.4689,-137.4126 z"
       style="fill:none;stroke:#000000;stroke-width:1.03176868px;stroke-linecap:butt;stroke-linejoin:miter;stroke-opacity:1" />
    <path
       sodipodi:nodetypes="ssssssssssssssssss"
       inkscape:connector-curvature="0"
       id="path3004-4-1-5-8-3"
       d="m -1069.6611,297.40762 -40.9325,65.0449 c -15.1598,24.0901 -16.004,25.43139 -6.0574,103.897 10.5048,82.8683 38.7114,173.1746 75.3821,244.93054 48.53731,94.97595 250.07654,24.85749 316.0813,-10.99606 81.90026,-44.48792 82.50331,-112.48715 89.65768,-340.86128 3.63783,-116.12319 38.13157,-115.96741 -86.04703,-158.2581 -92.1,-31.36589 -229.7073,-43.20582 -335.93665,-43.92379 -56.8454,-0.3842 -68.3411,-0.34444 -71.1153,20.26406 -2.8474,21.15333 -5.6951,42.30673 -8.5428,63.46003 -1.271,9.4412 6.9085,13.174 24.6571,16.3303 33.0652,5.8801 54.8865,20.991 42.8535,40.1124 z m 231.30845,-20.3978 c 119.87409,21.76297 146.19458,61.41317 140.20723,187.59904 -4.8263,101.7162 -31.6563,147.26187 -60.55769,164.39425 -63.48904,37.63552 -205.33105,71.28035 -243.54379,2.09425 -35.2317,-63.789 -56.1014,-138.34828 -60.5747,-216.67494 -7.347,-128.64725 118.38596,-156.67182 224.46895,-137.4126 z"
       style="fill:none;stroke:#000000;stroke-width:1.03176868px;stroke-linecap:butt;stroke-linejoin:miter;stroke-opacity:1" />
  </g>
</svg>
