<?xml version="1.0" encoding="UTF-8" standalone="no"?>
<!-- Created with Inkscape (http://www.inkscape.org/) -->

<svg
   xmlns:dc="http://purl.org/dc/elements/1.1/"
   xmlns:cc="http://creativecommons.org/ns#"
   xmlns:rdf="http://www.w3.org/1999/02/22-rdf-syntax-ns#"
   xmlns:svg="http://www.w3.org/2000/svg"
   xmlns="http://www.w3.org/2000/svg"
   xmlns:sodipodi="http://sodipodi.sourceforge.net/DTD/sodipodi-0.dtd"
   xmlns:inkscape="http://www.inkscape.org/namespaces/inkscape"
   width="1000"
   height="1000"
   id="svg2"
   version="1.1"
   inkscape:version="0.48.4 r9939"
   sodipodi:docname="hebrew letter het.svg">
  <defs
     id="defs4" />
  <sodipodi:namedview
     id="base"
     pagecolor="#ffffff"
     bordercolor="#666666"
     borderopacity="1.0"
     inkscape:pageopacity="0.0"
     inkscape:pageshadow="2"
     inkscape:zoom="0.6"
     inkscape:cx="244.21127"
     inkscape:cy="581.28867"
     inkscape:document-units="px"
     inkscape:current-layer="g5885"
     showgrid="true"
     gridtolerance="10"
     guidetolerance="1"
     showguides="true"
     inkscape:guide-bbox="true"
     inkscape:window-width="1851"
     inkscape:window-height="1053"
     inkscape:window-x="69"
     inkscape:window-y="27"
     inkscape:window-maximized="1">
    <sodipodi:guide
       orientation="0,1"
       position="500,247"
       id="guide3019" />
    <sodipodi:guide
       orientation="1,0"
       position="100,500"
       id="guide2991" />
    <sodipodi:guide
       orientation="1,0"
       position="180,500"
       id="guide2993" />
    <sodipodi:guide
       orientation="0,1"
       position="1270,728.33333"
       id="guide2994" />
    <sodipodi:guide
       orientation="0,1"
       position="500,950"
       id="guide2996" />
    <sodipodi:guide
       orientation="0,1"
       position="500,841"
       id="guide4483" />
  </sodipodi:namedview>
  <metadata
     id="metadata7">
    <rdf:RDF>
      <cc:Work
         rdf:about="">
        <dc:format>image/svg+xml</dc:format>
        <dc:type
           rdf:resource="http://purl.org/dc/dcmitype/StillImage" />
        <dc:title />
      </cc:Work>
    </rdf:RDF>
  </metadata>
  <g
     inkscape:label="Layer 1"
     inkscape:groupmode="layer"
     id="layer1"
     transform="translate(0,-52.362183)">
    <g
       id="g5885">
      <path
         sodipodi:nodetypes="ssssssssssssssssssssssss"
         inkscape:connector-curvature="0"
         id="path3004-4"
         d="m 191.64846,417.08097 c -3.37822,120.54855 0.66126,241.37637 3.61809,361.64004 0.20497,8.33673 -2.14744,10.92193 -3.3791,13.185 -7.72728,14.19819 -62.96997,35.02728 -68.92417,35.4375 -5.9434,0.40948 -8.20103,-10.18633 -7.9862,-14.2814 1.82869,-34.85762 4.06869,-77.42051 5.73686,-116.1885 4.76746,-110.79504 9.53494,-221.59009 14.30242,-332.38513 1.54717,-35.95584 -48.159928,-37.78931 -45.223037,-54.92149 6.106299,-35.62073 17.710967,-103.69589 18.318897,-106.86219 0.85039,-4.42914 3.08251,-7.00623 6.73228,-6.94489 l 12.64961,0.2126 c 6.20032,0.10421 26.85828,18.40085 40.21653,18.4252 64.38194,0.11738 190.52302,1.29637 238.53448,2.44488 237.86255,5.69007 207.1205,34.85018 209.23228,209.15747 1.12597,92.93809 2.25193,185.87618 3.37792,278.81427 0.28889,23.84471 2.17698,62.84171 1.77165,67.35827 -0.74409,8.29134 -2.12715,10.90391 -3.36614,13.1811 -7.73596,14.21828 -54.78079,35.02446 -60.73228,35.43307 -5.91865,0.40635 -8.18906,-10.175 -7.97244,-14.27953 1.83883,-34.8428 5.14795,-77.38578 5.10236,-116.18503 -0.0984,-83.76093 -0.1969,-167.52185 -0.29524,-251.28278 -0.0255,-21.72048 -7.65327,-109.93409 -80.22047,-113.98819 -85.13491,-4.75622 -158.84419,-7.86274 -225.20972,-0.23489 -35.94914,4.13189 -54.52967,29.64245 -56.28458,92.26462 z"
         style="fill:none;stroke:#000000;stroke-width:1.03176868px;stroke-linecap:butt;stroke-linejoin:miter;stroke-opacity:1" />
    </g>
  </g>
</svg>
