<?xml version="1.0" encoding="UTF-8" standalone="no"?>
<!-- Created with Inkscape (http://www.inkscape.org/) -->

<svg
   xmlns:dc="http://purl.org/dc/elements/1.1/"
   xmlns:cc="http://creativecommons.org/ns#"
   xmlns:rdf="http://www.w3.org/1999/02/22-rdf-syntax-ns#"
   xmlns:svg="http://www.w3.org/2000/svg"
   xmlns="http://www.w3.org/2000/svg"
   xmlns:sodipodi="http://sodipodi.sourceforge.net/DTD/sodipodi-0.dtd"
   xmlns:inkscape="http://www.inkscape.org/namespaces/inkscape"
   width="1000"
   height="1000"
   id="svg2"
   version="1.1"
   inkscape:version="0.48.4 r9939"
   sodipodi:docname="hebrew letter samekh.svg">
  <defs
     id="defs4" />
  <sodipodi:namedview
     id="base"
     pagecolor="#ffffff"
     bordercolor="#666666"
     borderopacity="1.0"
     inkscape:pageopacity="0.0"
     inkscape:pageshadow="2"
     inkscape:zoom="0.7"
     inkscape:cx="189.98225"
     inkscape:cy="516.45653"
     inkscape:document-units="px"
     inkscape:current-layer="layer1"
     showgrid="true"
     gridtolerance="10"
     guidetolerance="10"
     showguides="true"
     inkscape:guide-bbox="true"
     inkscape:window-width="1851"
     inkscape:window-height="1053"
     inkscape:window-x="69"
     inkscape:window-y="27"
     inkscape:window-maximized="1">
    <sodipodi:guide
       orientation="0,1"
       position="500,247"
       id="guide3019" />
    <sodipodi:guide
       orientation="0,1"
       position="500,732"
       id="guide3072" />
    <sodipodi:guide
       orientation="0,1"
       position="500,842"
       id="guide3074" />
    <sodipodi:guide
       orientation="0,1"
       position="500,955"
       id="guide3076" />
    <sodipodi:guide
       orientation="1,0"
       position="100,500"
       id="guide3867" />
    <sodipodi:guide
       orientation="1,0"
       position="180,500"
       id="guide3869" />
  </sodipodi:namedview>
  <metadata
     id="metadata7">
    <rdf:RDF>
      <cc:Work
         rdf:about="">
        <dc:format>image/svg+xml</dc:format>
        <dc:type
           rdf:resource="http://purl.org/dc/dcmitype/StillImage" />
        <dc:title />
      </cc:Work>
    </rdf:RDF>
  </metadata>
  <g
     inkscape:label="Layer 1"
     inkscape:groupmode="layer"
     id="layer1"
     transform="translate(0,-52.362183)">
    <path
       sodipodi:nodetypes="ssssssssssssssssss"
       inkscape:connector-curvature="0"
       id="path3004-4-1-5-8"
       d="m 161.36481,354.09668 -40.9325,65.0449 c -15.1598,24.0901 -23.144699,36.21978 -16.664,103.897 8.34609,87.15727 32.23515,184.17458 85.9887,244.93054 70.67577,79.88262 250.07649,24.85749 316.08125,-10.99606 81.90026,-44.48792 82.50331,-112.48715 89.65768,-340.86128 3.63783,-116.12319 40.13157,-119.96741 -84.04703,-162.2581 -92.1,-31.36589 -229.7073,-43.20582 -335.9366,-43.92379 -56.8454,-0.3842 -67.90445,-0.28094 -71.1153,20.26406 l -10.542896,67.46003 c -1.47096,9.41212 6.908596,13.174 24.657196,16.3303 33.0652,5.8801 54.8865,20.991 42.8535,40.1124 z m 231.3084,-20.3978 c 120.08094,20.59108 146.19458,61.41317 140.20723,187.59904 -4.8263,101.7162 -31.6563,147.26187 -60.55769,164.39425 -63.48904,37.63552 -196.76308,62.62627 -247.58436,2.09425 -42.20781,-50.27272 -58.43557,-125.26654 -56.53408,-216.67494 2.81688,-135.41295 106.26408,-157.68197 224.4689,-137.4126 z"
       style="fill:none;stroke:#000000;stroke-width:1.03176868px;stroke-linecap:butt;stroke-linejoin:miter;stroke-opacity:1" />
  </g>
</svg>
