<?xml version="1.0" encoding="UTF-8" standalone="no"?>
<!-- Created with Inkscape (http://www.inkscape.org/) -->

<svg
   xmlns:dc="http://purl.org/dc/elements/1.1/"
   xmlns:cc="http://creativecommons.org/ns#"
   xmlns:rdf="http://www.w3.org/1999/02/22-rdf-syntax-ns#"
   xmlns:svg="http://www.w3.org/2000/svg"
   xmlns="http://www.w3.org/2000/svg"
   xmlns:sodipodi="http://sodipodi.sourceforge.net/DTD/sodipodi-0.dtd"
   xmlns:inkscape="http://www.inkscape.org/namespaces/inkscape"
   width="1000"
   height="1000"
   id="svg2"
   version="1.1"
   inkscape:version="0.48.4 r9939"
   sodipodi:docname="hebrew letter tsadi.svg">
  <defs
     id="defs4" />
  <sodipodi:namedview
     id="base"
     pagecolor="#ffffff"
     bordercolor="#666666"
     borderopacity="1.0"
     inkscape:pageopacity="0.0"
     inkscape:pageshadow="2"
     inkscape:zoom="0.70000001"
     inkscape:cx="566.68953"
     inkscape:cy="673.33078"
     inkscape:document-units="px"
     inkscape:current-layer="layer1"
     showgrid="true"
     gridtolerance="10"
     guidetolerance="10"
     showguides="true"
     inkscape:guide-bbox="true"
     inkscape:window-width="1851"
     inkscape:window-height="1053"
     inkscape:window-x="69"
     inkscape:window-y="27"
     inkscape:window-maximized="1">
    <sodipodi:guide
       orientation="0,1"
       position="500,247"
       id="guide3019" />
    <sodipodi:guide
       orientation="0,1"
       position="500,732"
       id="guide3072" />
    <sodipodi:guide
       orientation="0,1"
       position="500,842"
       id="guide3074" />
    <sodipodi:guide
       orientation="0,1"
       position="500,955"
       id="guide3076" />
  </sodipodi:namedview>
  <metadata
     id="metadata7">
    <rdf:RDF>
      <cc:Work
         rdf:about="">
        <dc:format>image/svg+xml</dc:format>
        <dc:type
           rdf:resource="http://purl.org/dc/dcmitype/StillImage" />
        <dc:title />
      </cc:Work>
    </rdf:RDF>
  </metadata>
  <g
     inkscape:label="Layer 1"
     inkscape:groupmode="layer"
     id="layer1"
     transform="translate(0,-52.362183)">
    <path
       style="fill:none;stroke:#000000;stroke-width:1.03771424px;stroke-linecap:butt;stroke-linejoin:miter;stroke-opacity:1"
       d="m 449.9768,705.34586 c -97.6191,2.11855 -194.3395,0.82997 -293.312,-1.03226 -14.4723,-0.27231 -23.1807,2.44421 -25.1875,14.5625 0,0 -8.6858,52.45046 -13.0287,78.6757 -2.7338,16.5086 25.8931,13.4795 66.9393,11.7805 58.7769,-2.4329 136.2575,-5.5847 206.1049,-6.779 60.3812,-1.0324 85.7316,-0.9247 143.7099,1.3891 13.5678,0.54146 20.0316,-9.92216 24.813,-20.91429 3.7556,-8.63373 18.753,-53.22597 15.4377,-69.04707 -0.7707,-3.67808 -2.4194,-9.53014 -8.604,-15.12419 -10.3301,-9.34379 -23.1394,-18.94676 -42.0038,-34.24344 l -80.0479,-64.90874 c -17.0599,-13.83343 -27.4134,-27.42959 -16.6424,-37.05948 79.9033,-71.43822 119.3764,-111.54246 176.879,-210.68904 7.3563,-12.68386 -0.3283,-28.04861 -7.459,-35.90485 -50.1354,-55.23657 -75.6415,-79.56878 -125.9937,-112.34177 -9.3895,-6.11136 -20.6643,-4.95129 -30.3412,7.72574 -11.2056,14.67963 -22.4112,29.35922 -33.6167,44.0389 -5.9973,7.85671 -6.2482,20.17595 1.3736,26.78607 29.5674,25.64277 59.1348,51.28553 88.7022,76.9283 35.9265,31.15776 -7.8863,78.14438 -64.849,131.87486 -43.5763,41.10366 -70.0729,43.02876 -125.901,-2.5763 -35.5329,-29.02629 -55.6016,-60.8634 -39.1114,-103.88719 10.7752,-28.1134 28.80403,-72.32826 54.324,-118.76519 7.0618,-12.85007 -14.59917,-23.18553 -26.55463,-27.76984 C 228.79742,212.4466 191.593,203.76739 131.73465,198.63297 c -11.16223,-0.95744 -20.54163,6.01696 -23.09125,21.76014 -2.95228,18.23018 -5.90486,36.46035 -8.857238,54.69052 -1.580064,9.75696 3.947938,21.03979 13.850868,22.96809 46.04105,8.96519 71.30736,13.99365 114.82134,26.85648 12.65284,3.74019 9.95589,15.42899 5.81403,27.06486 l -14.4026,40.46167 c -20.27128,56.94873 -32.4175,80.4828 28.1408,129.63837 l 205.4716,166.78266 c 10.4252,8.46225 16.7618,16.05026 -3.5054,16.4901 z"
       id="path3004-1-1-0-9"
       inkscape:connector-curvature="0"
       sodipodi:nodetypes="sssssssssssssssssssssssssssssssssss" />
  </g>
</svg>
