<?xml version="1.0" encoding="UTF-8" standalone="no"?>
<!-- Created with Inkscape (http://www.inkscape.org/) -->

<svg
   xmlns:dc="http://purl.org/dc/elements/1.1/"
   xmlns:cc="http://creativecommons.org/ns#"
   xmlns:rdf="http://www.w3.org/1999/02/22-rdf-syntax-ns#"
   xmlns:svg="http://www.w3.org/2000/svg"
   xmlns="http://www.w3.org/2000/svg"
   xmlns:sodipodi="http://sodipodi.sourceforge.net/DTD/sodipodi-0.dtd"
   xmlns:inkscape="http://www.inkscape.org/namespaces/inkscape"
   width="1000"
   height="1000"
   id="svg2"
   version="1.1"
   inkscape:version="0.48.4 r9939"
   sodipodi:docname="hebrew letter final tsadi.svg">
  <defs
     id="defs4" />
  <sodipodi:namedview
     id="base"
     pagecolor="#ffffff"
     bordercolor="#666666"
     borderopacity="1.0"
     inkscape:pageopacity="0.0"
     inkscape:pageshadow="2"
     inkscape:zoom="0.6"
     inkscape:cx="-214.26933"
     inkscape:cy="393.3657"
     inkscape:document-units="px"
     inkscape:current-layer="layer1"
     showgrid="true"
     gridtolerance="10"
     guidetolerance="1"
     showguides="true"
     inkscape:guide-bbox="true"
     inkscape:window-width="1851"
     inkscape:window-height="1053"
     inkscape:window-x="69"
     inkscape:window-y="27"
     inkscape:window-maximized="1">
    <sodipodi:guide
       orientation="0,1"
       position="500,247"
       id="guide3019" />
    <sodipodi:guide
       orientation="1,0"
       position="100,500"
       id="guide2991" />
    <sodipodi:guide
       orientation="1,0"
       position="180,500"
       id="guide2993" />
    <sodipodi:guide
       orientation="0,1"
       position="500,841"
       id="guide2994" />
    <sodipodi:guide
       orientation="0,1"
       position="500,950"
       id="guide2996" />
    <sodipodi:guide
       orientation="0,1"
       position="500,732"
       id="guide3826" />
  </sodipodi:namedview>
  <metadata
     id="metadata7">
    <rdf:RDF>
      <cc:Work
         rdf:about="">
        <dc:format>image/svg+xml</dc:format>
        <dc:type
           rdf:resource="http://purl.org/dc/dcmitype/StillImage" />
        <dc:title />
      </cc:Work>
    </rdf:RDF>
  </metadata>
  <g
     inkscape:label="Layer 1"
     inkscape:groupmode="layer"
     id="layer1"
     transform="translate(0,-52.362183)">
    <path
       sodipodi:nodetypes="ssssssssssssssscccssssscsccsss"
       inkscape:connector-curvature="0"
       id="path3004-8"
       d="m 267.76121,683.11506 c 126.94104,-116.86978 237.40804,-232.8463 300.90728,-327.80455 8.15064,-12.18865 2.2597,-27.95937 -4.11617,-36.4397 -44.82805,-59.62447 -67.98173,-86.20507 -115.09723,-123.48167 -8.78588,-6.95118 -20.11961,-6.8357 -30.92426,4.89489 l -37.5346,40.75126 c -6.69626,7.27012 -8.08207,19.51386 -1.10235,26.79861 l 81.23023,84.78024 c 40.181,41.93704 -56.379,139.66358 -190.89853,268.36262 -12.81254,12.25816 -23.7089,9.14682 -25.16918,-8.59178 l -8.32388,-101.11374 c -3.5127,-42.67029 -6.09512,-44.96718 5.66436,-71.93248 17.52794,-40.19276 39.6391,-76.5419 67.76184,-113.6254 8.86005,-11.68313 -8.3211,-27.57575 -16.6948,-34.09105 -58.8745,-45.80843 -91.42051,-68.34634 -146.6518,-91.98753 -10.2993,-4.40851 -21.5761,-1.51542 -28.5642,12.82036 l -25.556302,49.15671 c -4.1376,8.97635 -2.2857,20.32814 5.9521,26.15247 41.412762,22.02588 80.468482,46.70342 117.756452,72.55946 10.84242,7.5183 10.48579,17.43712 7.17813,23.32176 l -37.59476,66.88469 c -8.50253,15.12682 -5.01426,44.72688 -1.12264,113.61954 l 17.87213,316.3872 c 2.18847,38.74211 2.23388,81.39053 0.95044,116.27251 0.0893,4.09962 2.36242,14.64282 8.29548,14.10392 5.94385,-0.5399 52.23319,-22.53034 59.91764,-36.75172 0.90414,-2.4127 2.53267,-4.93497 3.091,-13.25553 0,0 -4.82527,-43.54898 -6.78109,-67.30717 L 254.03882,721.49821 c -1.33525,-16.21978 2.1371,-27.71701 13.72239,-38.38315 z"
       style="fill:none;stroke:#000000;stroke-width:1.03176868px;stroke-linecap:butt;stroke-linejoin:miter;stroke-opacity:1" />
  </g>
</svg>
