<?xml version="1.0" encoding="UTF-8" standalone="no"?>
<!-- Created with Inkscape (http://www.inkscape.org/) -->

<svg
   xmlns:dc="http://purl.org/dc/elements/1.1/"
   xmlns:cc="http://creativecommons.org/ns#"
   xmlns:rdf="http://www.w3.org/1999/02/22-rdf-syntax-ns#"
   xmlns:svg="http://www.w3.org/2000/svg"
   xmlns="http://www.w3.org/2000/svg"
   xmlns:sodipodi="http://sodipodi.sourceforge.net/DTD/sodipodi-0.dtd"
   xmlns:inkscape="http://www.inkscape.org/namespaces/inkscape"
   width="1000"
   height="1000"
   id="svg2"
   version="1.1"
   inkscape:version="0.48.4 r9939"
   sodipodi:docname="70-ayin.svg">
  <defs
     id="defs4" />
  <sodipodi:namedview
     id="base"
     pagecolor="#ffffff"
     bordercolor="#666666"
     borderopacity="1.0"
     inkscape:pageopacity="0.0"
     inkscape:pageshadow="2"
     inkscape:zoom="0.7"
     inkscape:cx="225.91505"
     inkscape:cy="688.24441"
     inkscape:document-units="px"
     inkscape:current-layer="layer1"
     showgrid="true"
     gridtolerance="10"
     guidetolerance="10"
     showguides="true"
     inkscape:guide-bbox="true"
     inkscape:window-width="1680"
     inkscape:window-height="988"
     inkscape:window-x="-8"
     inkscape:window-y="-8"
     inkscape:window-maximized="1">
    <sodipodi:guide
       orientation="0,1"
       position="500,247"
       id="guide3019" />
    <sodipodi:guide
       orientation="0,1"
       position="500,732"
       id="guide3072" />
    <sodipodi:guide
       orientation="0,1"
       position="500,842"
       id="guide3074" />
    <sodipodi:guide
       orientation="0,1"
       position="500,955"
       id="guide3076" />
    <sodipodi:guide
       orientation="1,0"
       position="100,500"
       id="guide3867" />
    <sodipodi:guide
       orientation="1,0"
       position="180,500"
       id="guide3869" />
  </sodipodi:namedview>
  <metadata
     id="metadata7">
    <rdf:RDF>
      <cc:Work
         rdf:about="">
        <dc:format>image/svg+xml</dc:format>
        <dc:type
           rdf:resource="http://purl.org/dc/dcmitype/StillImage" />
        <dc:title />
      </cc:Work>
    </rdf:RDF>
  </metadata>
  <g
     inkscape:label="Layer 1"
     inkscape:groupmode="layer"
     id="layer1"
     transform="translate(0,-52.362183)">
    <path
       sodipodi:nodetypes="ssssssssssssssssssssssssssss"
       inkscape:connector-curvature="0"
       id="path3004-4-1-5"
       d="m 2234.4925,508.1672 c 1.6041,92.18825 6.1825,152.74172 -29.5005,166.93202 -64.0636,25.47658 -236.5901,94.34654 -264.9791,21.80088 -28.1898,-72.03663 -46.2516,-147.68837 -60.095,-224.7772 -12.6306,-70.33529 36.968,-107.65029 51.8772,-105.31446 19.2968,3.02325 35.1027,24.98996 46.2113,7.68122 l 33.9341,-52.87419 c 7.9197,-12.33996 -9.5479,-28.009 -17.9216,-34.5243 -58.8745,-45.80839 -91.751,-63.97142 -146.9823,-87.61262 -10.2993,-4.4085 -21.2076,-1.32982 -28.5642,12.8204 l -25.5563,49.15669 c -4.5593,8.76972 -2.8275,21.18227 5.9521,26.1525 l 64.5068,36.51823 c 11.4818,6.50001 17.305,20.0341 9.403,32.40676 l -40.6321,63.61987 c -15.3205,23.9882 -19.8294,30.36398 -6.0574,103.897 14.9089,79.60309 38.0892,164.70479 65.3821,237.0734 43.9197,116.45545 264.1362,5.64581 351.2038,-38.4212 52.0732,-26.4417 62.0101,-21.13567 56.568,-201.5038 l -2.1344,-70.74017 c -3.2448,-107.54254 31.604,-146.77345 -115.148,-186.26328 -25.1389,-6.76469 -45.4991,-2.25894 -53.664,11.99195 l -60.139,104.96592 c -3.5998,6.28313 -2.1673,11.48408 7.4409,16.07578 l 12.544,5.99471 c 8.3588,3.99463 11.3912,-1.42928 17.1748,-10.49611 13.7736,-21.59261 43.6964,-28.42339 68.3684,-19.2719 63.5538,23.57371 58.6095,8.40317 60.8074,134.7119 z"
       style="fill:none;stroke:#000000;stroke-width:1.03176868px;stroke-linecap:butt;stroke-linejoin:miter;stroke-opacity:1" />
    <path
       sodipodi:nodetypes="ssssssssssssssssss"
       inkscape:connector-curvature="0"
       id="path3004-4-1-5-8"
       d="m 1622.7934,1022.6681 -40.9325,65.0449 c -15.1598,24.0901 -16.0041,25.4314 -6.0574,103.897 10.5047,82.8683 38.7114,173.1746 75.3821,244.9305 48.5372,94.976 250.0765,24.8575 316.0812,-10.996 81.9003,-44.4879 82.5033,-112.4872 89.6577,-340.8613 3.6378,-116.12319 38.1316,-115.96741 -86.047,-158.2581 -92.1,-31.36589 -229.7073,-43.20582 -335.9366,-43.92379 -56.8454,-0.3842 -68.3411,-0.34444 -71.1153,20.26406 -2.8475,21.15333 -5.6952,42.30673 -8.5429,63.46003 -1.271,9.4412 6.9086,13.174 24.6572,16.3303 33.0652,5.8801 54.8865,20.991 42.8535,40.1124 z m 231.3084,-20.3978 c 119.8741,21.763 146.1946,61.4132 140.2072,187.599 -4.8263,101.7162 -31.6563,147.2619 -60.5577,164.3943 -63.489,37.6355 -205.331,71.2803 -243.5437,2.0942 -35.2318,-63.789 -56.1015,-138.3482 -60.5747,-216.6749 -7.3471,-128.6472 118.3859,-156.67182 224.4689,-137.4126 z"
       style="fill:none;stroke:#000000;stroke-width:1.03176868px;stroke-linecap:butt;stroke-linejoin:miter;stroke-opacity:1" />
    <path
       sodipodi:nodetypes="sssssssssssssssssssssssss"
       inkscape:connector-curvature="0"
       id="path3004-4-1-5-7"
       d="m 2990.3514,520.73419 c -9.5139,91.71005 -12.746,155.24172 -43.0719,166.93202 -64.3292,24.79824 -236.5901,94.34654 -264.9791,21.80088 -28.1898,-72.03663 -46.2516,-147.68837 -60.095,-224.7772 -12.6306,-70.33529 36.968,-107.65029 51.8772,-105.31446 19.2968,3.02325 35.1027,24.98996 46.2113,7.68122 l 33.9341,-52.87419 c 7.9197,-12.33996 -9.5479,-28.00899 -17.9216,-34.52429 -58.8745,-45.80839 -91.751,-63.97142 -146.9823,-87.61262 -10.2993,-4.4085 -21.2076,-1.32982 -28.5642,12.8204 l -25.5563,49.15669 c -4.5593,8.76972 -2.8275,21.18227 5.9521,26.1525 l 64.5068,36.51822 c 11.4818,6.50001 17.305,20.0341 9.403,32.40676 l -40.6321,63.61987 c -15.3205,23.9882 -19.8294,30.36398 -6.0574,103.897 14.9089,79.60309 38.0892,164.70479 65.3821,237.0734 43.9197,116.45545 264.1362,5.64581 351.2038,-38.4212 52.0732,-26.4417 56.3572,-21.38462 67.2823,-201.5038 0,0 5.7199,-94.30297 8.5799,-141.45446 6.514,-107.39409 68.9796,-106.85105 -79.7927,-179.17083 -23.4134,-11.3815 -26.5672,1.65355 -35.9863,20.07317 l -26.804,52.41661 c -10.3387,20.21785 2.6594,20.55591 19.1601,29.67812 64.4968,35.65623 69.4402,46.47043 52.9502,205.42619 z"
       style="fill:none;stroke:#000000;stroke-width:1.03176868px;stroke-linecap:butt;stroke-linejoin:miter;stroke-opacity:1" />
    <path
       sodipodi:nodetypes="csssssssssssssc"
       inkscape:connector-curvature="0"
       id="path3004-4-1-5-8-9"
       d="m 391.35537,-65.575834 c -35.23179,-63.789006 -51.6292,-138.701986 -60.0199,-216.343256 -7.6326,-70.62628 37.5228,-107.3186 52.432,-104.98277 19.2968,3.02325 35.10272,24.98998 46.2113,7.68122 11.31137,-17.62473 22.62273,-35.24946 33.9341,-52.87419 7.91967,-12.33998 -9.5479,-28.00899 -17.9216,-34.52429 -58.8745,-45.8084 -91.751,-63.97143 -146.9823,-87.61264 -10.2993,-4.4085 -21.20758,-1.32981 -28.5642,12.82041 -8.51877,16.38556 -17.03754,32.77113 -25.5563,49.1567 -4.55932,8.76971 -2.82749,21.18225 5.9521,26.1525 21.50227,12.17274 43.00453,24.34548 64.5068,36.51822 11.4818,6.50001 17.41061,20.1022 9.403,32.40676 -13.72898,21.09606 -27.45793,42.19213 -41.1869,63.28819 -15.53729,23.87475 -16.5588,25.0997 -6.6122,103.56531 10.5048,82.8683 38.71136,173.174616 75.3821,244.930536"
       style="fill:none;stroke:#000000;stroke-width:1.03176868px;stroke-linecap:butt;stroke-linejoin:miter;stroke-opacity:1" />
    <g
       id="g3050">
      <path
         style="fill:none;stroke:#000000;stroke-width:1.03176868px;stroke-linecap:butt;stroke-linejoin:miter;stroke-opacity:1"
         d="m -401.7559,-314.16201 c -63.23358,38.06324 -245.6357,71.2803 -283.8484,2.0942 -35.2318,-63.789 -51.6292,-144.25784 -60.0199,-221.89904 -7.6326,-70.6263 22.3705,-107.3186 37.2797,-104.9828 19.2968,3.0232 24.7456,19.27566 35.8542,1.96691 l 33.9341,-52.8742 c 7.9196,-12.33991 -10.3395,-27.10273 -17.9216,-34.5243 -20.7413,-20.30204 -79.1211,-55.98427 -111.8765,-70.02902 -10.2965,-4.41492 -21.2076,-1.32979 -28.5642,12.8204 l -25.5563,49.1567 c -4.5593,8.76968 -2.6225,20.83648 5.9521,26.1525 l 39.7581,24.64891 c 11.2138,6.95224 14.9881,18.82991 9.403,32.4068 l -26.0346,63.2882 c -12.8066,31.13194 -15.5486,37.72661 -6.6122,103.5653 11.2349,82.77248 38.7114,178.73044 75.3821,250.48634 48.5373,94.976 290.1366,24.4038 356.3859,-10.996 92.6145,-49.488 125.40573,-147.72143 142.38507,-378.15042 6.51064,-88.35679 62.63781,-91.94367 21.47867,-125.08353 -16.70058,-13.44671 -43.10259,-29.59476 -78.16114,-46.81487 -14.5911,-7.16688 -26.12632,-4.8273 -33.72588,9.66903 l -29.07179,55.45507 c -5.09171,9.71255 -1.43715,19.15192 6.97734,24.14566 41.31228,24.51753 57.52763,35.37009 40.29085,168.36195 -16.55539,127.73455 -55.08925,191.88198 -103.68862,221.13621 z"
         id="path3004-4-1-5-8-9-3"
         inkscape:connector-curvature="0"
         sodipodi:nodetypes="sssssssssssssssssssssssss" />
      <path
         style="fill:none;stroke:#000000;stroke-width:1.03176868px;stroke-linecap:butt;stroke-linejoin:miter;stroke-opacity:1"
         d="m -605.10893,-381.85755 c -1.39221,3.85708 -1.32991,12.53176 3.53007,15.9774 11.79882,8.36516 57.29204,7.1025 69.10065,-5.57389 1.75621,-1.88527 3.93394,-3.91054 7.03664,-11.65113 1.68805,-4.21133 10.32739,-52.97629 16.95897,-75.87386 l 20.71838,-71.5366 c 20.06588,-69.28363 33.29805,-129.97037 70.44903,-172.78446 12.30076,-14.17583 -5.1285,-33.48536 -12.53536,-41.08181 -18.18046,-18.64587 -50.9167,-39.01453 -83.30641,-53.33487 -10.24637,-4.53016 -21.20904,-1.30684 -28.55029,12.85134 -8.50098,16.39481 -17.00195,32.78961 -25.50293,49.18442 -4.54979,8.77463 -0.53817,18.44592 5.98048,26.146 38.55579,45.54358 12.22815,153.75037 -2.90914,208.72012 -11.35328,41.22845 -27.80266,82.47745 -40.97009,118.95734 z"
         id="path3004-4"
         inkscape:connector-curvature="0"
         sodipodi:nodetypes="ssssssssssssss" />
    </g>
    <path
       style="fill:none;stroke:#000000;stroke-width:1.03176868px;stroke-linecap:butt;stroke-linejoin:miter;stroke-opacity:1"
       d="m 1652.8147,735.42624 c 0,4.10066 2.0428,14.69091 7.9862,14.28144 5.9542,-0.41021 52.7117,-21.38692 60.7042,-35.43749 0.9565,-2.39242 2.6396,-4.87861 3.3791,-13.18503 0,0 -1.7636,-43.52337 -1.7782,-67.36191 l -0.1252,-204.31936 c -0.044,-72.13085 13.5797,-172.22869 13.5797,-172.22869 2.54,-14.44107 -8.3211,-27.57576 -16.6948,-34.09106 -58.8745,-45.80843 -88.1796,-65.40006 -143.411,-89.04125 -10.2993,-4.40851 -21.5761,-1.51542 -28.5642,12.82036 l -25.5563,49.15671 c -4.1376,8.97635 -2.2857,20.32814 5.9521,26.15247 l 77.606,46.89187 c 29.1034,17.5851 47.0503,50.85769 48.2899,85.48379 2.6336,47.5653 4.1378,66.08751 4.0415,115.43921 l -0.291,149.25041 c -0.076,38.8038 -3.0748,81.34284 -5.118,116.18853 z"
       id="path3004-4-1"
       inkscape:connector-curvature="0"
       sodipodi:nodetypes="ccccsscsscccscssc" />
    <path
       sodipodi:nodetypes="sssssssssssssss"
       inkscape:connector-curvature="0"
       id="path3004-4-4"
       d="m 377.28929,3.467575 c 1.1109,3.94729 6.2072,10.96742 12.1646,10.94351 14.4632,-0.058 62.3518,-5.3224 64.5844,-22.50233 0.3321,-2.55505 0.9256,-5.4692 -1.0528,-13.57042 -1.0764,-4.40747 -30.0997,-69.26431 -37.9121,-91.786345 l -34.3516,-99.03121 c -23.6388,-68.14742 -48.5097,-125.09147 -43.1918,-181.52688 1.7609,-18.68591 -23.6481,-24.2556 -34.0916,-26.12682 -25.6339,-4.59296 -90.2488,0.44398 -124.9254,7.63425 -10.9698,2.27469 -18.0124,11.27298 -15.7492,27.05988 l 7.8622,54.84239 c 1.7244,12.02824 9.5824,19.73325 20.1888,18.42776 l 26.0221,-3.20296 c 43.4961,-5.35375 99.3742,117.95539 119.0333,171.47485 14.7448,40.14067 30.912,110.031135 41.4191,147.364325 z"
       style="fill:none;stroke:#000000;stroke-width:1.03176868px;stroke-linecap:butt;stroke-linejoin:miter;stroke-opacity:1" />
    <path
       style="fill:none;stroke:#000000;stroke-width:1.03176868px;stroke-linecap:butt;stroke-linejoin:miter;stroke-opacity:1"
       d="m 873.70879,-59.864248 c 0.099,4.09944 3.1592,14.4919 9.054,13.6295 5.9055,-0.86388 53.7244,-1.99137 60.3446,-16.73832 1.0551,-2.35057 2.2592,-5.06603 2.3619,-13.40463 0.056,-4.53675 -7.6501,-49.824322 -9.445,-73.595152 l -10.8964,-144.31037 c -6.0227,-79.76355 -18.7247,-174.77477 -53.5769,-202.46138 -11.481,-9.12049 -23.5491,-11.64535 -52.0139,-10.36158 -49.705,2.2417 -98.0954,11.49604 -154.4192,32.40252 -10.503,3.89853 -16.2899,13.64413 -11.876,28.96944 l 15.3335,53.23898 c 2.7356,9.49796 12.4906,17.09174 22.3292,14.85888 l 77.6817,-17.63005 c 33.1604,-7.52584 59.0487,0.0983 72.0096,32.23115 17.8201,44.17959 19.6111,64.93355 23.0648,114.1644 l 6.2741,89.4342 c 2.7156,38.70872 2.9341,64.676982 3.774,99.572412 z"
       id="path3004-4-1-55-0"
       inkscape:connector-curvature="0"
       sodipodi:nodetypes="sssssssssssssssss" />
    <path
       sodipodi:nodetypes="ssssssssssssssssssssssssssssss"
       inkscape:connector-curvature="0"
       id="path3004-4-6"
       d="m 339.67159,758.00325 c -56.96817,16.71999 -155.36786,40.70602 -213.06445,47.35893 -14.53572,1.67609 -16.85651,9.38422 -18.17315,17.93493 -2.46887,16.03367 -12.825658,68.30473 -13.507548,84.13009 -0.64328,14.9294 6.025118,17.56111 10.710898,16.70762 130.68512,-23.80374 341.95116,-102.95399 424.37411,-163.31432 75.80331,-55.5126 95.4889,-95.15195 109.7074,-347.09559 2.0745,-36.75903 8.4651,-85.85245 21.96523,-135.82726 3.8239,-14.15535 -18.16421,-26.15053 -27.6413,-30.92053 -52.21579,-26.28119 -101.61966,-41.5482 -160.98313,-50.7884 -11.06985,-1.72307 -20.8772,3.95891 -24.50387,19.48936 -4.19959,17.98388 -8.39919,35.96775 -12.5988,53.95163 -2.24766,9.6251 2.58053,20.94783 12.23793,23.86654 28.93178,8.74391 57.86357,17.48783 86.79535,26.23173 32.54944,9.83725 46.88039,56.4957 42.91935,132.80379 -10.04041,193.42483 -34.16948,204.90424 -81.41366,237.00784 -19.96738,13.56833 -27.07937,17.96525 -47.16394,27.10181 -16.37332,7.44829 -23.03938,-7.35233 -28.82377,-26.64656 l -76.64499,-255.6545 c -20.71391,-69.09264 -32.829,-130.56178 -24.4813,-173.00181 2.82986,-14.38709 -16.80119,-22.78379 -26.4242,-27.25221 -39.34975,-18.27196 -93.4818,-31.87495 -153.3181,-37.26588 -11.158,-1.00529 -20.57814,5.2976 -23.1953,21.0297 l -9.0918,54.65204 c -1.622,9.75006 3.9112,20.80491 13.7522,23.02727 l 77.7004,17.5468 c 26.2466,5.92717 46.2212,32.4245 56.9661,65.33626 14.7847,45.28582 21.53237,64.75534 36.0746,111.91601 l 53.9396,174.92691 c 14.51775,47.08127 23.13884,84.16222 -6.11386,92.7478 z"
       style="fill:none;stroke:#000000;stroke-width:1.03199995;stroke-linecap:butt;stroke-linejoin:miter;stroke-miterlimit:4;stroke-opacity:1;stroke-dasharray:none" />
  </g>
</svg>
