<?xml version="1.0" encoding="UTF-8" standalone="no"?>
<!-- Created with Inkscape (http://www.inkscape.org/) -->

<svg
   xmlns:dc="http://purl.org/dc/elements/1.1/"
   xmlns:cc="http://creativecommons.org/ns#"
   xmlns:rdf="http://www.w3.org/1999/02/22-rdf-syntax-ns#"
   xmlns:svg="http://www.w3.org/2000/svg"
   xmlns="http://www.w3.org/2000/svg"
   xmlns:sodipodi="http://sodipodi.sourceforge.net/DTD/sodipodi-0.dtd"
   xmlns:inkscape="http://www.inkscape.org/namespaces/inkscape"
   width="1000"
   height="1000"
   id="svg2"
   version="1.1"
   inkscape:version="0.48.4 r9939"
   sodipodi:docname="2-bet.svg">
  <defs
     id="defs4">
    <inkscape:path-effect
       effect="spiro"
       id="path-effect6019"
       is_visible="true" />
  </defs>
  <sodipodi:namedview
     id="base"
     pagecolor="#ffffff"
     bordercolor="#666666"
     borderopacity="1.0"
     inkscape:pageopacity="0.0"
     inkscape:pageshadow="2"
     inkscape:zoom="2"
     inkscape:cx="66.624742"
     inkscape:cy="773.81338"
     inkscape:document-units="px"
     inkscape:current-layer="layer1"
     showgrid="true"
     gridtolerance="10"
     guidetolerance="1"
     showguides="false"
     inkscape:guide-bbox="true"
     inkscape:window-width="1680"
     inkscape:window-height="994"
     inkscape:window-x="-4"
     inkscape:window-y="-4"
     inkscape:window-maximized="1">
    <sodipodi:guide
       orientation="0,1"
       position="500,247"
       id="guide3019" />
    <sodipodi:guide
       orientation="1,0"
       position="100,500"
       id="guide2991" />
    <sodipodi:guide
       orientation="1,0"
       position="180,500"
       id="guide2993" />
    <sodipodi:guide
       orientation="0,1"
       position="1270,728.33333"
       id="guide2994" />
    <sodipodi:guide
       orientation="0,1"
       position="500,950"
       id="guide2996" />
    <sodipodi:guide
       orientation="0,1"
       position="500,841"
       id="guide4483" />
  </sodipodi:namedview>
  <metadata
     id="metadata7">
    <rdf:RDF>
      <cc:Work
         rdf:about="">
        <dc:format>image/svg+xml</dc:format>
        <dc:type
           rdf:resource="http://purl.org/dc/dcmitype/StillImage" />
        <dc:title />
      </cc:Work>
    </rdf:RDF>
  </metadata>
  <g
     inkscape:label="Layer 1"
     inkscape:groupmode="layer"
     id="layer1"
     transform="translate(0,-52.362183)">
    <path
       style="fill:none;stroke:#000000;stroke-width:1.03771424px;stroke-linecap:butt;stroke-linejoin:miter;stroke-opacity:1"
       d="m 318.60317,221.40089 c 237.8966,5.67527 206.32516,30.8566 209.23744,205.14507 l 2.94758,176.4008 c 4.60511,55.52082 7.75348,89.84916 52.9687,112.08947 9.3739,4.6108 13.15654,7.14233 13.09564,19.14093 l 0.71686,58.01958 c -0.043,8.4721 -4.3827,15.6611 -17.5625,15.1875 -55.8203,-2.0056 -166.49576,-8.39974 -250.21875,-7.15537 -80.3474,1.1942 -151.29488,6.37595 -216.5982,10.11157 -73.771998,4.22006 -82.4046,6.97571 -80.7364,-25.2202 l 4.8658,-65.73598 c -0.4907,-11.409 10.719012,-14.99203 25.1875,-14.5625 123.96713,3.68021 252.1722,3.7611 372.1875,-0.9062 35.5957,-1.3844 31.38654,-92.28312 31.3438,-114 l -0.29588,-150.3384 c -0.0427,-21.71688 -7.63719,-110.6156 -80.23289,-114 -119.97571,-5.59325 -174.7559,-3.1722 -295.187502,-0.9062 -14.4723,0.2723 -26.6782,-5.1535 -25.1875,-14.5625 5.648139,-34.38064 11.63576,-68.68057 18.306909,-102.87408 0.862724,-4.42196 3.1079,-7.0028 6.7587,-6.9428 l 12.636903,0.2078 c 6.2073,0.10207 22.09558,18.42495 40.1975,18.45458 64.92884,0.10626 127.57725,1.30844 175.56879,2.44693 z"
       id="path3004-1-7"
       inkscape:connector-curvature="0"
       sodipodi:nodetypes="cscsccsssccsssssscssssc" />
  </g>
</svg>
