<?xml version="1.0" encoding="UTF-8" standalone="no"?>
<!-- Created with Inkscape (http://www.inkscape.org/) -->

<svg
   xmlns:dc="http://purl.org/dc/elements/1.1/"
   xmlns:cc="http://creativecommons.org/ns#"
   xmlns:rdf="http://www.w3.org/1999/02/22-rdf-syntax-ns#"
   xmlns:svg="http://www.w3.org/2000/svg"
   xmlns="http://www.w3.org/2000/svg"
   xmlns:sodipodi="http://sodipodi.sourceforge.net/DTD/sodipodi-0.dtd"
   xmlns:inkscape="http://www.inkscape.org/namespaces/inkscape"
   width="1000"
   height="1000"
   id="svg2"
   version="1.1"
   inkscape:version="0.48.4 r9939"
   sodipodi:docname="1-alef.svg">
  <defs
     id="defs4" />
  <sodipodi:namedview
     id="base"
     pagecolor="#ffffff"
     bordercolor="#666666"
     borderopacity="1.0"
     inkscape:pageopacity="0.0"
     inkscape:pageshadow="2"
     inkscape:zoom="4"
     inkscape:cx="453.8887"
     inkscape:cy="696.47469"
     inkscape:document-units="px"
     inkscape:current-layer="layer1"
     showgrid="true"
     gridtolerance="10"
     guidetolerance="1"
     showguides="false"
     inkscape:guide-bbox="true"
     inkscape:window-width="3078"
     inkscape:window-height="1752"
     inkscape:window-x="122"
     inkscape:window-y="48"
     inkscape:window-maximized="1"
     inkscape:snap-to-guides="true"
     inkscape:snap-grids="true"
     inkscape:snap-nodes="true"
     inkscape:snap-global="true">
    <sodipodi:guide
       orientation="0,1"
       position="500,247"
       id="guide3019" />
    <sodipodi:guide
       orientation="1,0"
       position="99,794"
       id="guide2991" />
    <sodipodi:guide
       orientation="1,0"
       position="180,500"
       id="guide2993" />
    <sodipodi:guide
       orientation="0,1"
       position="500,732"
       id="guide2994" />
    <sodipodi:guide
       orientation="0,1"
       position="500,950"
       id="guide2996" />
    <sodipodi:guide
       orientation="-0.98480775,0.17364818"
       position="226.27416,789.13115"
       id="guide3008" />
    <sodipodi:guide
       orientation="0,1"
       position="500,841"
       id="guide4407" />
  </sodipodi:namedview>
  <metadata
     id="metadata7">
    <rdf:RDF>
      <cc:Work
         rdf:about="">
        <dc:format>image/svg+xml</dc:format>
        <dc:type
           rdf:resource="http://purl.org/dc/dcmitype/StillImage" />
        <dc:title />
      </cc:Work>
    </rdf:RDF>
  </metadata>
  <g
     inkscape:label="Layer 1"
     inkscape:groupmode="layer"
     id="layer1"
     transform="translate(0,-52.362183)">
    <path
       sodipodi:nodetypes="ssssssssssssssssssssssssssssssss"
       inkscape:connector-curvature="0"
       id="path3004-8"
       d="m 507.5978,563.45619 c 44.43125,-41.91744 96.65548,-111.70339 138.45391,-179.04927 7.73226,-12.45827 2.79943,-27.91051 -3.41142,-36.51245 -43.66783,-60.47935 -85.68088,-107.85618 -132.06746,-146.03602 -8.64995,-7.11963 -19.9838,-7.22309 -31.01303,4.29655 -12.77162,13.33951 -25.54318,26.67907 -38.31487,40.01852 -6.8355,7.13937 -8.47653,19.37161 -1.61984,26.77231 l 80.72107,87.12557 c 50.95653,54.99947 1.43899,108.65445 -41.65857,161.24076 -8.40956,10.26109 -20.74484,13.3439 -29.96268,3.04732 C 321.47876,382.22214 263.41496,316.06616 180.91353,204.57947 c -8.09417,-10.93789 -20.44711,-8.20782 -29.64176,-2.47706 -16.26268,10.13606 -39.29316,31.22128 -49.62473,45.03369 -5.956349,7.96312 -13.285455,19.3076 -5.515798,26.60988 55.524668,52.18464 58.418868,64.13831 53.702748,121.53207 -8.23801,100.25403 -13.23092,167.28537 -23.52657,254.11878 -7.04489,59.41653 -12.10699,120.29699 -10.07984,127.47103 3.98711,14.11025 14.41738,22.83355 24.81383,24.95063 47.34475,9.64105 107.83744,12.0177 167.85478,9.31199 11.19178,-0.50454 19.67881,-8.01716 20.15626,-23.9583 0.55288,-18.45944 1.10576,-36.91887 1.65863,-55.37831 0.2959,-9.87963 -6.68012,-20.02117 -16.72437,-20.96842 -30.09071,-2.83779 -60.18143,-5.67558 -90.27214,-8.51337 -37.66916,-3.5525 -37.65436,-52.16907 -34.64808,-94.21038 5.49082,-76.78635 9.29561,-119.30314 25.648,-197.52127 2.49534,-11.93592 8.99142,-9.48899 16.83745,-1.73216 111.75923,110.48867 207.87998,224.75248 346.05004,399.09809 9.81882,12.38957 28.85163,12.51338 32.07119,3.60205 6.94034,-19.21 10.6742,-37.94839 11.38494,-59.0519 0.54095,-16.06187 -1.06196,-43.0448 -7.05865,-48.96371 -38.64753,-38.14624 -74.21569,-73.48491 -110.31166,-119.11396 -4.61414,-5.83275 -2.06931,-15.32163 3.91,-20.96265 z"
       style="fill:none;stroke:#000000;stroke-width:1.03176868px;stroke-linecap:butt;stroke-linejoin:miter;stroke-opacity:1" />
    <path
       sodipodi:nodetypes="sssssssssssssssssssssssssssssssss"
       inkscape:connector-curvature="0"
       id="path3004-8-1"
       d="m -524.05685,538.34277 c 43.96557,-40.52039 96.17838,-110.2721 138.45391,-179.04927 7.67827,-12.49162 2.79943,-27.91051 -3.41142,-36.51245 -43.66783,-60.47934 -91.68088,-111.60618 -138.06746,-149.78602 -8.64995,-7.11963 -19.9838,-7.22309 -31.01303,4.29655 -12.77162,13.33951 -25.54318,26.67907 -38.31487,40.01853 -6.8355,7.13937 -8.58493,19.47354 -1.61984,26.77231 28.90701,30.29186 57.81405,60.5837 86.72107,90.87556 40.97194,42.93476 -4.11261,110.91292 -44.84055,163.00853 -6.29369,8.05034 -15.12562,14.28952 -26.7807,1.27955 -92.44321,-103.18968 -180.80995,-210.54332 -267.81139,-319.78001 -8.47722,-10.64377 -20.08504,-7.58121 -29.64176,-2.47706 -17.32334,9.25218 -40.12158,26.92839 -54.72092,42.65502 -6.76563,7.28804 -9.19131,16.6008 -5.5158,26.60988 2.33074,6.34702 71.37208,76.85591 129.08496,150.02811 12.42,15.74689 22.62541,43.85837 -2.41588,63.41311 -32.59792,25.4557 -39.3814,31.55491 -88.11199,82.34592 -25.67981,26.7656 -30.7799,195.04687 -27.25364,207.52622 3.9871,14.11025 19.65092,22.02489 29.84936,24.95063 45.93054,13.17659 107.83745,19.08877 167.85479,16.38306 11.19178,-0.50454 19.67881,-8.01716 20.15626,-23.9583 l 1.65863,-55.37831 c 0.2959,-9.87963 -6.68012,-20.02117 -16.72437,-20.96842 l -90.27214,-8.51337 c -37.66917,-3.5525 -44.31789,-72.977 -25.42016,-102.01799 38.83399,-59.67794 66.56056,-83.45445 93.85087,-105.06706 6.15104,-4.87133 13.23083,-5.3361 16.83745,-1.73216 96.89427,96.82236 152.97,152.19256 279.4728,309.56761 9.90428,12.32136 26.85163,12.51338 30.07119,3.60205 6.94034,-19.21 10.6742,-37.94839 11.38494,-59.0519 0.54095,-16.06187 -1.06196,-43.0448 -7.05865,-48.96371 -38.64753,-38.14624 -74.21569,-73.48491 -110.31166,-119.11396 -4.61414,-5.83275 -2.13463,-15.39168 3.91,-20.96265 z"
       style="fill:none;stroke:#000000;stroke-width:1.03176868px;stroke-linecap:butt;stroke-linejoin:miter;stroke-opacity:1" />
    <path
       sodipodi:nodetypes="sssssssssssssssssssssssssssssssss"
       inkscape:connector-curvature="0"
       id="path3004-8-17"
       d="m 1548.4541,568.34277 c 43.9656,-40.52039 96.1784,-110.2721 138.4539,-179.04927 7.6783,-12.49162 2.7994,-27.91051 -3.4114,-36.51245 -43.6678,-60.47934 -91.6809,-111.60618 -138.0675,-149.78602 -8.6499,-7.11963 -19.9838,-7.22309 -31.013,4.29655 -12.7716,13.33951 -25.5432,26.67907 -38.3149,40.01853 -6.8355,7.13937 -8.5849,19.47354 -1.6198,26.77231 28.907,30.29186 57.814,60.5837 86.7211,90.87556 40.9719,42.93476 -4.1126,110.91292 -44.8406,163.00853 -6.2937,8.05034 -15.1256,14.28952 -26.7807,1.27955 -92.4432,-103.18968 -180.8099,-210.54332 -267.8114,-319.78001 -8.4772,-10.64377 -20.085,-7.58121 -29.6417,-2.47706 -17.3234,9.25218 -40.1216,26.92839 -54.721,42.65502 -6.7656,7.28804 -11.4941,17.78091 -5.5158,26.60988 20.4077,30.13869 22.04,52.85266 22.4714,84.84309 0.7992,59.26844 1.5984,118.53689 2.3977,177.80533 0.9726,72.12431 -5.7383,223.30171 -2.212,235.78106 3.9871,14.11025 19.6509,22.02489 29.8493,24.95063 45.9306,13.17659 107.8375,19.08877 167.8548,16.38306 11.1918,-0.50454 19.6788,-8.01716 20.1563,-23.9583 l 1.6586,-55.37831 c 0.2959,-9.87963 -6.6801,-20.02117 -16.7244,-20.96842 l -90.2721,-8.51337 c -37.6692,-3.5525 -40.6678,-59.62079 -42.6836,-94.21038 -2.7716,-47.55746 -2.8726,-66.0374 -3.3252,-115.38712 -0.3706,-40.4006 -0.7412,-80.8012 -1.1118,-121.2018 -0.1119,-12.19345 9.1199,-9.61685 16.8374,-1.73216 137.2151,140.18715 257.1678,280.79069 383.6706,438.16574 9.9043,12.32136 26.8516,12.51338 30.0712,3.60205 6.9403,-19.21 10.6742,-37.94839 11.3849,-59.0519 0.541,-16.06187 -1.0619,-43.0448 -7.0586,-48.96371 -38.6476,-38.14624 -74.2157,-73.48491 -110.3117,-119.11396 -4.6141,-5.83275 -2.1346,-15.39168 3.91,-20.96265 z"
       style="fill:none;fill-opacity:1;stroke:#000000;stroke-width:1.03176868000000010px;stroke-linecap:butt;stroke-linejoin:miter;stroke-opacity:1" />
  </g>
</svg>
