<?xml version="1.0" encoding="UTF-8" standalone="no"?>
<!-- Created with Inkscape (http://www.inkscape.org/) -->

<svg
   xmlns:dc="http://purl.org/dc/elements/1.1/"
   xmlns:cc="http://creativecommons.org/ns#"
   xmlns:rdf="http://www.w3.org/1999/02/22-rdf-syntax-ns#"
   xmlns:svg="http://www.w3.org/2000/svg"
   xmlns="http://www.w3.org/2000/svg"
   xmlns:sodipodi="http://sodipodi.sourceforge.net/DTD/sodipodi-0.dtd"
   xmlns:inkscape="http://www.inkscape.org/namespaces/inkscape"
   width="1000"
   height="1000"
   id="svg2"
   version="1.1"
   inkscape:version="0.48.4 r9939"
   sodipodi:docname="100-quf.svg">
  <defs
     id="defs4" />
  <sodipodi:namedview
     id="base"
     pagecolor="#ffffff"
     bordercolor="#666666"
     borderopacity="1.0"
     inkscape:pageopacity="0.0"
     inkscape:pageshadow="2"
     inkscape:zoom="1.4"
     inkscape:cx="166.3624"
     inkscape:cy="552.78307"
     inkscape:document-units="px"
     inkscape:current-layer="g3804"
     showgrid="true"
     gridtolerance="10"
     guidetolerance="10"
     showguides="false"
     inkscape:guide-bbox="true"
     inkscape:window-width="1680"
     inkscape:window-height="988"
     inkscape:window-x="-8"
     inkscape:window-y="-8"
     inkscape:window-maximized="1">
    <sodipodi:guide
       orientation="0,1"
       position="500,247"
       id="guide3019" />
    <sodipodi:guide
       orientation="0,1"
       position="500,732"
       id="guide3072" />
    <sodipodi:guide
       orientation="0,1"
       position="500,842"
       id="guide3074" />
    <sodipodi:guide
       orientation="0,1"
       position="500,955"
       id="guide3076" />
    <sodipodi:guide
       orientation="1,0"
       position="100,500"
       id="guide3867" />
    <sodipodi:guide
       orientation="1,0"
       position="180,500"
       id="guide3869" />
  </sodipodi:namedview>
  <metadata
     id="metadata7">
    <rdf:RDF>
      <cc:Work
         rdf:about="">
        <dc:format>image/svg+xml</dc:format>
        <dc:type
           rdf:resource="http://purl.org/dc/dcmitype/StillImage" />
        <dc:title />
      </cc:Work>
    </rdf:RDF>
  </metadata>
  <g
     inkscape:label="Layer 1"
     inkscape:groupmode="layer"
     id="layer1"
     transform="translate(0,-52.362183)">
    <g
       id="g3804"
       transform="translate(68.571429,411.42857)">
      <path
         style="fill:none;stroke:#000000;stroke-width:1.03176868000000010px;stroke-linecap:butt;stroke-linejoin:miter;stroke-opacity:1;fill-opacity:1"
         d="m 67.212161,138.59217 5.75294,336.05447 c 0.664178,38.79758 1.566062,81.38534 1.51203,116.2909 0.233362,4.09432 2.876814,14.5507 8.787147,13.80305 5.921191,-0.74903 51.407202,-24.35586 58.585982,-38.83971 0.81858,-2.44235 2.3572,-5.02115 2.62219,-13.35566 0,0 -4.3296,-43.34691 -5.61438,-67.15091 L 117.18912,83.919871 c -0.43769,-8.109299 -3.27241,-9.495472 -8.2074,-8.867511 -14.931132,1.899937 -42.147808,41.44464 -41.769559,63.53981 z"
         id="path3004-4-17-6"
         inkscape:connector-curvature="0"
         sodipodi:nodetypes="sscsccssss" />
      <path
         sodipodi:nodetypes="sssssssssssssssssss"
         inkscape:connector-curvature="0"
         style="fill:none;stroke:#000000;stroke-width:1.02755904px;stroke-linecap:butt;stroke-linejoin:miter;stroke-miterlimit:4;stroke-opacity:1;stroke-dasharray:none"
         d="m -1.39747,-105.93767 c -1.749266,9.380228 10.70082,14.83701 25.193,14.563 120.43682,-2.27719 167.35926,-4.66358 287.33586,0.9213 72.6024,3.37962 79.97819,87.23802 80.93529,108.93744 0.80883,18.33777 1.61764,36.67554 2.42647,55.01331 0.55404,12.56124 -4.15253,20.086567 -9.95366,27.16027 -40.71394,49.64524 -91.94699,95.88756 -141.31122,139.07086 -6.0134,5.26046 -6.97087,9.50998 -7.60172,15.4086 -1.0881,10.17398 2.47341,53.68113 10.39118,62.58059 3.86536,4.34461 10.32211,4.83671 15.37716,0.65672 64.63253,-53.44418 135.28747,-129.16053 185.47536,-196.8444 11.64025,-15.69815 11.85187,-32.61138 11.03638,-48.15621 -1.24087,-23.653258 -2.48394,-47.3064 -3.72591,-70.9596 -8.82037,-167.98314 33.59822,-191.25991 -209.94733,-197.07628 -48.01065,-1.14659 -146.383457,-2.14439 -162.908172,-2.4448 -16.667193,-0.303 -32.398439,-17.91411 -44.204523,-18.10825 -4.2123,-0.0693 -8.424599,-0.13857 -12.6369,-0.2078 -3.650798,-0.06 -5.932764,2.51382 -6.7587,6.9428 -6.374191,34.18082 -12.7483766,68.36163 -19.122565,102.54245 z"
         id="path3786-1-4" />
      <path
         style="fill:none;stroke:#000000;stroke-width:1.03176868px;stroke-linecap:butt;stroke-linejoin:miter;stroke-opacity:1"
         d="m 1060.743,139.44189 5.7529,336.05446 c 0.6642,38.79758 1.5661,81.38534 1.5121,116.2909 0.2333,4.09432 2.8768,14.5507 8.7871,13.80305 5.9212,-0.74903 51.4072,-24.35586 58.586,-38.83971 0.8186,-2.44235 2.3572,-5.02115 2.6222,-13.35566 0,0 -4.3296,-43.34691 -5.6144,-67.15091 L 1110.72,84.769583 c -1.8034,-33.41217 -50.3625,32.151987 -49.977,54.672307 z"
         id="path3004-4-17-6-0"
         inkscape:connector-curvature="0"
         sodipodi:nodetypes="sscsccsss" />
      <path
         sodipodi:nodetypes="cssssssccsssssssscscc"
         inkscape:connector-curvature="0"
         style="fill:none;stroke:#000000;stroke-width:1.02755904px;stroke-linecap:butt;stroke-linejoin:miter;stroke-miterlimit:4;stroke-opacity:1;stroke-dasharray:none"
         d="m 1007.8477,-105.08796 c -0.616,9.522037 10.7008,14.837008 25.193,14.562998 120.4368,-2.27719 167.3592,-4.663581 287.3358,0.9213 72.6024,3.37962 79.9782,87.2380221 80.9353,108.937442 l 2.4265,55.013313 c 0.554,12.56124 -4.9368,19.51033 -9.9537,27.160267 l -95.8927,146.22233 c -21.2773,32.44472 -50.5242,66.20201 -52.5792,101.03271 0,4.1102 2.055,14.7047 7.972,14.2795 5.953,-0.3897 60.8576,-14.96766 63.7687,-26.32586 0.6957,-2.71421 1.991,-7.82796 3.366,-13.1811 3.0311,-11.80082 14.7093,-36.92111 34.5883,-65.35376 l 102.6008,-146.74879 c 8.3886,-11.998157 10.2827,-23.126537 9.5433,-37.208867 l -3.7259,-70.9596029 c -8.8204,-167.9831401 33.5982,-191.2599101 -209.9474,-197.0762801 -48.0106,-1.14659 -146.3834,-2.14439 -162.9082,-2.4448 -16.6671,-0.303 -32.4661,-16.83092 -44.2045,-18.10825 l -12.6369,-0.2078 c -3.6508,-0.06 -6.0097,2.50016 -6.7587,6.9428 z"
         id="path3786-1-4-9" />
      <path
         style="fill:none;stroke:#000000;stroke-width:1.03176868000000010px;stroke-linecap:butt;stroke-linejoin:miter;stroke-opacity:1;fill-opacity:1"
         d="m -474.85078,138.83484 5.75294,336.05447 c 0.66418,38.79758 1.56606,81.38534 1.51203,116.2909 0.23336,4.09432 2.87681,14.5507 8.78715,13.80305 5.92119,-0.74903 51.4072,-24.35586 58.58598,-38.83971 0.81858,-2.44235 2.3572,-5.02115 2.62219,-13.35566 0,0 -4.3296,-43.34691 -5.61438,-67.15091 L -424.87382,84.162539 c -0.43769,-8.1093 -3.27241,-9.49547 -8.2074,-8.86751 -14.93113,1.89994 -42.14781,41.444641 -41.76956,63.539811 z"
         id="path3004-4-17-6-1"
         inkscape:connector-curvature="0"
         sodipodi:nodetypes="sscsccssss" />
      <path
         sodipodi:nodetypes="csssssssssssssssscscc"
         inkscape:connector-curvature="0"
         style="fill:none;stroke:#000000;stroke-width:1.02755904000000010px;stroke-linecap:butt;stroke-linejoin:miter;stroke-miterlimit:4;stroke-opacity:1;stroke-dasharray:none;fill-opacity:1"
         d="m -543.46041,-105.695 c -0.61593,9.522039 10.70082,14.837009 25.193,14.562999 120.43682,-2.27719 167.35926,-4.66358 287.33586,0.9213 72.6024,3.37962 79.97819,87.2380197 80.93529,108.93744 l 2.42647,55.01331 c 0.55404,12.56124 -4.29404,19.97285 -9.95366,27.160271 l -85.89276,109.07947 c -24.0034,30.4831 -54.60251,67.21059 -56.61981,98.83909 -0.26162,4.10187 -0.21917,14.68581 5.69916,14.2795 5.95173,-0.4086 63.34626,-13.00781 67.0517,-24.13224 0.96356,-2.89278 2.59124,-8.57036 5.63884,-13.1811 8.91126,-13.48193 22.41242,-31.07415 43.71556,-58.45601 l 88.838113,-114.18752 c 8.9896,-11.55473 5.67577,-25.442701 4.93634,-39.525031 L -87.882217,2.6568787 C -96.702587,-165.32626 -54.283997,-188.60303 -297.82955,-194.4194 c -48.01065,-1.14659 -146.38346,-2.14439 -162.90817,-2.4448 -16.6672,-0.303 -32.46614,-16.83092 -44.20453,-18.10825 l -12.6369,-0.2078 c -3.65079,-0.06 -6.0097,2.50016 -6.7587,6.9428 z"
         id="path3786-1-4-7" />
    </g>
  </g>
</svg>
