<?xml version="1.0" encoding="UTF-8" standalone="no"?>
<!-- Created with Inkscape (http://www.inkscape.org/) -->

<svg
   xmlns:dc="http://purl.org/dc/elements/1.1/"
   xmlns:cc="http://creativecommons.org/ns#"
   xmlns:rdf="http://www.w3.org/1999/02/22-rdf-syntax-ns#"
   xmlns:svg="http://www.w3.org/2000/svg"
   xmlns="http://www.w3.org/2000/svg"
   xmlns:sodipodi="http://sodipodi.sourceforge.net/DTD/sodipodi-0.dtd"
   xmlns:inkscape="http://www.inkscape.org/namespaces/inkscape"
   width="1000"
   height="1000"
   id="svg2"
   version="1.1"
   inkscape:version="0.48.4 r9939"
   sodipodi:docname="20-kaf.svg">
  <defs
     id="defs4">
    <inkscape:path-effect
       effect="spiro"
       id="path-effect6019"
       is_visible="true" />
  </defs>
  <sodipodi:namedview
     id="base"
     pagecolor="#ffffff"
     bordercolor="#666666"
     borderopacity="1.0"
     inkscape:pageopacity="0.0"
     inkscape:pageshadow="2"
     inkscape:zoom="0.25"
     inkscape:cx="-828.9831"
     inkscape:cy="106.46063"
     inkscape:document-units="px"
     inkscape:current-layer="layer1"
     showgrid="true"
     gridtolerance="10"
     guidetolerance="1"
     showguides="true"
     inkscape:guide-bbox="true"
     inkscape:window-width="1680"
     inkscape:window-height="994"
     inkscape:window-x="-4"
     inkscape:window-y="-4"
     inkscape:window-maximized="1">
    <sodipodi:guide
       orientation="0,1"
       position="500,247"
       id="guide3019" />
    <sodipodi:guide
       orientation="1,0"
       position="100,500"
       id="guide2991" />
    <sodipodi:guide
       orientation="1,0"
       position="180,500"
       id="guide2993" />
    <sodipodi:guide
       orientation="0,1"
       position="1270,728.33333"
       id="guide2994" />
    <sodipodi:guide
       orientation="0,1"
       position="500,950"
       id="guide2996" />
    <sodipodi:guide
       orientation="0,1"
       position="500,841"
       id="guide4483" />
  </sodipodi:namedview>
  <metadata
     id="metadata7">
    <rdf:RDF>
      <cc:Work
         rdf:about="">
        <dc:format>image/svg+xml</dc:format>
        <dc:type
           rdf:resource="http://purl.org/dc/dcmitype/StillImage" />
        <dc:title />
      </cc:Work>
    </rdf:RDF>
  </metadata>
  <g
     inkscape:label="Layer 1"
     inkscape:groupmode="layer"
     id="layer1"
     transform="translate(0,-52.362183)">
    <path
       style="fill:none;stroke:#000000;stroke-width:1.03771423999999990px;stroke-linecap:butt;stroke-linejoin:miter;stroke-opacity:1;fill-opacity:1"
       d="M 521.90167,422.30396 C 522.42742,314.71372 551.59924,300.26862 445.95615,264.04582 353.92142,232.48903 264.05603,217.5405 157.85564,220.12211 c -51.89634,1.21501 -63.352455,1.35817 -66.8002,22.05379 l -10.6104,63.69056 c -1.4907,9.409 10.7136,14.72667 25.1875,14.5625 122.31551,-1.38732 138.88242,0.64441 223.54789,16.43164 89.78947,16.74268 130.70882,43.46701 130.09264,111.20248 l 0.0125,141.66265 c -0.16058,21.71633 4.2519,112.6156 -31.3438,114 -120.0153,4.6673 -236.76326,3.1722 -357.194861,0.9062 -14.4723,-0.2723 -22.1782,2.6535 -25.1875,14.5625 l -13.028694,78.67578 c -2.733821,16.5086 25.893144,13.47941 66.939294,11.78042 58.776881,-2.4329 157.218171,-5.58466 227.065561,-6.77896 60.38126,-1.03244 83.04441,-0.0118 140.93196,1.38906 60.85463,1.47268 57.61532,-33.86792 56.56804,-201.5038 z"
       id="path3004-1-1-0"
       inkscape:connector-curvature="0"
       sodipodi:nodetypes="cscscssccsscsssscc" />
  </g>
</svg>
