<?xml version="1.0" encoding="UTF-8" standalone="no"?>
<!-- Created with Inkscape (http://www.inkscape.org/) -->

<svg
   xmlns:dc="http://purl.org/dc/elements/1.1/"
   xmlns:cc="http://creativecommons.org/ns#"
   xmlns:rdf="http://www.w3.org/1999/02/22-rdf-syntax-ns#"
   xmlns:svg="http://www.w3.org/2000/svg"
   xmlns="http://www.w3.org/2000/svg"
   xmlns:sodipodi="http://sodipodi.sourceforge.net/DTD/sodipodi-0.dtd"
   xmlns:inkscape="http://www.inkscape.org/namespaces/inkscape"
   width="1000"
   height="1000"
   id="svg2"
   version="1.1"
   inkscape:version="0.48.4 r9939"
   sodipodi:docname="200-resh.new.svg">
  <defs
     id="defs4" />
  <sodipodi:namedview
     id="base"
     pagecolor="#ffffff"
     bordercolor="#666666"
     borderopacity="1.0"
     inkscape:pageopacity="0.0"
     inkscape:pageshadow="2"
     inkscape:zoom="0.6"
     inkscape:cx="722.17745"
     inkscape:cy="453.69092"
     inkscape:document-units="px"
     inkscape:current-layer="g3784"
     showgrid="true"
     gridtolerance="10"
     guidetolerance="1"
     showguides="true"
     inkscape:guide-bbox="true"
     inkscape:window-width="1680"
     inkscape:window-height="994"
     inkscape:window-x="-4"
     inkscape:window-y="-4"
     inkscape:window-maximized="1">
    <sodipodi:guide
       orientation="0,1"
       position="500,247"
       id="guide3019" />
    <sodipodi:guide
       orientation="1,0"
       position="100,500"
       id="guide2991" />
    <sodipodi:guide
       orientation="1,0"
       position="180,500"
       id="guide2993" />
    <sodipodi:guide
       orientation="0,1"
       position="1270,728.33333"
       id="guide2994" />
    <sodipodi:guide
       orientation="0,1"
       position="500,950"
       id="guide2996" />
    <sodipodi:guide
       orientation="0,1"
       position="500,841"
       id="guide4483" />
  </sodipodi:namedview>
  <metadata
     id="metadata7">
    <rdf:RDF>
      <cc:Work
         rdf:about="">
        <dc:format>image/svg+xml</dc:format>
        <dc:type
           rdf:resource="http://purl.org/dc/dcmitype/StillImage" />
        <dc:title></dc:title>
      </cc:Work>
    </rdf:RDF>
  </metadata>
  <g
     inkscape:label="Layer 1"
     inkscape:groupmode="layer"
     id="layer1"
     transform="translate(0,-52.362183)">
    <g
       id="g5885">
      <g
         id="g3770"
         transform="translate(112.80009,219.9375)" />
      <g
         id="g3784"
         transform="translate(554.44441,260.99232)">
        <path
           id="path3786"
           d="m -17.167995,443.3179 c 0.288885,23.84471 1.77165,67.35827 1.77165,67.35827 -0.74409,8.29134 -2.40945,10.77165 -3.36614,13.1811 -8.00787,14.06693 -54.779531,35.04331 -60.732281,35.43307 -5.917329,0.4252 -7.972439,-10.16929 -7.972439,-14.27953 2.05511,-34.83071 5.147945,-77.38578 5.102359,-116.18503 L -82.66008,177.543 c -0.02552,-21.72048 -7.61811,-110.62204 -80.22047,-113.98819 -119.97638,-5.59842 -157.07823,-3.18897 -277.51524,-0.92126 -14.49212,0.28347 -26.6811,-5.13779 -25.19291,-14.56299 5.63386,-34.370077 11.62205,-68.669289 18.3189,-102.862202 0.85039,-4.429134 3.08268,-7.015748 6.73228,-6.944882 l 12.64961,0.212598 c 6.20079,0.07087 26.85826,18.425197 40.21653,18.425197 64.38189,0.141732 109.88138,1.311024 157.89319,2.444882 237.8622,5.704724 207.120497,30.8501859 209.23228,205.157477 z"
           style="fill:none;stroke:#000000;stroke-width:1.02755904px;stroke-linecap:butt;stroke-linejoin:miter;stroke-miterlimit:4;stroke-opacity:1;stroke-dasharray:none"
           inkscape:connector-curvature="0"
           sodipodi:nodetypes="sccccssccccccccss" />
      </g>
    </g>
  </g>
</svg>
