<?xml version="1.0" encoding="UTF-8" standalone="no"?>
<!-- Created with Inkscape (http://www.inkscape.org/) -->

<svg
   xmlns:dc="http://purl.org/dc/elements/1.1/"
   xmlns:cc="http://creativecommons.org/ns#"
   xmlns:rdf="http://www.w3.org/1999/02/22-rdf-syntax-ns#"
   xmlns:svg="http://www.w3.org/2000/svg"
   xmlns="http://www.w3.org/2000/svg"
   xmlns:sodipodi="http://sodipodi.sourceforge.net/DTD/sodipodi-0.dtd"
   xmlns:inkscape="http://www.inkscape.org/namespaces/inkscape"
   width="1000"
   height="1000"
   id="svg2"
   version="1.1"
   inkscape:version="0.48.4 r9939"
   sodipodi:docname="30-lamed.svg">
  <defs
     id="defs4" />
  <sodipodi:namedview
     id="base"
     pagecolor="#ffffff"
     bordercolor="#666666"
     borderopacity="1.0"
     inkscape:pageopacity="0.0"
     inkscape:pageshadow="2"
     inkscape:zoom="0.69999999"
     inkscape:cx="136.108"
     inkscape:cy="688.38609"
     inkscape:document-units="px"
     inkscape:current-layer="layer1"
     showgrid="true"
     gridtolerance="10"
     guidetolerance="10"
     showguides="false"
     inkscape:guide-bbox="true"
     inkscape:window-width="1680"
     inkscape:window-height="988"
     inkscape:window-x="-8"
     inkscape:window-y="-8"
     inkscape:window-maximized="1">
    <sodipodi:guide
       orientation="0,1"
       position="500,247"
       id="guide3019" />
    <sodipodi:guide
       orientation="0,1"
       position="500,732"
       id="guide3072" />
    <sodipodi:guide
       orientation="0,1"
       position="500,842"
       id="guide3074" />
    <sodipodi:guide
       orientation="0,1"
       position="500,955"
       id="guide3076" />
    <sodipodi:guide
       orientation="1,0"
       position="100,500"
       id="guide3867" />
    <sodipodi:guide
       orientation="1,0"
       position="180,500"
       id="guide3869" />
  </sodipodi:namedview>
  <metadata
     id="metadata7">
    <rdf:RDF>
      <cc:Work
         rdf:about="">
        <dc:format>image/svg+xml</dc:format>
        <dc:type
           rdf:resource="http://purl.org/dc/dcmitype/StillImage" />
        <dc:title />
      </cc:Work>
    </rdf:RDF>
  </metadata>
  <g
     inkscape:label="Layer 1"
     inkscape:groupmode="layer"
     id="layer1"
     transform="translate(0,-52.362183)">
    <path
       style="fill:none;stroke:#000000;stroke-width:1.02755904px;stroke-linecap:butt;stroke-linejoin:miter;stroke-miterlimit:4;stroke-opacity:1;stroke-dasharray:none"
       d="m 1214.8428,-102.54651 c -6.8542,13.177075 -17.2509,33.161515 -20.5625,39.531245 -3.6658,7.05101 -1.2641,15.591378 4.7812,21 36.417,32.581684 30.885,99.860731 30.875,128.75 -0.015,44.133415 -0.1459,84.730755 -0.2187,130.126585 -0.053,33.32586 -4.0141,61.66303 -6.1106,84.43592 -0.8747,9.50178 10.7265,14.83651 25.2188,14.5625 120.4368,-2.27717 152.9773,-4.67869 272.9543,0.90625 82.2735,3.82984 56.9363,67.02977 35.8437,114 -16.5358,36.82288 -75.2805,167.52033 -112.8945,251.28125 -15.8943,35.39429 -33.3895,81.3447 -35.2283,116.1875 -0.2166,4.10453 2.0501,14.6876 7.9688,14.28125 5.9515,-0.40861 64.2454,-24.24968 71.9814,-38.46796 1.239,-2.27719 2.6309,-7.54781 3.375,-13.1875 0.5932,-4.49575 12.0254,-46.9424 24.4226,-75.68829 38.4478,-89.15002 82.6818,-191.70328 115.3438,-267.4375 69.0329,-160.06857 53.7369,-200.56187 -138.3228,-205.15625 -48.0115,-1.14851 -132.889,-2.35244 -197.271,-2.46875 -8.5961,-0.0155 -14.8972,-1.35116 -14.9062,-14.94654 -0.031,-47.01782 -0.075,-105.290782 -0.094,-141.053465 -0.024,-46.8848939 -1.9063,-60.33293 21.2812,-105.15625 6.024,-11.64486 -6.9143,-21.87225 -13.4062,-27.40625 -10.8683,-9.26461 -40.121,-29.208435 -52.0625,-34.406245 -9.7318,-4.23599 -19.2402,3.14439 -22.9688,10.3125 z"
       id="path3786"
       inkscape:connector-curvature="0"
       sodipodi:nodetypes="csssssssssssssssssssssssc" />
    <path
       id="path3786-1"
       d="m 1978.2192,228.77142 c 221.3222,3.79606 200.6387,12.84278 209.9473,197.07628 l 3.3688,66.67389 c 1.4051,27.80982 -1.34,46.41607 -25.023,75.48814 L 2049.0575,712.1911 c -24.4051,29.95843 -37.589,53.07388 -42.763,74.8747 -1.2762,5.37754 -2.6703,10.46689 -3.366,13.1811 -2.9111,11.3582 -62.4598,25.91726 -68.4115,26.32586 -5.9183,0.4063 -8.7163,-10.23726 -7.972,-14.2795 6.4816,-35.19993 34.1736,-89.36538 58.2935,-119.75643 l 133.6868,-168.44569 c 12.4698,-15.71203 12.8259,-28.9677 7.5272,-82.17358 -2.1525,-21.6136 -8.3329,-105.55782 -80.9353,-108.93744 -119.9766,-5.58488 -155.4705,-3.19849 -275.9073,-0.9213 -14.4922,0.27401 -25.8089,-5.04096 -25.193,-14.563 0.6198,-9.58109 6.9734,-54.59013 7.0204,-82.55009 l 0.2187,-130.12659 c 0.048,-28.889236 5.542,-96.1683249 -30.875,-128.750005 -6.0453,-5.40862 -8.447,-13.94899 -4.7812,-21 3.3115,-6.36973 13.3741,-26.535112 18.9997,-36.526758 7.7536,-13.771259 14.7997,-17.552969 24.5316,-13.316979 11.9414,5.19781 41.1942,25.141627 52.0625,34.406237 6.4919,5.534 19.4302,15.76139 13.4062,27.40625 -23.1875,44.82332 -21.3135,58.27136 -21.2812,105.15625 l 0.094,136.760325 c 0.01,11.0392 9.7783,17.00721 23.0251,17.49175 13.2469,0.48453 103.7642,1.50163 151.7815,2.32521 z"
       style="fill:none;stroke:#000000;stroke-width:1.02755904px;stroke-linecap:butt;stroke-linejoin:miter;stroke-miterlimit:4;stroke-opacity:1;stroke-dasharray:none"
       inkscape:connector-curvature="0"
       sodipodi:nodetypes="sssssssssssssssssssssssssss" />
    <path
       id="path3786-1-9-4-2-5-1"
       d="m 342.58343,215.44347 c 221.32228,3.7961 182.54386,15.78727 209.94738,198.9177 9.6405,64.42488 2.13123,95.34706 -23.91185,136.80502 -35.54431,56.58296 -68.7972,102.61622 -113.45914,151.72562 -26.65939,29.314 -75.16739,80.0261 -106.86249,108.6204 -4.1779,3.7692 -12.3323,6.4397 -16.3869,1.2019 -15.9947,-20.6625 -22.9556,-29.8645 -31.7683,-46.2761 -2.0931,-3.8979 -0.1745,-8.89983 3.7984,-11.9739 23.0248,-17.81576 53.8033,-44.76254 85.2621,-75.25524 51.93284,-50.3382 95.89548,-105.5263 133.68698,-168.4456 10.3283,-17.1957 12.8258,-28.9677 7.5272,-82.1736 -2.1525,-21.6136 -8.3329,-105.5578 -80.93534,-108.9375 -119.97664,-5.5848 -155.47054,-3.1985 -275.90734,-0.9213 -14.4922,0.274 -25.8089,-5.0409 -25.193,-14.563 0.6197,-9.5811 6.96199,-54.59012 7.0203,-82.5501 0.0729,-34.95756 0.14585,-69.91513 0.2187,-104.87269 0.071,-34.068725 -9.1009,-91.168399 -30.874997,-128.75 -4.0665,-7.018753 -8.447,-13.949 -4.7812,-21 3.3115,-6.369796 13.3741,-26.535196 18.9997,-36.526796 7.753697,-13.7713 14.799697,-17.553 24.531597,-13.317 11.9414,5.1978 41.1942,25.1416 52.0625,34.4063 6.4919,5.534 20.126,16.148418 13.4062,27.406196 -25.0344,41.940776 -21.32626,51.705076 -21.2812,105.156305 0.0313,37.168825 0.0637,74.337655 0.094,111.506485 0.009,11.0392 9.7783,17.0072 23.0252,17.4917 13.2468,0.4846 103.7642,1.5017 151.7815,2.3252 z"
       style="fill:none;stroke:#000000;stroke-width:1.02755904px;stroke-linecap:butt;stroke-linejoin:miter;stroke-miterlimit:4;stroke-opacity:1;stroke-dasharray:none"
       inkscape:connector-curvature="0"
       sodipodi:nodetypes="ssssssssssssssssssssssssss" />
    <path
       id="path3786-1-9-4-2-5-1-5"
       d="m -441.87657,230.80369 c 221.32228,3.7961 200.37498,14.6977 209.94738,198.9177 l 3.3688,64.8325 c 1.4449,27.8078 -7.89035,39.87752 -27.28065,71.97252 -34.5535,57.1934 -68.7972,102.61622 -113.45914,151.72562 -26.65939,29.314 -75.16739,80.0261 -106.86249,108.6204 -4.1779,3.7692 -12.3323,6.4397 -16.3869,1.2019 -15.9947,-20.6625 -22.9556,-29.8645 -31.7683,-46.2761 -2.0931,-3.8979 -0.1745,-8.89983 3.7984,-11.9739 23.0248,-17.81576 53.8033,-44.76254 85.2621,-75.25524 51.93284,-50.3382 95.89548,-105.5263 133.68698,-168.4456 10.3283,-17.1957 12.8258,-28.9677 7.5272,-82.1736 -2.1525,-21.6136 -8.3329,-105.5578 -80.93534,-108.9375 -119.97664,-5.5848 -155.47054,-3.1985 -275.90733,-0.9213 -14.4922,0.274 -25.8089,-5.0409 -25.193,-14.563 0.6197,-9.5811 6.96199,-54.59012 7.0203,-82.5501 l 0.2187,-104.87269 c 0.071,-34.068729 -9.1009,-91.168399 -30.875,-128.7499994 -4.0665,-7.01875 -8.447,-13.9489996 -4.7812,-20.9999996 3.3115,-6.369796 13.3741,-26.535201 18.9997,-36.526801 7.7537,-13.7713 14.7997,-17.553 24.5316,-13.317 11.9414,5.1978 41.1942,25.1416 52.0625,34.4063 6.49189,5.534005 20.12599,16.148421 13.40619,27.4062006 -25.03439,41.9407704 -21.32625,51.7050704 -21.28119,105.1563004 l 0.094,111.506489 c 0.009,11.0392 9.7783,17.0072 23.02519,17.4917 13.2468,0.4846 103.7642,1.5017 151.7815,2.3252 z"
       style="fill:none;stroke:#000000;stroke-width:1.02755904px;stroke-linecap:butt;stroke-linejoin:miter;stroke-miterlimit:4;stroke-opacity:1;stroke-dasharray:none"
       inkscape:connector-curvature="0"
       sodipodi:nodetypes="sssssssssssssssssssssssssss" />
  </g>
</svg>
