<?xml version="1.0" encoding="UTF-8" standalone="no"?>
<!-- Created with Inkscape (http://www.inkscape.org/) -->

<svg
   xmlns:dc="http://purl.org/dc/elements/1.1/"
   xmlns:cc="http://creativecommons.org/ns#"
   xmlns:rdf="http://www.w3.org/1999/02/22-rdf-syntax-ns#"
   xmlns:svg="http://www.w3.org/2000/svg"
   xmlns="http://www.w3.org/2000/svg"
   xmlns:sodipodi="http://sodipodi.sourceforge.net/DTD/sodipodi-0.dtd"
   xmlns:inkscape="http://www.inkscape.org/namespaces/inkscape"
   width="1000"
   height="1000"
   id="svg2"
   version="1.1"
   inkscape:version="0.48.4 r9939"
   sodipodi:docname="300-shin.svg">
  <defs
     id="defs4" />
  <sodipodi:namedview
     id="base"
     pagecolor="#ffffff"
     bordercolor="#666666"
     borderopacity="1.0"
     inkscape:pageopacity="0.0"
     inkscape:pageshadow="2"
     inkscape:zoom="0.35"
     inkscape:cx="373.09318"
     inkscape:cy="407.62953"
     inkscape:document-units="px"
     inkscape:current-layer="layer1"
     showgrid="true"
     gridtolerance="10"
     guidetolerance="10"
     showguides="false"
     inkscape:guide-bbox="true"
     inkscape:window-width="1680"
     inkscape:window-height="988"
     inkscape:window-x="-8"
     inkscape:window-y="-8"
     inkscape:window-maximized="1">
    <sodipodi:guide
       orientation="0,1"
       position="500,247"
       id="guide3019" />
    <sodipodi:guide
       orientation="0,1"
       position="500,732"
       id="guide3072" />
    <sodipodi:guide
       orientation="0,1"
       position="500,842"
       id="guide3074" />
    <sodipodi:guide
       orientation="0,1"
       position="500,955"
       id="guide3076" />
    <sodipodi:guide
       orientation="1,0"
       position="100,500"
       id="guide3867" />
    <sodipodi:guide
       orientation="1,0"
       position="180,500"
       id="guide3869" />
  </sodipodi:namedview>
  <metadata
     id="metadata7">
    <rdf:RDF>
      <cc:Work
         rdf:about="">
        <dc:format>image/svg+xml</dc:format>
        <dc:type
           rdf:resource="http://purl.org/dc/dcmitype/StillImage" />
        <dc:title />
      </cc:Work>
    </rdf:RDF>
  </metadata>
  <g
     inkscape:label="Layer 1"
     inkscape:groupmode="layer"
     id="layer1"
     transform="translate(0,-52.362183)">
    <path
       sodipodi:nodetypes="ssssssssssssssssssssssssssss"
       inkscape:connector-curvature="0"
       id="path3004-4-1-5"
       d="m 2234.4925,508.1672 c 1.6041,92.18825 6.1825,152.74172 -29.5005,166.93202 -64.0636,25.47658 -236.5901,94.34654 -264.9791,21.80088 -28.1898,-72.03663 -46.2516,-147.68837 -60.095,-224.7772 -12.6306,-70.33529 36.968,-107.65029 51.8772,-105.31446 19.2968,3.02325 35.1027,24.98996 46.2113,7.68122 l 33.9341,-52.87419 c 7.9197,-12.33996 -9.5479,-28.009 -17.9216,-34.5243 -58.8745,-45.80839 -91.751,-63.97142 -146.9823,-87.61262 -10.2993,-4.4085 -21.2076,-1.32982 -28.5642,12.8204 l -25.5563,49.15669 c -4.5593,8.76972 -2.8275,21.18227 5.9521,26.1525 l 64.5068,36.51823 c 11.4818,6.50001 17.305,20.0341 9.403,32.40676 l -40.6321,63.61987 c -15.3205,23.9882 -19.8294,30.36398 -6.0574,103.897 14.9089,79.60309 38.0892,164.70479 65.3821,237.0734 43.9197,116.45545 264.1362,5.64581 351.2038,-38.4212 52.0732,-26.4417 62.0101,-21.13567 56.568,-201.5038 l -2.1344,-70.74017 c -3.2448,-107.54254 31.604,-146.77345 -115.148,-186.26328 -25.1389,-6.76469 -45.4991,-2.25894 -53.664,11.99195 l -60.139,104.96592 c -3.5998,6.28313 -2.1673,11.48408 7.4409,16.07578 l 12.544,5.99471 c 8.3588,3.99463 11.3912,-1.42928 17.1748,-10.49611 13.7736,-21.59261 43.6964,-28.42339 68.3684,-19.2719 63.5538,23.57371 58.6095,8.40317 60.8074,134.7119 z"
       style="fill:none;stroke:#000000;stroke-width:1.03176868000000010px;stroke-linecap:butt;stroke-linejoin:miter;stroke-opacity:1" />
    <path
       sodipodi:nodetypes="ssssssssssssssssss"
       inkscape:connector-curvature="0"
       id="path3004-4-1-5-8"
       d="m 1622.7934,1022.6681 -40.9325,65.0449 c -15.1598,24.0901 -16.0041,25.4314 -6.0574,103.897 10.5047,82.8683 38.7114,173.1746 75.3821,244.9305 48.5372,94.976 250.0765,24.8575 316.0812,-10.996 81.9003,-44.4879 82.5033,-112.4872 89.6577,-340.8613 3.6378,-116.12319 38.1316,-115.96741 -86.047,-158.2581 -92.1,-31.36589 -229.7073,-43.20582 -335.9366,-43.92379 -56.8454,-0.3842 -68.3411,-0.34444 -71.1153,20.26406 -2.8475,21.15333 -5.6952,42.30673 -8.5429,63.46003 -1.271,9.4412 6.9086,13.174 24.6572,16.3303 33.0652,5.8801 54.8865,20.991 42.8535,40.1124 z m 231.3084,-20.3978 c 119.8741,21.763 146.1946,61.4132 140.2072,187.599 -4.8263,101.7162 -31.6563,147.2619 -60.5577,164.3943 -63.489,37.6355 -205.331,71.2803 -243.5437,2.0942 -35.2318,-63.789 -56.1015,-138.3482 -60.5747,-216.6749 -7.3471,-128.6472 118.3859,-156.67182 224.4689,-137.4126 z"
       style="fill:none;stroke:#000000;stroke-width:1.03176868000000010px;stroke-linecap:butt;stroke-linejoin:miter;stroke-opacity:1" />
    <path
       sodipodi:nodetypes="sssssssssssssssssssssssss"
       inkscape:connector-curvature="0"
       id="path3004-4-1-5-7"
       d="m 2869.783,502.27022 c -9.5139,91.71011 -22.8475,150.19105 -53.1734,161.88135 -64.3292,24.7982 -238.7329,94.39726 -264.9791,26.85156 -28.0173,-72.10386 -46.2516,-147.68831 -60.095,-224.77721 -12.6306,-70.3352 19.7954,-107.6502 34.7046,-105.3144 19.2968,3.0232 21.8885,16.77564 32.9971,-0.53309 l 33.9341,-52.8742 c 7.9196,-12.33994 -9.7571,-27.7488 -17.9216,-34.5243 -28.5174,-23.66554 -76.5725,-53.25711 -120.7323,-71.54117 -10.351,-4.28575 -21.2076,-1.32979 -28.5642,12.8204 l -25.5563,49.1567 c -4.5594,8.76969 -2.8624,21.2443 5.9521,26.1525 l 51.471,28.66106 c 11.5274,6.41887 14.4822,18.63264 9.403,32.4068 l -23.4595,63.6198 c -9.8475,26.7054 -17.3294,41.79257 -6.0574,103.897 14.463,79.68534 38.0892,164.70481 65.3821,237.07341 43.9197,116.45549 264.1362,5.6459 351.2038,-38.4212 52.0732,-26.4417 61.0261,-40.93511 65.7671,-81.80072 l 30.2982,-261.15749 c 12.399,-106.87464 78.071,-98.76988 -70.7013,-171.08958 -23.4134,-11.3815 -26.5672,1.65352 -35.9863,20.0731 l -26.804,52.4166 c -10.3387,20.21792 2.4043,21.03343 19.1601,29.6782 55.4054,28.58513 50.2472,38.38918 33.7572,197.34488 z"
       style="fill:none;stroke:#000000;stroke-width:1.03176868000000010px;stroke-linecap:butt;stroke-linejoin:miter;stroke-opacity:1" />
    <path
       style="fill:none;stroke:#000000;stroke-width:1px;stroke-linecap:butt;stroke-linejoin:miter;stroke-opacity:1"
       d="m 2609.709,697.26818 59.0939,-463.40748 c 2.4773,-19.42673 10.8218,-19.67493 18.1827,-16.16244 l 77.5291,36.99518 c 7.6614,3.65586 14.8863,11.5664 10.8952,19.5226 l -41.9573,83.64089 c -5.2997,10.56495 -12.8621,5.26525 -22.2233,0 -5.5616,-3.1281 -11.3129,-4.34699 -12.7316,5.2018 l -50.403,339.26022"
       id="path6601"
       inkscape:connector-curvature="0"
       sodipodi:nodetypes="csssssssc" />
    <path
       style="fill:none;stroke:#000000;stroke-width:1px;stroke-linecap:butt;stroke-linejoin:miter;stroke-opacity:1"
       d="m 2411.6628,1474.4593 c 48.2202,-99.2851 96.0918,-199.1179 125.8741,-327.3768 10.0517,-43.2884 27.1011,-64.6501 51.9998,-103.8218 10.3575,-16.2949 -0.4121,-27.1939 -12.1572,-35.0837 -45.326,-30.44802 -72.1736,-42.52722 -95.9946,-49.77271 -8.1215,-2.47029 -14.4374,4.3886 -18.7515,12.17441 l -34.3912,62.067 c -10.7844,19.463 19.3822,33.6293 31.0611,39.4925 16.2137,8.1399 28.3336,15.769 26.5558,30.3328 -17.2108,140.9989 -65.985,247.565 -111.7996,357.3597"
       id="path6601-2"
       inkscape:connector-curvature="0"
       sodipodi:nodetypes="cssssssssc" />
    <path
       id="path3786-1-9-4-2-5-1"
       d="m 2197.4093,1396.2916 c 13.722,4.6695 26.0924,3.27 28.4806,-5.9683 2.4031,-9.2955 10.4041,-54.0436 19.1073,-80.6146 l 69.9963,-213.7014 c 10.6046,-32.3763 38.542,-70.1967 75.9623,-94.1002 6.836,-4.36668 12.3803,-10.61388 11.0995,-18.45696 -1.1569,-7.08534 -10.8483,-47.95596 -13.0727,-59.20458 -3.0658,-15.50384 -8.5787,-21.29658 -19.1467,-20.3112 -12.9673,1.20915 -46.985,11.02148 -60.2027,16.42928 -7.8953,3.23017 -24.1621,9.05656 -21.2936,21.84973 10.6865,47.66075 4.0897,55.77066 -12.6182,106.54353 l -72.3649,219.9058 c -2.614,7.9433 -22.8286,69.3307 -35.0101,98.4217 -4.8205,11.512 -0.1238,19.275 5.9024,21.3257 z"
       style="fill:none;stroke:#000000;stroke-width:1.02755904000000010px;stroke-linecap:butt;stroke-linejoin:miter;stroke-miterlimit:4;stroke-opacity:1;stroke-dasharray:none"
       inkscape:connector-curvature="0"
       sodipodi:nodetypes="sssssssssssssss" />
    <g
       id="g3231">
      <path
         style="fill:none;fill-opacity:1;stroke:#000000;stroke-width:1.03176868000000010px;stroke-linecap:butt;stroke-linejoin:miter;stroke-opacity:1"
         d="m 534.24291,683.43412 c -63.23358,38.06324 -245.6357,71.2803 -283.8484,2.0942 -35.2318,-63.789 -51.6292,-144.25784 -60.0199,-221.89904 -7.6326,-70.6263 22.3705,-107.3186 37.2797,-104.9828 19.2968,3.0232 24.7456,19.27566 35.8542,1.96691 l 33.9341,-52.8742 c 7.9196,-12.33991 -10.3395,-27.10273 -17.9216,-34.5243 -20.7413,-20.30204 -79.1211,-55.98427 -111.8765,-70.02902 -10.2965,-4.41492 -21.2076,-1.32979 -28.5642,12.8204 l -25.5563,49.1567 c -4.5593,8.76968 -2.6225,20.83648 5.9521,26.1525 l 39.7581,24.64891 c 11.2138,6.95224 14.9881,18.82991 9.403,32.4068 l -26.0346,63.2882 c -12.8066,31.13194 -15.5486,37.72661 -6.6122,103.5653 11.2349,82.77248 38.7114,178.73044 75.3821,250.48634 48.5373,94.976 290.1366,24.4038 356.3859,-10.996 92.6145,-49.488 125.40573,-147.72143 142.38507,-378.15042 6.51064,-88.35679 62.63781,-91.94367 21.47867,-125.08353 -16.70058,-13.44671 -43.10259,-29.59476 -78.16114,-46.81487 -14.5911,-7.16688 -26.12632,-4.8273 -33.72588,9.66903 l -29.07179,55.45507 c -5.09171,9.71255 -1.43715,19.15192 6.97734,24.14566 41.31228,24.51753 57.52763,35.37009 40.29085,168.36195 -16.55539,127.73455 -55.08925,191.88198 -103.68862,221.13621 z"
         id="path3004-4-1-5-8-9"
         inkscape:connector-curvature="0"
         sodipodi:nodetypes="sssssssssssssssssssssssss" />
      <path
         style="fill:none;fill-opacity:1;stroke:#000000;stroke-width:1.03176868000000010px;stroke-linecap:butt;stroke-linejoin:miter;stroke-opacity:1"
         d="m 330.88988,615.73858 c -1.39221,3.85708 -1.32991,12.53176 3.53007,15.9774 11.79882,8.36516 57.29204,7.1025 69.10065,-5.57389 1.75621,-1.88527 3.93394,-3.91054 7.03664,-11.65113 1.68805,-4.21133 10.32739,-52.97629 16.95897,-75.87386 l 20.71838,-71.5366 c 20.06588,-69.28363 33.29805,-129.97037 70.44903,-172.78446 12.30076,-14.17583 -5.1285,-33.48536 -12.53536,-41.08181 -18.18046,-18.64587 -50.9167,-39.01453 -83.30641,-53.33487 -10.24637,-4.53016 -21.20904,-1.30684 -28.55029,12.85134 -8.50098,16.39481 -17.00195,32.78961 -25.50293,49.18442 -4.54979,8.77463 -0.53817,18.44592 5.98048,26.146 38.55579,45.54358 12.22815,153.75037 -2.90914,208.72012 -11.35328,41.22845 -27.80266,82.47745 -40.97009,118.95734 z"
         id="path3004-4"
         inkscape:connector-curvature="0"
         sodipodi:nodetypes="ssssssssssssss" />
    </g>
    <path
       sodipodi:nodetypes="csssccccccc"
       inkscape:connector-curvature="0"
       id="path3004-8"
       d="m 3009.9276,1306.6444 c 9.6686,-29.5185 33.046,-115.2177 47.6032,-197.9821 2.54,-14.4411 -6.098,-26.5024 -13.5128,-34.0911 -21.5532,-22.0584 -58.7154,-45.5786 -99.6611,-62.9698 -10.3116,-4.3797 -21.5761,-1.5154 -28.5641,12.8203 l -25.5564,49.1568 c -4.1376,8.9763 -2.2856,20.3281 5.9522,26.1524 l 33.8559,20.8205 c 68.0166,46.0115 26.8709,154.0325 19.5633,207.8126 0.3099,4.0889 2.0428,5.5242 7.9862,5.1148 5.9543,-0.4103 44.3411,-12.7838 52.3336,-26.8344 z"
       style="fill:none;stroke:#000000;stroke-width:1.03176868000000010px;stroke-linecap:butt;stroke-linejoin:miter;stroke-opacity:1" />
    <path
       sodipodi:nodetypes="sssssssssssssssssssssssss"
       inkscape:connector-curvature="0"
       id="path3004-4-1-5-8-9-1"
       d="m -350.87608,721.69799 c -63.23358,38.06324 -245.6357,71.2803 -283.8484,2.0942 -35.2318,-63.789 -51.6292,-138.702 -60.0199,-216.3432 -7.6326,-70.6263 22.3705,-107.3186 37.2797,-104.9828 19.2968,3.0232 24.7456,19.27566 35.8542,1.96691 l 33.9341,-52.8742 c 7.9196,-12.33991 -10.3395,-27.10273 -17.9216,-34.5243 -20.7413,-20.30204 -79.1211,-55.98427 -111.8765,-70.02902 -10.2965,-4.41492 -21.2076,-1.32979 -28.5642,12.8204 l -25.5563,49.1567 c -4.5593,8.76968 -2.6225,20.83648 5.9521,26.1525 l 39.7581,24.64891 c 11.2138,6.95224 14.9881,18.82991 9.403,32.4068 l -26.0346,63.2882 c -12.8066,31.13194 -15.5486,37.72661 -6.6122,103.5653 11.2349,82.77248 38.7114,173.1746 75.3821,244.9305 48.5373,94.97605 290.1366,24.4038 356.3859,-10.996 92.6145,-49.488 120.40573,-142.16559 137.38507,-372.59458 6.51064,-88.35679 62.63781,-91.94367 21.47867,-125.08353 -16.70058,-13.44671 -43.10259,-29.59476 -78.16114,-46.81487 -14.5911,-7.16688 -26.12632,-4.8273 -33.72588,9.66903 l -29.07179,55.45507 c -5.09171,9.71255 -1.43715,19.15192 6.97734,24.14566 41.31228,24.51753 57.52763,35.37009 40.29085,168.36195 -16.55539,127.73455 -50.08925,186.32614 -98.68862,215.58037 z"
       style="fill:none;stroke:#000000;stroke-width:1.03176868000000010px;stroke-linecap:butt;stroke-linejoin:miter;stroke-opacity:1;fill-opacity:1" />
    <path
       sodipodi:nodetypes="sssssssssssss"
       inkscape:connector-curvature="0"
       id="path3004-4-7"
       d="m -553.86146,661.65039 c -1.39226,3.85706 -2.27906,14.6561 3.53007,15.9774 5.81967,1.3237 38.77695,1.15101 50.26925,-10.21675 1.83178,-1.81193 3.38343,-4.15463 7.03664,-11.65113 23.49611,-48.21476 45.19796,-101.86016 56.50875,-142.7676 19.22271,-69.52229 32.9304,-129.97037 70.08138,-172.78446 12.30076,-14.17583 -5.1285,-33.48536 -12.53536,-41.08181 -18.18046,-18.64587 -50.9167,-39.01453 -83.30641,-53.33487 -10.24637,-4.53016 -21.20904,-1.30684 -28.55029,12.85134 -8.50098,16.39481 -17.00195,32.78961 -25.50293,49.18442 -4.54979,8.77463 -2.1413,20.16096 5.98048,26.146 49.42754,36.42377 25.15262,107.90836 0.12576,199.21149 -12.15885,44.358 -29.42489,89.09223 -43.63734,128.46597 z"
       style="fill:none;fill-opacity:1;stroke:#000000;stroke-width:1.03176868000000010px;stroke-linecap:butt;stroke-linejoin:miter;stroke-opacity:1" />
  </g>
</svg>
