<?xml version="1.0" encoding="UTF-8" standalone="no"?>
<!-- Created with Inkscape (http://www.inkscape.org/) -->

<svg
   xmlns:dc="http://purl.org/dc/elements/1.1/"
   xmlns:cc="http://creativecommons.org/ns#"
   xmlns:rdf="http://www.w3.org/1999/02/22-rdf-syntax-ns#"
   xmlns:svg="http://www.w3.org/2000/svg"
   xmlns="http://www.w3.org/2000/svg"
   xmlns:sodipodi="http://sodipodi.sourceforge.net/DTD/sodipodi-0.dtd"
   xmlns:inkscape="http://www.inkscape.org/namespaces/inkscape"
   width="1000"
   height="1000"
   id="svg2"
   version="1.1"
   inkscape:version="0.48.4 r9939"
   sodipodi:docname="4-daled-2b.svg">
  <defs
     id="defs4">
    <inkscape:path-effect
       effect="spiro"
       id="path-effect6019"
       is_visible="true" />
  </defs>
  <sodipodi:namedview
     id="base"
     pagecolor="#ffffff"
     bordercolor="#666666"
     borderopacity="1.0"
     inkscape:pageopacity="0.0"
     inkscape:pageshadow="2"
     inkscape:zoom="0.70710678"
     inkscape:cx="444.308"
     inkscape:cy="491.61253"
     inkscape:document-units="px"
     inkscape:current-layer="layer1"
     showgrid="true"
     gridtolerance="10"
     guidetolerance="1"
     showguides="false"
     inkscape:guide-bbox="true"
     inkscape:window-width="1680"
     inkscape:window-height="994"
     inkscape:window-x="-4"
     inkscape:window-y="-4"
     inkscape:window-maximized="1">
    <sodipodi:guide
       orientation="0,1"
       position="500,247"
       id="guide3019" />
    <sodipodi:guide
       orientation="1,0"
       position="100,500"
       id="guide2991" />
    <sodipodi:guide
       orientation="1,0"
       position="180,500"
       id="guide2993" />
    <sodipodi:guide
       orientation="0,1"
       position="1270,728.33333"
       id="guide2994" />
    <sodipodi:guide
       orientation="0,1"
       position="500,950"
       id="guide2996" />
    <sodipodi:guide
       orientation="0,1"
       position="500,841"
       id="guide4483" />
  </sodipodi:namedview>
  <metadata
     id="metadata7">
    <rdf:RDF>
      <cc:Work
         rdf:about="">
        <dc:format>image/svg+xml</dc:format>
        <dc:type
           rdf:resource="http://purl.org/dc/dcmitype/StillImage" />
        <dc:title></dc:title>
      </cc:Work>
    </rdf:RDF>
  </metadata>
  <g
     inkscape:label="Layer 1"
     inkscape:groupmode="layer"
     id="layer1"
     transform="translate(0,-52.362183)">
    <path
       style="fill:none;stroke:#000000;stroke-width:1.03771424px;stroke-linecap:butt;stroke-linejoin:miter;stroke-opacity:1"
       d="m 50.951868,205.19004 -17.8175,105.67578 c -1.4907,9.409 10.7152,14.8348 25.1875,14.5625 120.431602,-2.266 252.172202,-3.7611 372.187502,0.9062 35.5957,1.3844 31.4172,92.2832 31.3438,114 l -0.875,254.375 c -0.1327,39.2526 -7.7694,73.1262 -9.8125,108.375 0,4.1481 2.0566,14.8518 8,14.4375 5.9541,-0.4149 62.8513,-21.6306 70.8438,-35.8437 0.9564,-2.4201 2.6354,-4.9412 3.375,-13.3438 0,0 -7.2118,-44.0106 -7.2188,-68.125 l 0.4375,-272.9062 c 0.074,-44.3007 3.3426,-74.07565 31,-88.92192 l 26.5211,-14.23633 c 6.3434,-3.40508 13.6583,-6.38548 13.6039,-17.27925 l -0.3438,-68.8125 c -0.042,-8.4721 -4.3827,-15.6611 -17.5625,-15.1875 -55.8203,2.0056 -166.9987,5.75426 -250.7187,4.32276 -69.8474,-1.1942 -159.7823,-7.82246 -218.5582,-10.27896 -13.338202,-0.5574 -33.990202,-18.35251 -40.197502,-18.45458 l -12.6369,-0.2078 c -3.6508,-0.06 -6.0097,2.50016 -6.7587,6.9428 z"
       id="path3004-1"
       inkscape:connector-curvature="0"
       sodipodi:nodetypes="scsscccsccccssssssssss" />
  </g>
</svg>
