<?xml version="1.0" encoding="UTF-8" standalone="no"?>
<!-- Created with Inkscape (http://www.inkscape.org/) -->

<svg
   xmlns:dc="http://purl.org/dc/elements/1.1/"
   xmlns:cc="http://creativecommons.org/ns#"
   xmlns:rdf="http://www.w3.org/1999/02/22-rdf-syntax-ns#"
   xmlns:svg="http://www.w3.org/2000/svg"
   xmlns="http://www.w3.org/2000/svg"
   xmlns:sodipodi="http://sodipodi.sourceforge.net/DTD/sodipodi-0.dtd"
   xmlns:inkscape="http://www.inkscape.org/namespaces/inkscape"
   width="1000"
   height="1000"
   id="svg2"
   version="1.1"
   inkscape:version="0.48.4 r9939"
   sodipodi:docname="40-mem.svg">
  <defs
     id="defs4">
    <inkscape:path-effect
       effect="spiro"
       id="path-effect6019"
       is_visible="true" />
  </defs>
  <sodipodi:namedview
     id="base"
     pagecolor="#ffffff"
     bordercolor="#666666"
     borderopacity="1.0"
     inkscape:pageopacity="0.0"
     inkscape:pageshadow="2"
     inkscape:zoom="1"
     inkscape:cx="589.90786"
     inkscape:cy="562.95384"
     inkscape:document-units="px"
     inkscape:current-layer="layer1"
     showgrid="true"
     gridtolerance="10"
     guidetolerance="1"
     showguides="true"
     inkscape:guide-bbox="true"
     inkscape:window-width="1680"
     inkscape:window-height="994"
     inkscape:window-x="-4"
     inkscape:window-y="-4"
     inkscape:window-maximized="1">
    <sodipodi:guide
       orientation="0,1"
       position="500,247"
       id="guide3019" />
    <sodipodi:guide
       orientation="1,0"
       position="100,500"
       id="guide2991" />
    <sodipodi:guide
       orientation="1,0"
       position="180,500"
       id="guide2993" />
    <sodipodi:guide
       orientation="0,1"
       position="1270,728.33333"
       id="guide2994" />
    <sodipodi:guide
       orientation="0,1"
       position="500,950"
       id="guide2996" />
    <sodipodi:guide
       orientation="0,1"
       position="500,841"
       id="guide4483" />
  </sodipodi:namedview>
  <metadata
     id="metadata7">
    <rdf:RDF>
      <cc:Work
         rdf:about="">
        <dc:format>image/svg+xml</dc:format>
        <dc:type
           rdf:resource="http://purl.org/dc/dcmitype/StillImage" />
        <dc:title></dc:title>
      </cc:Work>
    </rdf:RDF>
  </metadata>
  <g
     inkscape:label="Layer 1"
     inkscape:groupmode="layer"
     id="layer1"
     transform="translate(0,-52.362183)">
    <path
       sodipodi:nodetypes="ssssssssccccssssscsscssssccsssss"
       inkscape:connector-curvature="0"
       id="path3004-4"
       d="m 248.68519,295.87748 c -30.29166,-44.65169 -38.96898,-56.51324 -71.38902,-90.26536 -12.92533,-13.45641 -21.60615,-8.74286 -34.53942,4.22764 l -41.54011,41.65968 c -11.75911,11.79295 -6.3365,17.83839 0.78363,26.80982 l 40.88792,51.51916 c 37.08087,46.72224 5.99092,145.10471 -4.5381,199.55838 l -32.21964,166.63261 c -7.36657,38.09822 -19.47455,63.25569 -28.21607,97.04893 -0.7928,4.02334 -0.83599,14.80867 5.07443,15.55595 5.92117,0.7487 57.79332,-0.2814 68.35149,-12.52168 1.40098,-2.16233 3.53301,-4.27623 5.86445,-12.28293 0,0 5.56621,-37.57841 10.06881,-60.98783 l 42.45804,-220.7431 c 14.70528,-76.45403 39.01795,-163.57336 101.66589,-178.25944 53.33768,-12.50356 84.41805,-12.09965 163.61719,11.8354 62.95019,19.02439 97.0865,38.4302 97.0927,107.66697 l 0.013,145.19823 c -0.1606,21.7163 4.2519,112.6156 -31.3438,114 -120.0153,4.6673 -177.71305,5.1722 -297.14465,0.9062 -14.46564,-0.5167 -22.1782,2.6535 -25.1875,14.5625 l -13.0287,78.6757 c -2.73382,16.5086 25.93768,14.33874 66.9393,11.7805 59.0269,-3.6829 120.66795,-5.5847 190.51535,-6.779 60.3812,-1.0324 76.55497,-0.29232 117.4319,1.3891 62.83667,2.5847 57.61526,-33.868 56.56806,-201.5038 l -2.1344,-183.98853 c 0.5257,-107.5902 34.18375,-106.39914 -75.94556,-157.7581 -48.14459,-22.4523 -110.54155,-42.62879 -168.96179,-51.69157 -50.25601,-7.79626 -55.01792,-6.3792 -68.0289,12.62231 l -44.98168,65.6922 c -10.22981,14.93983 -20.5575,20.60652 -28.13282,9.44006 z"
       style="fill:none;stroke:#000000;stroke-width:1.03176868px;stroke-linecap:butt;stroke-linejoin:miter;stroke-opacity:1" />
  </g>
</svg>
