<?xml version="1.0" encoding="UTF-8" standalone="no"?>
<!-- Created with Inkscape (http://www.inkscape.org/) -->

<svg
   xmlns:dc="http://purl.org/dc/elements/1.1/"
   xmlns:cc="http://creativecommons.org/ns#"
   xmlns:rdf="http://www.w3.org/1999/02/22-rdf-syntax-ns#"
   xmlns:svg="http://www.w3.org/2000/svg"
   xmlns="http://www.w3.org/2000/svg"
   xmlns:sodipodi="http://sodipodi.sourceforge.net/DTD/sodipodi-0.dtd"
   xmlns:inkscape="http://www.inkscape.org/namespaces/inkscape"
   width="1000"
   height="1000"
   id="svg2"
   version="1.1"
   inkscape:version="0.48.4 r9939"
   sodipodi:docname="40-memsofit.svg">
  <defs
     id="defs4">
    <inkscape:path-effect
       effect="spiro"
       id="path-effect6019"
       is_visible="true" />
  </defs>
  <sodipodi:namedview
     id="base"
     pagecolor="#ffffff"
     bordercolor="#666666"
     borderopacity="1.0"
     inkscape:pageopacity="0.0"
     inkscape:pageshadow="2"
     inkscape:zoom="0.5"
     inkscape:cx="317.60749"
     inkscape:cy="522.44971"
     inkscape:document-units="px"
     inkscape:current-layer="layer1"
     showgrid="true"
     gridtolerance="10"
     guidetolerance="1"
     showguides="true"
     inkscape:guide-bbox="true"
     inkscape:window-width="1680"
     inkscape:window-height="994"
     inkscape:window-x="-4"
     inkscape:window-y="-4"
     inkscape:window-maximized="1">
    <sodipodi:guide
       orientation="0,1"
       position="500,247"
       id="guide3019" />
    <sodipodi:guide
       orientation="1,0"
       position="100,500"
       id="guide2991" />
    <sodipodi:guide
       orientation="1,0"
       position="180,500"
       id="guide2993" />
    <sodipodi:guide
       orientation="0,1"
       position="1270,728.33333"
       id="guide2994" />
    <sodipodi:guide
       orientation="0,1"
       position="500,950"
       id="guide2996" />
    <sodipodi:guide
       orientation="0,1"
       position="500,841"
       id="guide4483" />
  </sodipodi:namedview>
  <metadata
     id="metadata7">
    <rdf:RDF>
      <cc:Work
         rdf:about="">
        <dc:format>image/svg+xml</dc:format>
        <dc:type
           rdf:resource="http://purl.org/dc/dcmitype/StillImage" />
        <dc:title></dc:title>
      </cc:Work>
    </rdf:RDF>
  </metadata>
  <g
     inkscape:label="Layer 1"
     inkscape:groupmode="layer"
     id="layer1"
     transform="translate(0,-52.362183)">
    <path
       style="fill:none;stroke:#000000;stroke-width:1.03771424px;stroke-linecap:butt;stroke-linejoin:miter;stroke-opacity:1"
       d="m 178.46416,426.00545 -6.67896,190.1917 c -3.05163,86.89908 14.0636,89.20138 60.8645,90.63528 88.37544,2.70767 212.10367,-0.47879 302.03851,-5.09938 35.5757,-1.82778 31.322,-92.28299 31.3438,-114 l 0.1515,-151.0395 c 0.032,-31.71072 -7.8319,-108.65099 -80.23294,-114.95109 -111.2495,-9.6806 -194.50568,-9.8806 -275.79533,-4.30291 -17.20195,1.18031 -28.09503,6.16388 -31.69108,108.5659 z M 119.21804,204.35076 c -0.0838,-4.50449 3.10976,-7.0739 6.7587,-6.9428 l 16.47987,0.5921 c 6.20413,0.22291 26.8477,18.042 40.1975,18.0703 64.4059,0.1365 188.39876,1.3085 236.39036,2.447 244.04524,5.6752 206.77714,30.84964 209.23724,205.14499 l 2.4997,177.1019 c 2.3659,167.62246 4.2866,202.9765 -56.5679,201.5038 -57.88754,-1.401 -80.55074,-2.4215 -140.93204,-1.389 -69.8473,1.1943 -205.40905,3.88815 -264.16517,6.7789 -59.3886,2.92187 -65.7346,22.87157 -61.5045,-144.3891 l 7.87682,-311.4546 c 1.06972,-42.29746 4.80734,-89.50647 3.72942,-147.46349 z"
       id="path3004-1-1-0-1"
       inkscape:connector-curvature="0"
       sodipodi:nodetypes="ssssssssssssscssssssss" />
  </g>
</svg>
