<?xml version="1.0" encoding="UTF-8" standalone="no"?>
<!-- Created with Inkscape (http://www.inkscape.org/) -->

<svg
   xmlns:dc="http://purl.org/dc/elements/1.1/"
   xmlns:cc="http://creativecommons.org/ns#"
   xmlns:rdf="http://www.w3.org/1999/02/22-rdf-syntax-ns#"
   xmlns:svg="http://www.w3.org/2000/svg"
   xmlns="http://www.w3.org/2000/svg"
   xmlns:sodipodi="http://sodipodi.sourceforge.net/DTD/sodipodi-0.dtd"
   xmlns:inkscape="http://www.inkscape.org/namespaces/inkscape"
   width="1000"
   height="1000"
   id="svg2"
   version="1.1"
   inkscape:version="0.48.4 r9939"
   sodipodi:docname="400-tav.svg">
  <defs
     id="defs4">
    <inkscape:path-effect
       effect="spiro"
       id="path-effect2992"
       is_visible="true" />
  </defs>
  <sodipodi:namedview
     id="base"
     pagecolor="#ffffff"
     bordercolor="#666666"
     borderopacity="1.0"
     inkscape:pageopacity="0.0"
     inkscape:pageshadow="2"
     inkscape:zoom="0.84852814"
     inkscape:cx="48.685072"
     inkscape:cy="415.95338"
     inkscape:document-units="px"
     inkscape:current-layer="g5885"
     showgrid="true"
     gridtolerance="10"
     guidetolerance="1"
     showguides="false"
     inkscape:guide-bbox="true"
     inkscape:window-width="1680"
     inkscape:window-height="994"
     inkscape:window-x="-4"
     inkscape:window-y="-4"
     inkscape:window-maximized="1">
    <sodipodi:guide
       orientation="0,1"
       position="500,247"
       id="guide3019" />
    <sodipodi:guide
       orientation="1,0"
       position="100,500"
       id="guide2991" />
    <sodipodi:guide
       orientation="1,0"
       position="180,500"
       id="guide2993" />
    <sodipodi:guide
       orientation="0,1"
       position="1270,728.33333"
       id="guide2994" />
    <sodipodi:guide
       orientation="0,1"
       position="500,950"
       id="guide2996" />
    <sodipodi:guide
       orientation="0,1"
       position="500,841"
       id="guide4483" />
  </sodipodi:namedview>
  <metadata
     id="metadata7">
    <rdf:RDF>
      <cc:Work
         rdf:about="">
        <dc:format>image/svg+xml</dc:format>
        <dc:type
           rdf:resource="http://purl.org/dc/dcmitype/StillImage" />
        <dc:title />
      </cc:Work>
    </rdf:RDF>
  </metadata>
  <g
     inkscape:label="Layer 1"
     inkscape:groupmode="layer"
     id="layer1"
     transform="translate(0,-52.362183)">
    <g
       id="g5885">
      <path
         sodipodi:nodetypes="sssssssssssscccccssccccsscss"
         inkscape:connector-curvature="0"
         id="path3004-4"
         d="m 212.3016,417.08097 c 0.37178,120.96522 6.24625,244.3954 13.61809,363.08917 0.74512,11.99713 -3.39744,15.81777 -8.89994,18.70584 -12.04075,6.31977 -57.44716,8.64589 -63.40333,9.02643 -38.5077,2.46028 -107.210873,3.91501 -124.242621,3.09884 -6.604122,-0.31647 -9.307064,-5.12653 -8.201362,-13.32649 3.978779,-29.5069 7.535874,-53.51117 12.167215,-85.15676 0.487353,-3.33004 4.316831,-7.86013 9.927881,-7.75727 16.811047,0.30819 85.540137,5.786 107.737587,1.73439 8.52717,-1.55643 11.01773,-3.8024 10.80945,-14.75317 L 155.6695,368.65515 C 154.63286,314.15202 95.540806,332.43343 99.613128,309.56699 L 117.93203,206.7048 c 0.85039,-4.42914 3.08268,-7.01575 6.73228,-6.94489 l 12.64961,0.2126 c 6.20079,0.0709 26.85826,18.4252 40.21653,18.4252 64.38189,0.14173 190.52267,1.31102 238.53448,2.44488 237.8622,5.70472 207.1205,30.85018 209.23228,205.15747 l 3.37792,278.81427 c 0.28889,23.84471 1.77165,67.35827 1.77165,67.35827 -0.74409,8.29134 -2.40945,10.77165 -3.36614,13.1811 -8.00787,14.06693 -54.77953,35.04331 -60.73228,35.43307 -5.91733,0.4252 -7.97244,-10.16929 -7.97244,-14.27953 2.05511,-34.83071 5.14795,-77.38578 5.10236,-116.18503 l -0.29524,-251.28278 c -0.0255,-21.72048 -7.61811,-110.62204 -80.22047,-113.98819 -85.09371,-5.44384 -151.34419,-7.86274 -217.70972,-0.23489 -35.94914,4.13189 -53.14379,29.61816 -52.95125,92.26462 z"
         style="fill:none;stroke:#000000;stroke-width:1.03176868px;stroke-linecap:butt;stroke-linejoin:miter;stroke-opacity:1" />
    </g>
  </g>
</svg>
