<?xml version="1.0" encoding="UTF-8" standalone="no"?>
<!-- Created with Inkscape (http://www.inkscape.org/) -->

<svg
   xmlns:dc="http://purl.org/dc/elements/1.1/"
   xmlns:cc="http://creativecommons.org/ns#"
   xmlns:rdf="http://www.w3.org/1999/02/22-rdf-syntax-ns#"
   xmlns:svg="http://www.w3.org/2000/svg"
   xmlns="http://www.w3.org/2000/svg"
   xmlns:sodipodi="http://sodipodi.sourceforge.net/DTD/sodipodi-0.dtd"
   xmlns:inkscape="http://www.inkscape.org/namespaces/inkscape"
   width="1000"
   height="1000"
   id="svg2"
   version="1.1"
   inkscape:version="0.48.4 r9939"
   sodipodi:docname="5-heh-3.svg">
  <defs
     id="defs4" />
  <sodipodi:namedview
     id="base"
     pagecolor="#ffffff"
     bordercolor="#666666"
     borderopacity="1.0"
     inkscape:pageopacity="0.0"
     inkscape:pageshadow="2"
     inkscape:zoom="0.6"
     inkscape:cx="-11.17232"
     inkscape:cy="367.97703"
     inkscape:document-units="px"
     inkscape:current-layer="g5885"
     showgrid="true"
     gridtolerance="10"
     guidetolerance="1"
     showguides="true"
     inkscape:guide-bbox="true"
     inkscape:window-width="1680"
     inkscape:window-height="994"
     inkscape:window-x="-4"
     inkscape:window-y="-4"
     inkscape:window-maximized="1">
    <sodipodi:guide
       orientation="0,1"
       position="500,247"
       id="guide3019" />
    <sodipodi:guide
       orientation="1,0"
       position="100,500"
       id="guide2991" />
    <sodipodi:guide
       orientation="1,0"
       position="180,500"
       id="guide2993" />
    <sodipodi:guide
       orientation="0,1"
       position="1270,728.33333"
       id="guide2994" />
    <sodipodi:guide
       orientation="0,1"
       position="500,950"
       id="guide2996" />
    <sodipodi:guide
       orientation="0,1"
       position="500,841"
       id="guide4483" />
  </sodipodi:namedview>
  <metadata
     id="metadata7">
    <rdf:RDF>
      <cc:Work
         rdf:about="">
        <dc:format>image/svg+xml</dc:format>
        <dc:type
           rdf:resource="http://purl.org/dc/dcmitype/StillImage" />
        <dc:title></dc:title>
      </cc:Work>
    </rdf:RDF>
  </metadata>
  <g
     inkscape:label="Layer 1"
     inkscape:groupmode="layer"
     id="layer1"
     transform="translate(0,-52.362183)">
    <g
       id="g5885">
      <path
         sodipodi:nodetypes="scsccsssss"
         inkscape:connector-curvature="0"
         id="path5167-1"
         d="M 94.364987,500.5172 C 68.758511,609.89643 50.812351,688.80272 35.223221,802.30674 c -0.1226,10.8907 3.02828,16.4843 8.98794,15.3293 26.14497,-5.067 45.133386,-11.956 69.185729,-24.3006 5.06027,-2.8152 12.29032,-6.2607 12.58322,-18.9207 l 33.11301,-229.45827 c 3.21237,-22.26032 7.0317,-34.51688 10.92449,-61.38092 1.0488,-7.23778 0.76011,-8.14903 -6.92991,-8.44252 -13.6104,-0.51945 -27.88124,-0.20177 -54.86509,2.06671 -5.13631,0.4318 -10.827143,10.37264 -13.857623,23.31746 z"
         style="fill:none;stroke:#000000;stroke-width:0.8984617px;stroke-linecap:butt;stroke-linejoin:miter;stroke-opacity:1" />
      <path
         style="fill:none;stroke:#000000;stroke-width:1.03771424px;stroke-linecap:butt;stroke-linejoin:miter;stroke-opacity:1"
         d="m 61.372692,204.38221 -18.13425,106.23598 c -1.4907,9.409 10.7152,14.8348 25.1875,14.5625 120.431598,-2.266 252.172188,-3.7611 372.187488,0.9062 35.5957,1.3844 31.4172,92.2832 31.3438,114 l -0.875,254.375 c -0.1327,39.2526 -5.29161,73.1262 -7.33471,108.375 0,4.1481 2.0566,14.8518 8,14.4375 5.9541,-0.4149 59.32413,-21.6306 67.31663,-35.8437 0.9564,-2.4201 2.6354,-4.9412 3.375,-13.3438 0,0 -6.16242,-44.0106 -6.16942,-68.125 l 0.4375,-272.9062 c 0.074,-44.3007 8.86606,-71.48725 31,-86.50518 l 25.9687,-17.61982 c 8.64454,-5.86534 14.2172,-4.3139 14.1563,-16.3125 l -0.3438,-68.81248 c -0.043,-8.4721 -4.3827,-15.6611 -17.5625,-15.1875 -55.8203,2.0056 -166.9987,6.46555 -250.7187,5.03405 -69.8474,-1.1942 -161.32223,-8.53375 -220.09813,-10.99025 -13.3382,-0.5574 -29.944288,-18.86053 -38.906188,-19.0148 l -12.07152,-0.2078 c -3.65067,-0.0628 -6.00061,2.50169 -6.7587,6.9428 z"
         id="path3004-1-7"
         inkscape:connector-curvature="0"
         sodipodi:nodetypes="scsscccsccccssccssssss" />
    </g>
  </g>
</svg>
