<?xml version="1.0" encoding="UTF-8" standalone="no"?>
<!-- Created with Inkscape (http://www.inkscape.org/) -->

<svg
   xmlns:dc="http://purl.org/dc/elements/1.1/"
   xmlns:cc="http://creativecommons.org/ns#"
   xmlns:rdf="http://www.w3.org/1999/02/22-rdf-syntax-ns#"
   xmlns:svg="http://www.w3.org/2000/svg"
   xmlns="http://www.w3.org/2000/svg"
   xmlns:sodipodi="http://sodipodi.sourceforge.net/DTD/sodipodi-0.dtd"
   xmlns:inkscape="http://www.inkscape.org/namespaces/inkscape"
   width="1000"
   height="1000"
   id="svg2"
   version="1.1"
   inkscape:version="0.48.4 r9939"
   sodipodi:docname="basis.svg">
  <defs
     id="defs4" />
  <sodipodi:namedview
     id="base"
     pagecolor="#ffffff"
     bordercolor="#666666"
     borderopacity="1.0"
     inkscape:pageopacity="0.0"
     inkscape:pageshadow="2"
     inkscape:zoom="0.7"
     inkscape:cx="741.65437"
     inkscape:cy="488.98351"
     inkscape:document-units="px"
     inkscape:current-layer="layer1"
     showgrid="true"
     gridtolerance="10"
     guidetolerance="10"
     showguides="true"
     inkscape:guide-bbox="true"
     inkscape:window-width="1680"
     inkscape:window-height="994"
     inkscape:window-x="-4"
     inkscape:window-y="-4"
     inkscape:window-maximized="1">
    <sodipodi:guide
       orientation="0,1"
       position="500,247"
       id="guide3019" />
    <sodipodi:guide
       orientation="0,1"
       position="500,732"
       id="guide3072" />
    <sodipodi:guide
       orientation="0,1"
       position="500,842"
       id="guide3074" />
    <sodipodi:guide
       orientation="0,1"
       position="500,955"
       id="guide3076" />
  </sodipodi:namedview>
  <metadata
     id="metadata7">
    <rdf:RDF>
      <cc:Work
         rdf:about="">
        <dc:format>image/svg+xml</dc:format>
        <dc:type
           rdf:resource="http://purl.org/dc/dcmitype/StillImage" />
        <dc:title></dc:title>
      </cc:Work>
    </rdf:RDF>
  </metadata>
  <g
     inkscape:label="Layer 1"
     inkscape:groupmode="layer"
     id="layer1"
     transform="translate(0,-52.362183)">
    <path
       sodipodi:nodetypes="ccccsscsscccscssc"
       inkscape:connector-curvature="0"
       id="path3004-4"
       d="m 534.24319,798.28339 c 0,4.10066 2.0428,14.69091 7.9862,14.28144 5.9542,-0.41021 52.7117,-21.38692 60.7042,-35.43749 0.9565,-2.39242 2.6396,-4.87861 3.3791,-13.18503 0,0 -1.7636,-43.52337 -1.7782,-67.36191 l -0.1252,-204.31936 c -0.044,-72.13085 13.5797,-172.22869 13.5797,-172.22869 2.54,-14.44107 -8.3211,-27.57576 -16.6948,-34.09106 -58.8745,-45.80843 -88.1796,-65.40006 -143.4109,-89.04125 -10.2993,-4.40851 -21.5761,-1.51542 -28.5642,12.82036 l -25.5563,49.15671 c -4.1376,8.97635 -2.2857,20.32814 5.9521,26.15247 l 77.606,46.89187 c 29.1033,17.5851 47.0502,50.85769 48.2898,85.48379 2.6336,47.5653 4.1378,66.08751 4.0415,115.43921 l -0.291,149.25041 c -0.076,38.8038 -3.0748,81.34284 -5.118,116.18853 z"
       style="fill:#000000;fill-opacity:1;stroke:#000000;stroke-width:1.03176868px;stroke-linecap:butt;stroke-linejoin:miter;stroke-opacity:1" />
  </g>
</svg>
