<?xml version="1.0" encoding="UTF-8" standalone="no"?>
<!-- Created with Inkscape (http://www.inkscape.org/) -->

<svg
   xmlns:dc="http://purl.org/dc/elements/1.1/"
   xmlns:cc="http://creativecommons.org/ns#"
   xmlns:rdf="http://www.w3.org/1999/02/22-rdf-syntax-ns#"
   xmlns:svg="http://www.w3.org/2000/svg"
   xmlns="http://www.w3.org/2000/svg"
   xmlns:sodipodi="http://sodipodi.sourceforge.net/DTD/sodipodi-0.dtd"
   xmlns:inkscape="http://www.inkscape.org/namespaces/inkscape"
   width="1000"
   height="1000"
   id="svg2"
   version="1.1"
   inkscape:version="0.48.4 r9939"
   sodipodi:docname="80-pehalt.svg">
  <defs
     id="defs4">
    <inkscape:path-effect
       effect="spiro"
       id="path-effect6019"
       is_visible="true" />
  </defs>
  <sodipodi:namedview
     id="base"
     pagecolor="#ffffff"
     bordercolor="#666666"
     borderopacity="1.0"
     inkscape:pageopacity="0.0"
     inkscape:pageshadow="2"
     inkscape:zoom="0.70710678"
     inkscape:cx="440.55616"
     inkscape:cy="404.90243"
     inkscape:document-units="px"
     inkscape:current-layer="layer1"
     showgrid="true"
     gridtolerance="10"
     guidetolerance="1"
     showguides="false"
     inkscape:guide-bbox="true"
     inkscape:window-width="1680"
     inkscape:window-height="988"
     inkscape:window-x="-8"
     inkscape:window-y="-8"
     inkscape:window-maximized="1">
    <sodipodi:guide
       orientation="0,1"
       position="500,247"
       id="guide3019" />
    <sodipodi:guide
       orientation="1,0"
       position="100,500"
       id="guide2991" />
    <sodipodi:guide
       orientation="1,0"
       position="180,500"
       id="guide2993" />
    <sodipodi:guide
       orientation="0,1"
       position="1270,728.33333"
       id="guide2994" />
    <sodipodi:guide
       orientation="0,1"
       position="500,950"
       id="guide2996" />
    <sodipodi:guide
       orientation="0,1"
       position="500,841"
       id="guide4483" />
  </sodipodi:namedview>
  <metadata
     id="metadata7">
    <rdf:RDF>
      <cc:Work
         rdf:about="">
        <dc:format>image/svg+xml</dc:format>
        <dc:type
           rdf:resource="http://purl.org/dc/dcmitype/StillImage" />
        <dc:title></dc:title>
      </cc:Work>
    </rdf:RDF>
  </metadata>
  <g
     inkscape:label="Layer 1"
     inkscape:groupmode="layer"
     id="layer1"
     transform="translate(0,-52.362183)">
    <path
       id="path3786"
       d="m 302.28097,210.44093 -12.6496,-0.2126 c -3.6496,-0.0709 -6.26285,2.45936 -6.7322,6.94488 -3.35054,32.02055 -8.1278,63.86868 -12.54483,95.74998 -1.30735,9.43622 6.30763,12.85348 14.65717,14.33027 19.1626,3.3893 18.53134,22.29751 16.18147,29.39879 -13.36288,40.38246 -22.51153,71.4051 -35.54502,131.71779 -3.09709,14.33185 10.41931,25.7312 19.64977,30.96252 46.25005,26.21202 92.28556,44.31165 150.46151,58.88333 10.86744,2.72202 21.08203,-2.65971 25.66263,-17.93601 l 15.9127,-53.06879 c 2.83885,-9.46755 -1.31384,-20.97646 -10.73797,-24.57799 l -77.93497,-29.78365 c -52.54383,-21.17942 -45.77442,-56.70649 -30.54838,-103.09739 7.18332,-21.88625 7.32686,-21.8974 31.39856,-21.26072 46.61126,1.23284 84.70033,6.58447 129.0476,17.19372 88.83059,21.25105 130.7088,43.467 130.0927,111.2025 l 0.013,141.6627 c -0.1606,21.7163 4.2519,112.6156 -31.3438,114 -120.0153,4.6673 -222.49616,2.5472 -343.05276,-1.40446 -14.46709,-0.47421 -22.1782,4.96416 -25.1875,16.87316 l -13.0287,78.6757 c -2.73383,16.5086 25.8931,13.4795 66.9393,11.7805 58.7769,-2.4329 143.07606,-5.5847 212.92346,-6.779 60.3812,-1.0324 83.0444,-0.012 140.9319,1.3891 60.85456,1.4726 57.61526,-33.868 56.56806,-201.5038 l -2.1344,-180.453 c 0.5257,-107.5902 33.23303,-121.68175 -75.94556,-158.2581 -92.25504,-30.90673 -185.40625,-43.26661 -294.00455,-43.96402 -15.72655,-0.10099 -32.84879,-18.39451 -39.04959,-18.46541 z"
       style="fill:none;fill-opacity:1;stroke:#000000;stroke-width:1.02755904000000010px;stroke-linecap:butt;stroke-linejoin:miter;stroke-miterlimit:4;stroke-opacity:1;stroke-dasharray:none"
       inkscape:connector-curvature="0"
       sodipodi:nodetypes="ccsssssssssscsssccsscssssccssc" />
  </g>
</svg>
