<?xml version="1.0" encoding="UTF-8" standalone="no"?>
<!-- Created with Inkscape (http://www.inkscape.org/) -->

<svg
   xmlns:dc="http://purl.org/dc/elements/1.1/"
   xmlns:cc="http://creativecommons.org/ns#"
   xmlns:rdf="http://www.w3.org/1999/02/22-rdf-syntax-ns#"
   xmlns:svg="http://www.w3.org/2000/svg"
   xmlns="http://www.w3.org/2000/svg"
   xmlns:sodipodi="http://sodipodi.sourceforge.net/DTD/sodipodi-0.dtd"
   xmlns:inkscape="http://www.inkscape.org/namespaces/inkscape"
   width="1000"
   height="1000"
   id="svg2"
   version="1.1"
   inkscape:version="0.48.4 r9939"
   sodipodi:docname="9-tet.svg">
  <defs
     id="defs4" />
  <sodipodi:namedview
     id="base"
     pagecolor="#ffffff"
     bordercolor="#666666"
     borderopacity="1.0"
     inkscape:pageopacity="0.0"
     inkscape:pageshadow="2"
     inkscape:zoom="0.175"
     inkscape:cx="-68.85993"
     inkscape:cy="-984.49251"
     inkscape:document-units="px"
     inkscape:current-layer="layer1"
     showgrid="true"
     gridtolerance="10"
     guidetolerance="10"
     showguides="false"
     inkscape:guide-bbox="true"
     inkscape:window-width="1680"
     inkscape:window-height="988"
     inkscape:window-x="-8"
     inkscape:window-y="-8"
     inkscape:window-maximized="1">
    <sodipodi:guide
       orientation="0,1"
       position="500,247"
       id="guide3019" />
    <sodipodi:guide
       orientation="0,1"
       position="500,732"
       id="guide3072" />
    <sodipodi:guide
       orientation="0,1"
       position="500,842"
       id="guide3074" />
    <sodipodi:guide
       orientation="0,1"
       position="500,955"
       id="guide3076" />
    <sodipodi:guide
       orientation="1,0"
       position="100,500"
       id="guide3867" />
    <sodipodi:guide
       orientation="1,0"
       position="180,500"
       id="guide3869" />
  </sodipodi:namedview>
  <metadata
     id="metadata7">
    <rdf:RDF>
      <cc:Work
         rdf:about="">
        <dc:format>image/svg+xml</dc:format>
        <dc:type
           rdf:resource="http://purl.org/dc/dcmitype/StillImage" />
        <dc:title></dc:title>
      </cc:Work>
    </rdf:RDF>
  </metadata>
  <g
     inkscape:label="Layer 1"
     inkscape:groupmode="layer"
     id="layer1"
     transform="translate(0,-52.362183)">
    <path
       sodipodi:nodetypes="ssssssssssssssssssssssssssss"
       inkscape:connector-curvature="0"
       id="path3004-4-1-5"
       d="m 2234.4925,508.1672 c 1.6041,92.18825 6.1825,152.74172 -29.5005,166.93202 -64.0636,25.47658 -236.5901,94.34654 -264.9791,21.80088 -28.1898,-72.03663 -46.2516,-147.68837 -60.095,-224.7772 -12.6306,-70.33529 36.968,-107.65029 51.8772,-105.31446 19.2968,3.02325 35.1027,24.98996 46.2113,7.68122 l 33.9341,-52.87419 c 7.9197,-12.33996 -9.5479,-28.009 -17.9216,-34.5243 -58.8745,-45.80839 -91.751,-63.97142 -146.9823,-87.61262 -10.2993,-4.4085 -21.2076,-1.32982 -28.5642,12.8204 l -25.5563,49.15669 c -4.5593,8.76972 -2.8275,21.18227 5.9521,26.1525 l 64.5068,36.51823 c 11.4818,6.50001 17.305,20.0341 9.403,32.40676 l -40.6321,63.61987 c -15.3205,23.9882 -19.8294,30.36398 -6.0574,103.897 14.9089,79.60309 38.0892,164.70479 65.3821,237.0734 43.9197,116.45545 264.1362,5.64581 351.2038,-38.4212 52.0732,-26.4417 62.0101,-21.13567 56.568,-201.5038 l -2.1344,-70.74017 c -3.2448,-107.54254 31.604,-146.77345 -115.148,-186.26328 -25.1389,-6.76469 -45.4991,-2.25894 -53.664,11.99195 l -60.139,104.96592 c -3.5998,6.28313 -2.1673,11.48408 7.4409,16.07578 l 12.544,5.99471 c 8.3588,3.99463 11.3912,-1.42928 17.1748,-10.49611 13.7736,-21.59261 43.6964,-28.42339 68.3684,-19.2719 63.5538,23.57371 58.6095,8.40317 60.8074,134.7119 z"
       style="fill:none;stroke:#000000;stroke-width:1.03176868px;stroke-linecap:butt;stroke-linejoin:miter;stroke-opacity:1" />
    <path
       sodipodi:nodetypes="ssssssssssssssssss"
       inkscape:connector-curvature="0"
       id="path3004-4-1-5-8"
       d="m 1622.7934,1022.6681 -40.9325,65.0449 c -15.1598,24.0901 -16.0041,25.4314 -6.0574,103.897 10.5047,82.8683 38.7114,173.1746 75.3821,244.9305 48.5372,94.976 250.0765,24.8575 316.0812,-10.996 81.9003,-44.4879 82.5033,-112.4872 89.6577,-340.8613 3.6378,-116.12319 38.1316,-115.96741 -86.047,-158.2581 -92.1,-31.36589 -229.7073,-43.20582 -335.9366,-43.92379 -56.8454,-0.3842 -68.3411,-0.34444 -71.1153,20.26406 -2.8475,21.15333 -5.6952,42.30673 -8.5429,63.46003 -1.271,9.4412 6.9086,13.174 24.6572,16.3303 33.0652,5.8801 54.8865,20.991 42.8535,40.1124 z m 231.3084,-20.3978 c 119.8741,21.763 146.1946,61.4132 140.2072,187.599 -4.8263,101.7162 -31.6563,147.2619 -60.5577,164.3943 -63.489,37.6355 -205.331,71.2803 -243.5437,2.0942 -35.2318,-63.789 -56.1015,-138.3482 -60.5747,-216.6749 -7.3471,-128.6472 118.3859,-156.67182 224.4689,-137.4126 z"
       style="fill:none;stroke:#000000;stroke-width:1.03176868px;stroke-linecap:butt;stroke-linejoin:miter;stroke-opacity:1" />
    <path
       sodipodi:nodetypes="sssssssssssssssssssssssss"
       inkscape:connector-curvature="0"
       id="path3004-4-1-5-7"
       d="m 2990.3514,520.73419 c -9.5139,91.71005 -12.746,155.24172 -43.0719,166.93202 -64.3292,24.79824 -236.5901,94.34654 -264.9791,21.80088 -28.1898,-72.03663 -46.2516,-147.68837 -60.095,-224.7772 -12.6306,-70.33529 36.968,-107.65029 51.8772,-105.31446 19.2968,3.02325 35.1027,24.98996 46.2113,7.68122 l 33.9341,-52.87419 c 7.9197,-12.33996 -9.5479,-28.00899 -17.9216,-34.52429 -58.8745,-45.80839 -91.751,-63.97142 -146.9823,-87.61262 -10.2993,-4.4085 -21.2076,-1.32982 -28.5642,12.8204 l -25.5563,49.15669 c -4.5593,8.76972 -2.8275,21.18227 5.9521,26.1525 l 64.5068,36.51822 c 11.4818,6.50001 17.305,20.0341 9.403,32.40676 l -40.6321,63.61987 c -15.3205,23.9882 -19.8294,30.36398 -6.0574,103.897 14.9089,79.60309 38.0892,164.70479 65.3821,237.0734 43.9197,116.45545 264.1362,5.64581 351.2038,-38.4212 52.0732,-26.4417 56.3572,-21.38462 67.2823,-201.5038 0,0 5.7199,-94.30297 8.5799,-141.45446 6.514,-107.39409 68.9796,-106.85105 -79.7927,-179.17083 -23.4134,-11.3815 -26.5672,1.65355 -35.9863,20.07317 l -26.804,52.41661 c -10.3387,20.21785 2.6594,20.55591 19.1601,29.67812 64.4968,35.65623 69.4402,46.47043 52.9502,205.42619 z"
       style="fill:none;stroke:#000000;stroke-width:1.03176868px;stroke-linecap:butt;stroke-linejoin:miter;stroke-opacity:1" />
    <path
       sodipodi:nodetypes="sssssssssssssssssssssssssss"
       inkscape:connector-curvature="0"
       id="path3004-4-1-5-8-9"
       d="m 468.22399,687.5193 c -63.4891,37.63552 -205.3311,71.28035 -243.5438,2.09425 -35.2318,-63.789 -51.6292,-138.70199 -60.0199,-216.34326 -7.6326,-70.62628 37.5228,-107.3186 52.432,-104.98277 19.2968,3.02325 35.1027,24.98996 46.2113,7.68122 l 33.9341,-52.87419 c 7.9197,-12.33996 -9.5479,-28.00899 -17.9216,-34.52429 -58.8745,-45.8084 -91.751,-63.97143 -146.9823,-87.61263 -10.2993,-4.4085 -21.2076,-1.32982 -28.5642,12.8204 l -25.556298,49.1567 c -4.5593,8.76972 -2.8275,21.18227 5.9521,26.1525 l 64.506798,36.51822 c 11.4818,6.50001 17.4106,20.10219 9.403,32.40676 l -41.1869,63.28819 c -15.5373,23.87474 -16.5588,25.0997 -6.6122,103.56531 10.5048,82.8683 38.7114,173.1746 75.3821,244.93054 48.5373,94.97595 249.83204,24.40374 316.0813,-10.99606 92.61459,-49.48792 110.82993,-112.39255 109.7074,-342.04483 -0.59146,-121.00315 41.3368,-144.31377 -115.0983,-187.44681 -25.09665,-6.91977 -43.62934,-1.01032 -53.664,11.99195 -25.87779,33.53077 -45.02026,68.74537 -60.139,104.96591 -2.78933,6.68251 -2.12126,11.38895 7.4409,16.07578 l 15.32192,7.50994 c 8.31875,4.07738 11.3912,-1.42928 17.1748,-10.49611 13.7736,-21.59261 46.89626,-33.25346 71.66191,-24.35856 41.23762,14.81102 56.17097,29.10949 54.68627,163.20546 -1.40308,126.7244 -51.706,172.184 -80.6074,189.31638 z"
       style="fill:none;stroke:#000000;stroke-width:1.03176868px;stroke-linecap:butt;stroke-linejoin:miter;stroke-opacity:1" />
  </g>
</svg>
